<svg width="335" height="95" viewBox="0 0 335 95" fill="none" xmlns="http://www.w3.org/2000/svg">
<path d="M80.0682 94.1542C79.0042 94.1542 78.2669 93.7389 77.8562 92.9082C77.4456 92.0776 77.2402 90.8082 77.2402 89.1002C77.2402 87.3922 77.4456 86.1229 77.8562 85.2922C78.2669 84.4522 79.0042 84.0322 80.0682 84.0322C81.1229 84.0322 81.8556 84.4522 82.2662 85.2922C82.6769 86.1229 82.8822 87.3922 82.8822 89.1002C82.8822 90.8082 82.6769 92.0776 82.2662 92.9082C81.8556 93.7389 81.1229 94.1542 80.0682 94.1542ZM80.0682 92.9922C80.4602 92.9922 80.7729 92.8756 81.0062 92.6422C81.2489 92.3996 81.4216 91.9936 81.5242 91.4242C81.6362 90.8549 81.6922 90.0802 81.6922 89.1002C81.6922 88.1109 81.6362 87.3316 81.5242 86.7622C81.4216 86.1929 81.2489 85.7916 81.0062 85.5582C80.7729 85.3156 80.4602 85.1942 80.0682 85.1942C79.6856 85.1942 79.3729 85.3156 79.1302 85.5582C78.8876 85.7916 78.7102 86.1929 78.5982 86.7622C78.4862 87.3316 78.4302 88.1109 78.4302 89.1002C78.4302 90.0802 78.4862 90.8549 78.5982 91.4242C78.7102 91.9936 78.8876 92.3996 79.1302 92.6422C79.3729 92.8756 79.6856 92.9922 80.0682 92.9922Z" fill="white"/>
<path d="M73.0272 94.1542C71.9632 94.1542 71.2259 93.7389 70.8152 92.9082C70.4046 92.0776 70.1992 90.8082 70.1992 89.1002C70.1992 87.3922 70.4046 86.1229 70.8152 85.2922C71.2259 84.4522 71.9632 84.0322 73.0272 84.0322C74.0819 84.0322 74.8145 84.4522 75.2252 85.2922C75.6359 86.1229 75.8412 87.3922 75.8412 89.1002C75.8412 90.8082 75.6359 92.0776 75.2252 92.9082C74.8145 93.7389 74.0819 94.1542 73.0272 94.1542ZM73.0272 92.9922C73.4192 92.9922 73.7319 92.8756 73.9652 92.6422C74.2079 92.3996 74.3806 91.9936 74.4832 91.4242C74.5952 90.8549 74.6512 90.0802 74.6512 89.1002C74.6512 88.1109 74.5952 87.3316 74.4832 86.7622C74.3806 86.1929 74.2079 85.7916 73.9652 85.5582C73.7319 85.3156 73.4192 85.1942 73.0272 85.1942C72.6446 85.1942 72.3319 85.3156 72.0892 85.5582C71.8466 85.7916 71.6692 86.1929 71.5572 86.7622C71.4452 87.3316 71.3892 88.1109 71.3892 89.1002C71.3892 90.0802 71.4452 90.8549 71.5572 91.4242C71.6692 91.9936 71.8466 92.3996 72.0892 92.6422C72.3319 92.8756 72.6446 92.9922 73.0272 92.9922Z" fill="white"/>
<path d="M67.7505 88.9743C67.4892 88.9743 67.2652 88.8856 67.0785 88.7083C66.9012 88.5216 66.8125 88.2976 66.8125 88.0363C66.8125 87.775 66.9012 87.5556 67.0785 87.3783C67.2652 87.201 67.4892 87.1123 67.7505 87.1123C68.0025 87.1123 68.2172 87.201 68.3945 87.3783C68.5812 87.5556 68.6745 87.775 68.6745 88.0363C68.6745 88.2976 68.5812 88.5216 68.3945 88.7083C68.2172 88.8856 68.0025 88.9743 67.7505 88.9743ZM67.7505 94.1543C67.4892 94.1543 67.2652 94.0656 67.0785 93.8883C66.9012 93.7016 66.8125 93.4823 66.8125 93.2303C66.8125 92.969 66.9012 92.7496 67.0785 92.5723C67.2652 92.3856 67.4892 92.2923 67.7505 92.2923C68.0025 92.2923 68.2172 92.3856 68.3945 92.5723C68.5812 92.7496 68.6745 92.969 68.6745 93.2303C68.6745 93.4823 68.5812 93.7016 68.3945 93.8883C68.2172 94.0656 68.0025 94.1543 67.7505 94.1543Z" fill="white"/>
<path d="M62.0437 94.1542C61.5584 94.1542 61.1104 94.0329 60.6997 93.7902C60.2891 93.5382 59.9484 93.2209 59.6777 92.8382L60.5737 92.1522C60.7604 92.4136 60.9704 92.6282 61.2037 92.7962C61.4464 92.9549 61.7264 93.0342 62.0437 93.0342C62.5664 93.0342 62.9771 92.8616 63.2757 92.5162C63.5837 92.1616 63.7984 91.6809 63.9197 91.0742C64.0504 90.4582 64.1157 89.7536 64.1157 88.9602C63.9477 89.2682 63.7004 89.5109 63.3737 89.6882C63.0564 89.8562 62.7111 89.9402 62.3377 89.9402C61.8431 89.9402 61.3951 89.8282 60.9937 89.6042C60.5924 89.3709 60.2704 89.0396 60.0277 88.6102C59.7944 88.1809 59.6777 87.6676 59.6777 87.0702C59.6777 86.4822 59.7897 85.9596 60.0137 85.5022C60.2377 85.0449 60.5504 84.6856 60.9517 84.4242C61.3531 84.1629 61.8197 84.0322 62.3517 84.0322C62.7624 84.0322 63.1497 84.1069 63.5137 84.2562C63.8777 84.4056 64.1951 84.6622 64.4657 85.0262C64.7364 85.3902 64.9464 85.8896 65.0957 86.5242C65.2451 87.1496 65.3104 87.9429 65.2917 88.9042C65.2544 90.7242 64.9604 92.0542 64.4097 92.8942C63.8591 93.7342 63.0704 94.1542 62.0437 94.1542ZM62.3657 88.8622C62.8511 88.8622 63.2477 88.6849 63.5557 88.3302C63.8637 87.9662 63.9944 87.5136 63.9477 86.9722C63.9011 86.3936 63.7424 85.9549 63.4717 85.6562C63.2104 85.3482 62.8604 85.1942 62.4217 85.1942C61.9364 85.1942 61.5584 85.3762 61.2877 85.7402C61.0264 86.1042 60.8957 86.5476 60.8957 87.0702C60.8957 87.6022 61.0311 88.0362 61.3017 88.3722C61.5724 88.6989 61.9271 88.8622 62.3657 88.8622Z" fill="white"/>
<path d="M56.2983 93.9999V85.7259L54.4503 86.9019L53.8203 85.8939L56.5783 84.1719H57.4883V93.9999H56.2983Z" fill="white"/>
<path d="M49.3268 90.2206C48.7668 90.2206 48.2628 90.1226 47.8148 89.9266C47.3761 89.7213 46.9608 89.4973 46.5688 89.2546C46.1674 89.012 45.7708 88.788 45.3788 88.5826C44.9961 88.3773 44.5854 88.2746 44.1468 88.2746C43.7921 88.2746 43.4654 88.3586 43.1668 88.5266C42.8774 88.6853 42.6208 88.8953 42.3968 89.1566C42.1821 89.4086 41.9954 89.6746 41.8368 89.9546L40.8848 89.3106C41.3048 88.6386 41.7808 88.1113 42.3128 87.7286C42.8448 87.3366 43.4561 87.1406 44.1468 87.1406C44.6788 87.1406 45.1641 87.2433 45.6028 87.4486C46.0508 87.6446 46.4754 87.864 46.8768 88.1066C47.2874 88.3586 47.6888 88.5873 48.0808 88.7926C48.4821 88.9886 48.8974 89.0866 49.3268 89.0866C49.6908 89.0866 50.0174 89.0073 50.3068 88.8486C50.5961 88.6806 50.8528 88.466 51.0768 88.2046C51.3008 87.9433 51.4874 87.6773 51.6368 87.4066L52.5888 88.0506C52.1688 88.7226 51.6928 89.2546 51.1608 89.6466C50.6288 90.0293 50.0174 90.2206 49.3268 90.2206Z" fill="white"/>
<path d="M36.2225 94.1542C35.1585 94.1542 34.4212 93.7389 34.0105 92.9082C33.5999 92.0776 33.3945 90.8082 33.3945 89.1002C33.3945 87.3922 33.5999 86.1229 34.0105 85.2922C34.4212 84.4522 35.1585 84.0322 36.2225 84.0322C37.2772 84.0322 38.0099 84.4522 38.4205 85.2922C38.8312 86.1229 39.0365 87.3922 39.0365 89.1002C39.0365 90.8082 38.8312 92.0776 38.4205 92.9082C38.0099 93.7389 37.2772 94.1542 36.2225 94.1542ZM36.2225 92.9922C36.6145 92.9922 36.9272 92.8756 37.1605 92.6422C37.4032 92.3996 37.5759 91.9936 37.6785 91.4242C37.7905 90.8549 37.8465 90.0802 37.8465 89.1002C37.8465 88.1109 37.7905 87.3316 37.6785 86.7622C37.5759 86.1929 37.4032 85.7916 37.1605 85.5582C36.9272 85.3156 36.6145 85.1942 36.2225 85.1942C35.8399 85.1942 35.5272 85.3156 35.2845 85.5582C35.0419 85.7916 34.8645 86.1929 34.7525 86.7622C34.6405 87.3316 34.5845 88.1109 34.5845 89.1002C34.5845 90.0802 34.6405 90.8549 34.7525 91.4242C34.8645 91.9936 35.0419 92.3996 35.2845 92.6422C35.5272 92.8756 35.8399 92.9922 36.2225 92.9922Z" fill="white"/>
<path d="M29.1815 94.1542C28.1175 94.1542 27.3802 93.7389 26.9695 92.9082C26.5588 92.0776 26.3535 90.8082 26.3535 89.1002C26.3535 87.3922 26.5588 86.1229 26.9695 85.2922C27.3802 84.4522 28.1175 84.0322 29.1815 84.0322C30.2362 84.0322 30.9688 84.4522 31.3795 85.2922C31.7902 86.1229 31.9955 87.3922 31.9955 89.1002C31.9955 90.8082 31.7902 92.0776 31.3795 92.9082C30.9688 93.7389 30.2362 94.1542 29.1815 94.1542ZM29.1815 92.9922C29.5735 92.9922 29.8862 92.8756 30.1195 92.6422C30.3622 92.3996 30.5348 91.9936 30.6375 91.4242C30.7495 90.8549 30.8055 90.0802 30.8055 89.1002C30.8055 88.1109 30.7495 87.3316 30.6375 86.7622C30.5348 86.1929 30.3622 85.7916 30.1195 85.5582C29.8862 85.3156 29.5735 85.1942 29.1815 85.1942C28.7988 85.1942 28.4862 85.3156 28.2435 85.5582C28.0008 85.7916 27.8235 86.1929 27.7115 86.7622C27.5995 87.3316 27.5435 88.1109 27.5435 89.1002C27.5435 90.0802 27.5995 90.8549 27.7115 91.4242C27.8235 91.9936 28.0008 92.3996 28.2435 92.6422C28.4862 92.8756 28.7988 92.9922 29.1815 92.9922Z" fill="white"/>
<path d="M23.9048 88.9743C23.6435 88.9743 23.4195 88.8856 23.2328 88.7083C23.0555 88.5216 22.9668 88.2976 22.9668 88.0363C22.9668 87.775 23.0555 87.5556 23.2328 87.3783C23.4195 87.201 23.6435 87.1123 23.9048 87.1123C24.1568 87.1123 24.3715 87.201 24.5488 87.3783C24.7355 87.5556 24.8288 87.775 24.8288 88.0363C24.8288 88.2976 24.7355 88.5216 24.5488 88.7083C24.3715 88.8856 24.1568 88.9743 23.9048 88.9743ZM23.9048 94.1543C23.6435 94.1543 23.4195 94.0656 23.2328 93.8883C23.0555 93.7016 22.9668 93.4823 22.9668 93.2303C22.9668 92.969 23.0555 92.7496 23.2328 92.5723C23.4195 92.3856 23.6435 92.2923 23.9048 92.2923C24.1568 92.2923 24.3715 92.3856 24.5488 92.5723C24.7355 92.7496 24.8288 92.969 24.8288 93.2303C24.8288 93.4823 24.7355 93.7016 24.5488 93.8883C24.3715 94.0656 24.1568 94.1543 23.9048 94.1543Z" fill="white"/>
<path d="M18.6721 94.0842C18.1121 94.0842 17.5801 93.9442 17.0761 93.6642C16.5814 93.3842 16.1941 93.0062 15.9141 92.5302L16.9221 91.8862C17.1367 92.2129 17.3887 92.4695 17.6781 92.6562C17.9674 92.8429 18.2987 92.9362 18.6721 92.9362C19.2694 92.9362 19.7221 92.7635 20.0301 92.4182C20.3474 92.0635 20.5061 91.5689 20.5061 90.9342C20.5061 90.3182 20.3661 89.8422 20.0861 89.5062C19.8154 89.1702 19.4374 89.0022 18.9521 89.0022C18.6627 89.0022 18.3921 89.0722 18.1401 89.2122C17.8974 89.3522 17.7247 89.5435 17.6221 89.7862H16.5161V84.2002H21.3461V85.3062H17.7201V88.3722C18.0841 88.0549 18.4994 87.8962 18.9661 87.8962C19.4887 87.8962 19.9554 88.0129 20.3661 88.2462C20.7767 88.4795 21.0987 88.8249 21.3321 89.2822C21.5747 89.7302 21.6961 90.2809 21.6961 90.9342C21.6961 91.9515 21.4161 92.7309 20.8561 93.2722C20.3054 93.8135 19.5774 94.0842 18.6721 94.0842Z" fill="white"/>
<path d="M12.562 93.9999V85.7259L10.714 86.9019L10.084 85.8939L12.842 84.1719H13.752V93.9999H12.562Z" fill="white"/>
<path d="M121 88C121 91.866 117.866 95 114 95C110.134 95 107 91.866 107 88C107 84.134 110.134 81 114 81C117.866 81 121 84.134 121 88Z" fill="white"/>
<path d="M155 88C155 91.866 151.866 95 148 95C144.134 95 141 91.866 141 88C141 84.134 144.134 81 148 81C151.866 81 155 84.134 155 88Z" fill="white"/>
<path d="M257 88C257 91.866 253.866 95 250 95C246.134 95 243 91.866 243 88C243 84.134 246.134 81 250 81C253.866 81 257 84.134 257 88Z" fill="white"/>
<path d="M223 88C223 91.866 219.866 95 216 95C212.134 95 209 91.866 209 88C209 84.134 212.134 81 216 81C219.866 81 223 84.134 223 88Z" fill="white"/>
<path fill-rule="evenodd" clip-rule="evenodd" d="M186 88H178V87H186V88Z" fill="white"/>
<path fill-rule="evenodd" clip-rule="evenodd" d="M288 88H280V87H288V88Z" fill="white"/>
<path fill-rule="evenodd" clip-rule="evenodd" d="M322 88H314V87H322V88Z" fill="white"/>
<path d="M74.6952 58.1542C73.6312 58.1542 72.8939 57.7389 72.4832 56.9082C72.0725 56.0776 71.8672 54.8082 71.8672 53.1002C71.8672 51.3922 72.0725 50.1229 72.4832 49.2922C72.8939 48.4522 73.6312 48.0322 74.6952 48.0322C75.7499 48.0322 76.4825 48.4522 76.8932 49.2922C77.3039 50.1229 77.5092 51.3922 77.5092 53.1002C77.5092 54.8082 77.3039 56.0776 76.8932 56.9082C76.4825 57.7389 75.7499 58.1542 74.6952 58.1542ZM74.6952 56.9922C75.0872 56.9922 75.3999 56.8756 75.6332 56.6422C75.8759 56.3996 76.0485 55.9936 76.1512 55.4242C76.2632 54.8549 76.3192 54.0802 76.3192 53.1002C76.3192 52.1109 76.2632 51.3316 76.1512 50.7622C76.0485 50.1929 75.8759 49.7916 75.6332 49.5582C75.3999 49.3156 75.0872 49.1942 74.6952 49.1942C74.3125 49.1942 73.9999 49.3156 73.7572 49.5582C73.5145 49.7916 73.3372 50.1929 73.2252 50.7622C73.1132 51.3316 73.0572 52.1109 73.0572 53.1002C73.0572 54.0802 73.1132 54.8549 73.2252 55.4242C73.3372 55.9936 73.5145 56.3996 73.7572 56.6422C73.9999 56.8756 74.3125 56.9922 74.6952 56.9922Z" fill="white"/>
<path d="M67.6542 58.1542C66.5902 58.1542 65.8528 57.7389 65.4422 56.9082C65.0315 56.0776 64.8262 54.8082 64.8262 53.1002C64.8262 51.3922 65.0315 50.1229 65.4422 49.2922C65.8528 48.4522 66.5902 48.0322 67.6542 48.0322C68.7088 48.0322 69.4415 48.4522 69.8522 49.2922C70.2628 50.1229 70.4682 51.3922 70.4682 53.1002C70.4682 54.8082 70.2628 56.0776 69.8522 56.9082C69.4415 57.7389 68.7088 58.1542 67.6542 58.1542ZM67.6542 56.9922C68.0462 56.9922 68.3588 56.8756 68.5922 56.6422C68.8348 56.3996 69.0075 55.9936 69.1102 55.4242C69.2222 54.8549 69.2782 54.0802 69.2782 53.1002C69.2782 52.1109 69.2222 51.3316 69.1102 50.7622C69.0075 50.1929 68.8348 49.7916 68.5922 49.5582C68.3588 49.3156 68.0462 49.1942 67.6542 49.1942C67.2715 49.1942 66.9588 49.3156 66.7162 49.5582C66.4735 49.7916 66.2962 50.1929 66.1842 50.7622C66.0722 51.3316 66.0162 52.1109 66.0162 53.1002C66.0162 54.0802 66.0722 54.8549 66.1842 55.4242C66.2962 55.9936 66.4735 56.3996 66.7162 56.6422C66.9588 56.8756 67.2715 56.9922 67.6542 56.9922Z" fill="white"/>
<path d="M62.3775 52.9743C62.1161 52.9743 61.8921 52.8856 61.7055 52.7083C61.5281 52.5216 61.4395 52.2976 61.4395 52.0363C61.4395 51.775 61.5281 51.5556 61.7055 51.3783C61.8921 51.201 62.1161 51.1123 62.3775 51.1123C62.6295 51.1123 62.8441 51.201 63.0215 51.3783C63.2081 51.5556 63.3015 51.775 63.3015 52.0363C63.3015 52.2976 63.2081 52.5216 63.0215 52.7083C62.8441 52.8856 62.6295 52.9743 62.3775 52.9743ZM62.3775 58.1543C62.1161 58.1543 61.8921 58.0656 61.7055 57.8883C61.5281 57.7016 61.4395 57.4823 61.4395 57.2303C61.4395 56.969 61.5281 56.7496 61.7055 56.5723C61.8921 56.3856 62.1161 56.2923 62.3775 56.2923C62.6295 56.2923 62.8441 56.3856 63.0215 56.5723C63.2081 56.7496 63.3015 56.969 63.3015 57.2303C63.3015 57.4823 63.2081 57.7016 63.0215 57.8883C62.8441 58.0656 62.6295 58.1543 62.3775 58.1543Z" fill="white"/>
<path d="M56.8976 58.1539C56.235 58.1539 55.6656 57.9719 55.1896 57.6079C54.7136 57.2346 54.3776 56.7212 54.1816 56.0679L55.2876 55.6899C55.3436 55.8859 55.437 56.0866 55.5676 56.2919C55.6983 56.4879 55.871 56.6559 56.0856 56.7959C56.3003 56.9359 56.5616 57.0059 56.8696 57.0059C57.4296 57.0059 57.8683 56.8659 58.1856 56.5859C58.503 56.2966 58.6616 55.8486 58.6616 55.2419C58.6616 54.6912 58.489 54.2479 58.1436 53.9119C57.8076 53.5759 57.355 53.4079 56.7856 53.4079H56.2116V52.3019H56.7856C57.3176 52.3019 57.719 52.1479 57.9896 51.8399C58.2696 51.5319 58.4096 51.1399 58.4096 50.6639C58.4096 50.1319 58.251 49.7539 57.9336 49.5299C57.6256 49.3059 57.271 49.1939 56.8696 49.1939C56.599 49.1939 56.3656 49.2639 56.1696 49.4039C55.9736 49.5439 55.8103 49.7166 55.6796 49.9219C55.549 50.1179 55.451 50.3092 55.3856 50.4959L54.2936 50.0619C54.5363 49.4086 54.891 48.9092 55.3576 48.5639C55.8243 48.2186 56.3376 48.0459 56.8976 48.0459C57.719 48.0459 58.3816 48.2792 58.8856 48.7459C59.399 49.2032 59.6556 49.8286 59.6556 50.6219C59.6556 51.1259 59.525 51.5739 59.2636 51.9659C59.0023 52.3579 58.657 52.6472 58.2276 52.8339C58.7223 53.0112 59.1236 53.3192 59.4316 53.7579C59.7396 54.1966 59.8936 54.7052 59.8936 55.2839C59.8936 56.1332 59.637 56.8239 59.1236 57.3559C58.6196 57.8879 57.8776 58.1539 56.8976 58.1539Z" fill="white"/>
<path d="M50.8296 57.9999V49.7259L48.9816 50.9019L48.3516 49.8939L51.1096 48.1719H52.0196V57.9999H50.8296Z" fill="white"/>
<path d="M43.8561 54.2206C43.2961 54.2206 42.7921 54.1226 42.3441 53.9266C41.9054 53.7213 41.4901 53.4973 41.0981 53.2546C40.6967 53.012 40.3001 52.788 39.9081 52.5826C39.5254 52.3773 39.1147 52.2746 38.6761 52.2746C38.3214 52.2746 37.9947 52.3586 37.6961 52.5266C37.4067 52.6853 37.1501 52.8953 36.9261 53.1566C36.7114 53.4086 36.5247 53.6746 36.3661 53.9546L35.4141 53.3106C35.8341 52.6386 36.3101 52.1113 36.8421 51.7286C37.3741 51.3366 37.9854 51.1406 38.6761 51.1406C39.2081 51.1406 39.6934 51.2433 40.1321 51.4486C40.5801 51.6446 41.0047 51.864 41.4061 52.1066C41.8167 52.3586 42.2181 52.5873 42.6101 52.7926C43.0114 52.9886 43.4267 53.0866 43.8561 53.0866C44.2201 53.0866 44.5467 53.0073 44.8361 52.8486C45.1254 52.6806 45.3821 52.466 45.6061 52.2046C45.8301 51.9433 46.0167 51.6773 46.1661 51.4066L47.1181 52.0506C46.6981 52.7226 46.2221 53.2546 45.6901 53.6466C45.1581 54.0293 44.5467 54.2206 43.8561 54.2206Z" fill="white"/>
<path d="M30.7538 58.1542C29.6898 58.1542 28.9524 57.7389 28.5418 56.9082C28.1311 56.0776 27.9258 54.8082 27.9258 53.1002C27.9258 51.3922 28.1311 50.1229 28.5418 49.2922C28.9524 48.4522 29.6898 48.0322 30.7538 48.0322C31.8084 48.0322 32.5411 48.4522 32.9518 49.2922C33.3624 50.1229 33.5678 51.3922 33.5678 53.1002C33.5678 54.8082 33.3624 56.0776 32.9518 56.9082C32.5411 57.7389 31.8084 58.1542 30.7538 58.1542ZM30.7538 56.9922C31.1458 56.9922 31.4584 56.8756 31.6918 56.6422C31.9344 56.3996 32.1071 55.9936 32.2098 55.4242C32.3218 54.8549 32.3778 54.0802 32.3778 53.1002C32.3778 52.1109 32.3218 51.3316 32.2098 50.7622C32.1071 50.1929 31.9344 49.7916 31.6918 49.5582C31.4584 49.3156 31.1458 49.1942 30.7538 49.1942C30.3711 49.1942 30.0584 49.3156 29.8158 49.5582C29.5731 49.7916 29.3958 50.1929 29.2838 50.7622C29.1718 51.3316 29.1158 52.1109 29.1158 53.1002C29.1158 54.0802 29.1718 54.8549 29.2838 55.4242C29.3958 55.9936 29.5731 56.3996 29.8158 56.6422C30.0584 56.8756 30.3711 56.9922 30.7538 56.9922Z" fill="white"/>
<path d="M23.7128 58.1542C22.6488 58.1542 21.9114 57.7389 21.5008 56.9082C21.0901 56.0776 20.8848 54.8082 20.8848 53.1002C20.8848 51.3922 21.0901 50.1229 21.5008 49.2922C21.9114 48.4522 22.6488 48.0322 23.7128 48.0322C24.7674 48.0322 25.5001 48.4522 25.9108 49.2922C26.3214 50.1229 26.5268 51.3922 26.5268 53.1002C26.5268 54.8082 26.3214 56.0776 25.9108 56.9082C25.5001 57.7389 24.7674 58.1542 23.7128 58.1542ZM23.7128 56.9922C24.1048 56.9922 24.4174 56.8756 24.6508 56.6422C24.8934 56.3996 25.0661 55.9936 25.1688 55.4242C25.2808 54.8549 25.3368 54.0802 25.3368 53.1002C25.3368 52.1109 25.2808 51.3316 25.1688 50.7622C25.0661 50.1929 24.8934 49.7916 24.6508 49.5582C24.4174 49.3156 24.1048 49.1942 23.7128 49.1942C23.3301 49.1942 23.0174 49.3156 22.7748 49.5582C22.5321 49.7916 22.3548 50.1929 22.2428 50.7622C22.1308 51.3316 22.0748 52.1109 22.0748 53.1002C22.0748 54.0802 22.1308 54.8549 22.2428 55.4242C22.3548 55.9936 22.5321 56.3996 22.7748 56.6422C23.0174 56.8756 23.3301 56.9922 23.7128 56.9922Z" fill="white"/>
<path d="M18.436 52.9743C18.1747 52.9743 17.9507 52.8856 17.764 52.7083C17.5867 52.5216 17.498 52.2976 17.498 52.0363C17.498 51.775 17.5867 51.5556 17.764 51.3783C17.9507 51.201 18.1747 51.1123 18.436 51.1123C18.688 51.1123 18.9027 51.201 19.08 51.3783C19.2667 51.5556 19.36 51.775 19.36 52.0363C19.36 52.2976 19.2667 52.5216 19.08 52.7083C18.9027 52.8856 18.688 52.9743 18.436 52.9743ZM18.436 58.1543C18.1747 58.1543 17.9507 58.0656 17.764 57.8883C17.5867 57.7016 17.498 57.4823 17.498 57.2303C17.498 56.969 17.5867 56.7496 17.764 56.5723C17.9507 56.3856 18.1747 56.2923 18.436 56.2923C18.688 56.2923 18.9027 56.3856 19.08 56.5723C19.2667 56.7496 19.36 56.969 19.36 57.2303C19.36 57.4823 19.2667 57.7016 19.08 57.8883C18.9027 58.0656 18.688 58.1543 18.436 58.1543Z" fill="white"/>
<path d="M12.7293 58.1542C12.2439 58.1542 11.7959 58.0329 11.3853 57.7902C10.9746 57.5382 10.6339 57.2209 10.3633 56.8382L11.2593 56.1522C11.4459 56.4136 11.6559 56.6282 11.8893 56.7962C12.1319 56.9549 12.4119 57.0342 12.7293 57.0342C13.2519 57.0342 13.6626 56.8616 13.9613 56.5162C14.2693 56.1616 14.4839 55.6809 14.6053 55.0742C14.7359 54.4582 14.8013 53.7536 14.8013 52.9602C14.6333 53.2682 14.3859 53.5109 14.0593 53.6882C13.7419 53.8562 13.3966 53.9402 13.0233 53.9402C12.5286 53.9402 12.0806 53.8282 11.6793 53.6042C11.2779 53.3709 10.9559 53.0396 10.7133 52.6102C10.4799 52.1809 10.3633 51.6676 10.3633 51.0702C10.3633 50.4822 10.4753 49.9596 10.6993 49.5022C10.9233 49.0449 11.2359 48.6856 11.6373 48.4242C12.0386 48.1629 12.5053 48.0322 13.0373 48.0322C13.4479 48.0322 13.8353 48.1069 14.1993 48.2562C14.5633 48.4056 14.8806 48.6622 15.1513 49.0262C15.4219 49.3902 15.6319 49.8896 15.7813 50.5242C15.9306 51.1496 15.9959 51.9429 15.9773 52.9042C15.9399 54.7242 15.6459 56.0542 15.0953 56.8942C14.5446 57.7342 13.7559 58.1542 12.7293 58.1542ZM13.0513 52.8622C13.5366 52.8622 13.9333 52.6849 14.2413 52.3302C14.5493 51.9662 14.6799 51.5136 14.6333 50.9722C14.5866 50.3936 14.4279 49.9549 14.1573 49.6562C13.8959 49.3482 13.5459 49.1942 13.1073 49.1942C12.6219 49.1942 12.2439 49.3762 11.9733 49.7402C11.7119 50.1042 11.5813 50.5476 11.5813 51.0702C11.5813 51.6022 11.7166 52.0362 11.9873 52.3722C12.2579 52.6989 12.6126 52.8622 13.0513 52.8622Z" fill="white"/>
<path d="M121 52C121 55.866 117.866 59 114 59C110.134 59 107 55.866 107 52C107 48.134 110.134 45 114 45C117.866 45 121 48.134 121 52Z" fill="white"/>
<path d="M155 52C155 55.866 151.866 59 148 59C144.134 59 141 55.866 141 52C141 48.134 144.134 45 148 45C151.866 45 155 48.134 155 52Z" fill="white"/>
<path d="M223 52C223 55.866 219.866 59 216 59C212.134 59 209 55.866 209 52C209 48.134 212.134 45 216 45C219.866 45 223 48.134 223 52Z" fill="white"/>
<path d="M257 52C257 55.866 253.866 59 250 59C246.134 59 243 55.866 243 52C243 48.134 246.134 45 250 45C253.866 45 257 48.134 257 52Z" fill="white"/>
<path d="M325 52C325 55.866 321.866 59 318 59C314.134 59 311 55.866 311 52C311 48.134 314.134 45 318 45C321.866 45 325 48.134 325 52Z" fill="white"/>
<path fill-rule="evenodd" clip-rule="evenodd" d="M186 52H178V51H186V52Z" fill="white"/>
<path d="M283.5 45L290.861 57.75H276.139L283.5 45Z" fill="white"/>
<path fill-rule="evenodd" clip-rule="evenodd" d="M335 26H0V25H335V26Z" fill="white"/>
<path d="M62.3178 12.9648C62.2991 12.7875 62.2618 12.5728 62.2058 12.3208C62.1498 12.0688 62.0938 11.8775 62.0378 11.7468H63.0458C63.2418 11.7468 63.3771 11.7142 63.4518 11.6488C63.5358 11.5742 63.5778 11.4528 63.5778 11.2848V5.30684H59.6158V0.714844H64.8378V11.6908C64.8378 12.1202 64.7211 12.4375 64.4878 12.6428C64.2638 12.8575 63.8951 12.9648 63.3818 12.9648H62.3178ZM53.1758 12.9928V0.714844H58.3838V5.30684H54.4218V12.9928H53.1758ZM56.4518 11.5088V6.34284H61.5338V11.5088H56.4518ZM57.6278 10.5288H60.3718V9.36684H57.6278V10.5288ZM57.6278 8.47084H60.3718V7.32284H57.6278V8.47084ZM54.4218 4.34084H57.1658V3.43084H54.4218V4.34084ZM60.8338 4.34084H63.5778V3.43084H60.8338V4.34084ZM54.4218 2.56284H57.1658V1.68084H54.4218V2.56284ZM60.8338 2.56284H63.5778V1.68084H60.8338V2.56284Z" fill="white"/>
<path d="M46.9585 13.0629C46.9398 12.8763 46.8978 12.6569 46.8325 12.4049C46.7765 12.1529 46.7205 11.9523 46.6645 11.8029H47.7005C47.8965 11.8029 48.0365 11.7703 48.1205 11.7049C48.2045 11.6396 48.2465 11.5136 48.2465 11.3269V8.44292H43.6125V7.30892H48.2465V5.83892H43.3045V4.69092H46.5105V3.22092H43.7385V2.05892H46.5105V0.294922H47.8405V2.05892H50.7665V3.22092H47.8405V4.69092H51.3685V5.83892H49.5485V7.30892H51.1305V8.44292H49.5485V11.7329C49.5485 12.1623 49.4225 12.4889 49.1705 12.7129C48.9185 12.9463 48.5312 13.0629 48.0085 13.0629H46.9585ZM39.0625 10.6409V1.45692H42.9685V10.6409H39.0625ZM40.2525 9.49292H41.7785V6.58092H40.2525V9.49292ZM40.2525 5.43292H41.7785V2.60492H40.2525V5.43292ZM46.1185 11.2009C45.9598 10.9863 45.7638 10.7623 45.5305 10.5289C45.2972 10.2863 45.0592 10.0576 44.8165 9.84292C44.5738 9.62826 44.3545 9.45559 44.1585 9.32492L44.9285 8.47092C45.1525 8.62959 45.3952 8.81626 45.6565 9.03092C45.9178 9.24559 46.1652 9.46026 46.3985 9.67492C46.6412 9.88959 46.8372 10.0903 46.9865 10.2769C46.9212 10.3329 46.8232 10.4263 46.6925 10.5569C46.5712 10.6876 46.4545 10.8136 46.3425 10.9349C46.2305 11.0563 46.1558 11.1449 46.1185 11.2009Z" fill="white"/>
<path d="M30.7896 13.0632C30.7803 12.9046 30.7476 12.7133 30.6916 12.4893C30.6449 12.2746 30.5936 12.1019 30.5376 11.9713H31.3916C31.5783 11.9713 31.7089 11.9433 31.7836 11.8873C31.8676 11.8219 31.9096 11.7006 31.9096 11.5233V10.0253H29.5996V7.37925C29.4036 7.52858 29.1983 7.67792 28.9836 7.82725C28.7689 7.96725 28.5496 8.10725 28.3256 8.24725C28.2603 8.14458 28.1623 8.01858 28.0316 7.86925C27.9009 7.71992 27.7796 7.59858 27.6676 7.50525C27.5743 8.60658 27.3596 9.60058 27.0236 10.4873C26.6969 11.3739 26.2396 12.1533 25.6516 12.8253C25.5489 12.7319 25.3949 12.6153 25.1896 12.4753C24.9843 12.3446 24.8116 12.2559 24.6716 12.2092C25.2129 11.6306 25.6236 10.9679 25.9036 10.2213C26.1929 9.47458 26.3843 8.62992 26.4776 7.68725C26.2163 7.83658 25.9223 7.99058 25.5956 8.14925C25.2689 8.30792 24.9843 8.43858 24.7416 8.54125L24.3496 7.35125C24.5456 7.27658 24.7789 7.18792 25.0496 7.08525C25.3203 6.97325 25.5909 6.86125 25.8616 6.74925C26.1416 6.62792 26.3703 6.52058 26.5476 6.42725V1.48525H31.0836V0.28125H32.3576V1.48525H37.0616V2.53525H27.7236V6.03525C27.7236 6.26858 27.7189 6.50658 27.7096 6.74925C27.7003 6.98258 27.6863 7.21125 27.6676 7.43525C28.3023 7.08058 28.8623 6.68392 29.3476 6.24525C29.1703 6.08658 28.9929 5.93725 28.8156 5.79725C28.6383 5.64792 28.4609 5.51258 28.2836 5.39125L28.9416 4.71925C29.1003 4.83125 29.2776 4.96658 29.4736 5.12525C29.6696 5.27458 29.8516 5.42392 30.0196 5.57325C30.1689 5.41458 30.3043 5.24658 30.4256 5.06925C30.5563 4.89192 30.6776 4.71458 30.7896 4.53725H28.0036V3.57125H31.2796C31.3543 3.41258 31.4149 3.24925 31.4616 3.08125C31.5176 2.91325 31.5643 2.74058 31.6016 2.56325L32.7076 2.74525C32.6703 2.88525 32.6283 3.02525 32.5816 3.16525C32.5349 3.30525 32.4883 3.44058 32.4416 3.57125H37.0196V4.53725H33.7996C33.9583 4.74258 34.1263 4.93858 34.3036 5.12525C34.4809 5.30258 34.6676 5.47525 34.8636 5.64325C35.1996 5.33525 35.5169 4.99458 35.8156 4.62125L36.6416 5.20925C36.5016 5.35858 36.3429 5.52192 36.1656 5.69925C35.9883 5.87658 35.8063 6.04458 35.6196 6.20325C36.2543 6.63258 36.9263 6.97792 37.6356 7.23925C37.5329 7.31392 37.4116 7.45392 37.2716 7.65925C37.1409 7.86458 37.0383 8.03258 36.9636 8.16325C36.6743 8.03258 36.3896 7.89258 36.1096 7.74325C35.8296 7.59392 35.5589 7.43058 35.2976 7.25325V10.0253H33.0436V11.8593C33.0436 12.6619 32.5816 13.0632 31.6576 13.0632H30.7896ZM36.5856 12.8253C36.1003 12.6106 35.6103 12.3306 35.1156 11.9853C34.6209 11.6306 34.1963 11.2853 33.8416 10.9493L34.6116 10.2213C34.9476 10.5386 35.3629 10.8513 35.8576 11.1593C36.3523 11.4579 36.8189 11.6959 37.2576 11.8733C37.1456 11.9666 37.0149 12.1206 36.8656 12.3353C36.7256 12.5499 36.6323 12.7133 36.5856 12.8253ZM28.2976 12.8253C28.2696 12.7506 28.2136 12.6479 28.1296 12.5173C28.0549 12.3959 27.9709 12.2699 27.8776 12.1392C27.7843 12.0179 27.7003 11.9293 27.6256 11.8733C28.0736 11.6866 28.5403 11.4486 29.0256 11.1593C29.5109 10.8699 29.9263 10.5573 30.2716 10.2213L31.0416 10.9493C30.6683 11.3133 30.2389 11.6633 29.7536 11.9993C29.2776 12.3259 28.7923 12.6013 28.2976 12.8253ZM25.4976 5.79725C25.4229 5.60125 25.3156 5.36792 25.1756 5.09725C25.0449 4.81725 24.9049 4.54192 24.7556 4.27125C24.6156 3.99125 24.4803 3.75792 24.3496 3.57125L25.3016 3.06725C25.4136 3.23525 25.5443 3.44992 25.6936 3.71125C25.8429 3.97258 25.9876 4.24325 26.1276 4.52325C26.2769 4.80325 26.3983 5.05525 26.4916 5.27925C26.4169 5.30725 26.3143 5.35858 26.1836 5.43325C26.0529 5.49858 25.9223 5.56392 25.7916 5.62925C25.6703 5.69458 25.5723 5.75058 25.4976 5.79725ZM30.9576 6.10525H33.8696C33.3936 5.64792 32.9689 5.12525 32.5956 4.53725H32.0216C31.8723 4.82658 31.7089 5.10192 31.5316 5.36325C31.3543 5.61525 31.1629 5.86258 30.9576 6.10525ZM30.8036 9.12925H34.0936V8.41525H30.8036V9.12925ZM30.8036 7.64525H34.0936V6.97325H30.8036V7.64525Z" fill="white"/>
<path d="M11.1753 12.6996V8.76557H15.0533V12.6996H11.1753ZM15.9913 5.53157C15.9446 5.4569 15.8653 5.36824 15.7533 5.26557C15.6506 5.1629 15.5386 5.06024 15.4173 4.95757C15.3053 4.8549 15.2073 4.77557 15.1233 4.71957C15.5059 4.4769 15.8792 4.17824 16.2432 3.82357C16.6072 3.4689 16.9479 3.0909 17.2653 2.68957C17.5919 2.2789 17.8813 1.86824 18.1333 1.45757C18.3946 1.0469 18.6046 0.664237 18.7633 0.30957L19.8833 0.50557C20.1446 1.0189 20.4806 1.53224 20.8913 2.04557C21.3019 2.54957 21.7546 3.01624 22.2493 3.44557C22.7439 3.8749 23.2526 4.22957 23.7752 4.50957C23.7006 4.56557 23.6073 4.65424 23.4953 4.77557C23.3926 4.8969 23.2899 5.0229 23.1873 5.15357C23.0939 5.28424 23.0239 5.39157 22.9773 5.47557C22.5293 5.21424 22.0719 4.8829 21.6053 4.48157C21.1386 4.0709 20.7046 3.6229 20.3033 3.13757C19.9019 2.6429 19.5612 2.14357 19.2812 1.63957C19.0573 2.0969 18.7726 2.56357 18.4273 3.03957C18.0913 3.50624 17.7133 3.95424 17.2933 4.38357C16.8826 4.8129 16.4486 5.19557 15.9913 5.53157ZM16.2293 13.0356C16.1733 12.9049 16.0799 12.7276 15.9493 12.5036C15.8279 12.2889 15.7159 12.1256 15.6133 12.0136C16.4906 11.7709 17.3539 11.4349 18.2033 11.0056C19.0619 10.5669 19.8506 10.0676 20.5693 9.50757C21.2973 8.94757 21.9039 8.36424 22.3892 7.75757L23.2713 8.47157C22.7393 9.16224 22.0999 9.80624 21.3533 10.4036C20.6066 11.0009 19.7946 11.5236 18.9172 11.9716C18.0492 12.4196 17.1533 12.7742 16.2293 13.0356ZM16.8173 10.2916C16.7519 10.1796 16.6446 10.0162 16.4953 9.80157C16.3459 9.5869 16.2106 9.4329 16.0893 9.33957C16.6866 9.1249 17.2886 8.83557 17.8952 8.47157C18.5113 8.10757 19.0853 7.70624 19.6173 7.26757C20.1586 6.8289 20.6066 6.3949 20.9613 5.96557L21.8433 6.69357C21.4699 7.1509 21.0079 7.60824 20.4573 8.06557C19.9159 8.51357 19.3326 8.93357 18.7073 9.32557C18.0819 9.70824 17.4519 10.0302 16.8173 10.2916ZM16.3273 8.06557C16.2619 7.9629 16.1453 7.81357 15.9773 7.61757C15.8186 7.42157 15.6879 7.28157 15.5853 7.19757C16.3879 6.8429 17.1393 6.39024 17.8393 5.83957C18.5486 5.2889 19.1459 4.7149 19.6313 4.11757L20.4713 4.83157C19.9673 5.4569 19.3653 6.0449 18.6653 6.59557C17.9653 7.14624 17.1859 7.63624 16.3273 8.06557ZM10.5312 3.89357V2.87157H15.5992V3.89357H10.5312ZM11.2032 1.93357V0.883571H14.9693V1.93357H11.2032ZM11.2032 7.81357V6.79157H14.9693V7.81357H11.2032ZM11.2032 5.85357V4.83157H14.9693V5.85357H11.2032ZM12.2952 11.6636H13.9193V9.78757H12.2952V11.6636Z" fill="white"/>
<path d="M108.918 13.0632C108.815 12.9325 108.661 12.7785 108.456 12.6012C108.26 12.4238 108.078 12.2932 107.91 12.2092C108.741 11.6305 109.361 10.9072 109.772 10.0392C110.183 9.17116 110.388 8.07449 110.388 6.74916V0.785156H117.99V11.5932C117.99 12.4985 117.458 12.9512 116.394 12.9512H115.26C115.241 12.7645 115.199 12.5312 115.134 12.2512C115.078 11.9805 115.017 11.7705 114.952 11.6212H116.1C116.305 11.6212 116.45 11.5885 116.534 11.5232C116.618 11.4485 116.66 11.3132 116.66 11.1172V8.26116H111.606C111.475 9.35316 111.186 10.2818 110.738 11.0472C110.299 11.8125 109.693 12.4845 108.918 13.0632ZM111.69 7.07116H116.66V5.12516H111.704V6.73516C111.704 6.79116 111.699 6.84716 111.69 6.90316C111.69 6.95916 111.69 7.01516 111.69 7.07116ZM111.704 3.92116H116.66V2.00316H111.704V3.92116Z" fill="white"/>
<path d="M142.386 12.9372C142.32 12.7879 142.213 12.5919 142.064 12.3492C141.914 12.1159 141.788 11.9386 141.686 11.8172C143.59 11.1452 145.004 10.1699 145.928 8.89122C146.852 7.60322 147.314 6.08189 147.314 4.32722V0.449219H148.672V4.63522C148.69 5.59655 148.854 6.45989 149.162 7.22522C149.479 7.99055 149.904 8.66255 150.436 9.24122C150.977 9.81989 151.588 10.3146 152.27 10.7252C152.951 11.1359 153.665 11.4672 154.412 11.7192C154.337 11.7846 154.239 11.8966 154.118 12.0552C154.006 12.2139 153.903 12.3726 153.81 12.5312C153.716 12.6899 153.651 12.8112 153.614 12.8952C153.063 12.6899 152.503 12.4239 151.934 12.0972C151.364 11.7706 150.823 11.3832 150.31 10.9352C149.796 10.4872 149.344 9.97855 148.952 9.40922C148.56 8.83989 148.261 8.20989 148.056 7.51922C147.654 8.71389 146.968 9.78255 145.998 10.7252C145.027 11.6586 143.823 12.3959 142.386 12.9372ZM151.15 7.33722C151.075 7.27189 150.963 7.19255 150.814 7.09922C150.674 7.00589 150.529 6.91722 150.38 6.83322C150.24 6.73989 150.118 6.67455 150.016 6.63722C150.221 6.42255 150.445 6.14255 150.688 5.79722C150.94 5.45189 151.182 5.07855 151.416 4.67722C151.649 4.27589 151.859 3.89322 152.046 3.52922C152.232 3.15589 152.372 2.84322 152.466 2.59122L153.726 3.12322C153.604 3.42189 153.441 3.76255 153.236 4.14522C153.03 4.51855 152.806 4.90122 152.564 5.29322C152.33 5.68522 152.088 6.06322 151.836 6.42722C151.593 6.78189 151.364 7.08522 151.15 7.33722ZM143.702 7.72922C143.627 7.67322 143.51 7.60789 143.352 7.53322C143.193 7.45855 143.03 7.38855 142.862 7.32322C142.694 7.25789 142.558 7.21589 142.456 7.19722C142.624 6.94522 142.792 6.62789 142.96 6.24522C143.137 5.85322 143.3 5.44255 143.45 5.01322C143.608 4.58389 143.739 4.17322 143.842 3.78122C143.944 3.37989 144.01 3.04389 144.038 2.77322L145.354 3.06722C145.316 3.37522 145.237 3.73922 145.116 4.15922C144.994 4.56989 144.854 4.99922 144.696 5.44722C144.537 5.88589 144.369 6.30589 144.192 6.70722C144.024 7.10855 143.86 7.44922 143.702 7.72922Z" fill="white"/>
<path d="M180.025 13.0212C180.006 12.8439 179.973 12.6292 179.927 12.3772C179.88 12.1252 179.829 11.9152 179.773 11.7472H180.949C181.145 11.7472 181.285 11.7146 181.369 11.6492C181.453 11.5839 181.495 11.4579 181.495 11.2712V0.323242H182.727V2.98324C182.932 3.83258 183.249 4.66791 183.679 5.48924C184.033 5.20924 184.397 4.90124 184.771 4.56524C185.144 4.22924 185.503 3.89324 185.849 3.55724C186.203 3.21191 186.507 2.89458 186.759 2.60524L187.725 3.44524C187.445 3.74391 187.109 4.07524 186.717 4.43924C186.334 4.79391 185.928 5.14858 185.499 5.50324C185.079 5.85791 184.668 6.18458 184.267 6.48324C184.808 7.32324 185.438 8.09791 186.157 8.80724C186.875 9.50724 187.645 10.0999 188.467 10.5852C188.373 10.6506 188.266 10.7532 188.145 10.8932C188.023 11.0239 187.907 11.1592 187.795 11.2992C187.683 11.4392 187.594 11.5559 187.529 11.6492C186.567 11.0146 185.667 10.2026 184.827 9.21324C183.996 8.22391 183.296 7.13658 182.727 5.95124V11.6912C182.727 12.5779 182.213 13.0212 181.187 13.0212H180.025ZM176.399 11.7612C176.277 11.6212 176.128 11.4626 175.951 11.2852C175.783 11.1079 175.624 10.9726 175.475 10.8792C176.175 10.3939 176.795 9.82924 177.337 9.18524C177.878 8.53191 178.321 7.84124 178.667 7.11324C179.012 6.38524 179.231 5.67591 179.325 4.98524H176.049V3.80924H180.669C180.547 5.53591 180.109 7.07591 179.353 8.42924C178.597 9.77324 177.612 10.8839 176.399 11.7612Z" fill="white"/>
<path d="M215.369 12.9799V5.82589C214.968 6.52589 214.497 7.21656 213.955 7.89789C213.414 8.56989 212.84 9.19989 212.233 9.78789C211.636 10.3759 211.034 10.8939 210.427 11.3419C210.371 11.2579 210.283 11.1552 210.161 11.0339C210.04 10.9032 209.914 10.7819 209.783 10.6699C209.653 10.5486 209.541 10.4599 209.447 10.4039C209.942 10.0959 210.441 9.72256 210.945 9.28389C211.449 8.84522 211.939 8.36456 212.415 7.84189C212.901 7.31922 213.349 6.78256 213.759 6.23189C214.17 5.68122 214.52 5.14456 214.809 4.62189H209.993V3.43189H215.369V0.337891H216.643V3.43189H222.005V4.62189H217.175C217.567 5.28456 218.048 5.96589 218.617 6.66589C219.187 7.35656 219.812 8.02389 220.493 8.66789C221.184 9.31189 221.889 9.88122 222.607 10.3759C222.514 10.4319 222.397 10.5252 222.257 10.6559C222.127 10.7772 222.001 10.9079 221.879 11.0479C221.758 11.1786 221.669 11.2859 221.613 11.3699C220.979 10.8846 220.353 10.3432 219.737 9.74589C219.131 9.13922 218.561 8.50456 218.029 7.84189C217.507 7.16989 217.045 6.49789 216.643 5.82589V12.9799H215.369Z" fill="white"/>
<path d="M244.092 12.5736V11.4536H249.328V8.28959H245.03V7.12759H249.328V5.68559H246.822V4.53759H253.178V5.68559H250.686V7.12759H254.942V8.28959H250.686V11.4536H255.838V12.5736H244.092ZM243.924 6.11959C243.858 5.98893 243.756 5.81626 243.616 5.60159C243.485 5.37759 243.34 5.19093 243.182 5.04159C243.76 4.83626 244.362 4.55159 244.988 4.18759C245.613 3.81426 246.215 3.39893 246.794 2.94159C247.382 2.48426 247.909 2.01759 248.376 1.54159C248.842 1.06559 249.206 0.612927 249.468 0.183594L250.686 0.379593C251.031 0.87426 251.442 1.35026 251.918 1.80759C252.403 2.25559 252.921 2.67559 253.472 3.06759C254.032 3.45026 254.596 3.79093 255.166 4.08959C255.744 4.38826 256.29 4.63559 256.804 4.83159C256.71 4.92493 256.608 5.05093 256.496 5.20959C256.384 5.36826 256.276 5.52693 256.174 5.68559C256.08 5.83493 256.01 5.95626 255.964 6.04959C255.488 5.83493 254.974 5.57359 254.424 5.26559C253.882 4.94826 253.341 4.59359 252.8 4.20159C252.258 3.80959 251.745 3.38959 251.26 2.94159C250.784 2.49359 250.378 2.02693 250.042 1.54159C249.752 1.93359 249.37 2.34893 248.894 2.78759C248.427 3.21693 247.909 3.64626 247.34 4.07559C246.77 4.49559 246.192 4.88293 245.604 5.23759C245.016 5.59226 244.456 5.88626 243.924 6.11959ZM252.786 11.3696L251.722 10.8236C251.936 10.4969 252.16 10.1096 252.394 9.66159C252.636 9.21359 252.823 8.80759 252.954 8.44359L254.102 8.93359C254.008 9.15759 253.887 9.41893 253.738 9.71759C253.588 10.0069 253.43 10.2963 253.262 10.5856C253.094 10.8749 252.935 11.1363 252.786 11.3696ZM247.186 11.3696C247.102 11.1643 246.976 10.9216 246.808 10.6416C246.64 10.3523 246.462 10.0723 246.276 9.80159C246.089 9.52159 245.912 9.30226 245.744 9.14359L246.794 8.51359C247.064 8.83093 247.326 9.18093 247.578 9.56359C247.83 9.94626 248.058 10.3289 248.264 10.7116L247.186 11.3696Z" fill="white"/>
<path d="M277.643 12.3495V11.1315H283.327V5.86752H278.609V4.64952H283.327V0.561523H284.685V4.64952H289.445V5.86752H284.685V11.1315H290.397V12.3495H277.643Z" fill="white"/>
<path d="M313.771 12.0834V1.27539H322.227V12.0834H313.771ZM315.129 10.8514H320.869V7.16939H315.129V10.8514ZM315.129 5.97939H320.869V2.50739H315.129V5.97939Z" fill="white"/>
</svg>
