<svg width="343" height="130" viewBox="0 0 343 130" fill="none" xmlns="http://www.w3.org/2000/svg">
<path d="M327.888 129.188L327.396 128.708C328.132 127.988 328.7 127.196 329.1 126.332C329.508 125.46 329.712 124.496 329.712 123.44C329.712 122.384 329.508 121.424 329.1 120.56C328.7 119.688 328.132 118.892 327.396 118.172L327.888 117.692C328.664 118.412 329.285 119.26 329.749 120.236C330.213 121.204 330.444 122.272 330.444 123.44C330.444 124.608 330.213 125.68 329.749 126.656C329.285 127.624 328.664 128.468 327.888 129.188Z" fill="#6C5D47"/>
<path d="M319.657 128.72C319.569 128.568 319.445 128.404 319.285 128.228C319.125 128.052 318.973 127.912 318.829 127.808C319.901 127.352 320.733 126.676 321.325 125.78C321.925 124.884 322.225 123.812 322.225 122.564C322.225 121.996 322.157 121.552 322.021 121.232C321.885 120.904 321.705 120.676 321.481 120.548C321.257 120.412 321.009 120.356 320.737 120.38C320.433 120.404 320.141 120.588 319.861 120.932C319.581 121.268 319.369 121.74 319.225 122.348C319.089 122.948 319.069 123.66 319.165 124.484C319.093 124.484 318.985 124.5 318.841 124.532C318.697 124.556 318.561 124.584 318.433 124.616C318.305 124.64 318.213 124.664 318.157 124.688C318.117 124.4 318.081 124.04 318.049 123.608C318.017 123.176 317.993 122.716 317.977 122.228C317.969 121.732 317.965 121.24 317.965 120.752C317.965 120.256 317.973 119.796 317.989 119.372C318.005 118.948 318.029 118.6 318.061 118.328L319.189 118.436C319.141 118.644 319.097 118.916 319.057 119.252C319.025 119.588 319.001 119.948 318.985 120.332C318.969 120.716 318.957 121.084 318.949 121.436C319.117 120.86 319.381 120.38 319.741 119.996C320.101 119.604 320.501 119.4 320.941 119.384C321.389 119.36 321.797 119.46 322.165 119.684C322.533 119.908 322.825 120.26 323.041 120.74C323.257 121.212 323.365 121.82 323.365 122.564C323.365 124.02 323.037 125.256 322.381 126.272C321.733 127.28 320.825 128.096 319.657 128.72Z" fill="#6C5D47"/>
<path d="M309.29 128.636C309.258 128.508 309.198 128.348 309.11 128.156C309.03 127.972 308.934 127.816 308.822 127.688C309.854 127.544 310.646 127.228 311.198 126.74C311.75 126.252 312.026 125.656 312.026 124.952C312.026 124.48 311.894 124.084 311.63 123.764C311.366 123.444 311.002 123.208 310.538 123.056C309.906 124.248 309.194 125.24 308.402 126.032C308.45 126.2 308.502 126.364 308.558 126.524C308.614 126.684 308.674 126.84 308.738 126.992C308.594 127.024 308.418 127.088 308.21 127.184C308.01 127.272 307.858 127.356 307.754 127.436C307.714 127.332 307.674 127.228 307.634 127.124C307.602 127.02 307.566 126.916 307.526 126.812C307.07 127.164 306.622 127.424 306.182 127.592C305.742 127.752 305.338 127.804 304.97 127.748C304.818 127.724 304.666 127.664 304.514 127.568C304.362 127.464 304.234 127.316 304.13 127.124C304.034 126.924 303.986 126.664 303.986 126.344C303.986 125.768 304.114 125.228 304.37 124.724C304.634 124.212 304.99 123.756 305.438 123.356C305.894 122.956 306.41 122.64 306.986 122.408C306.986 122.136 306.99 121.868 306.998 121.604C307.014 121.34 307.03 121.084 307.046 120.836C306.534 120.876 306.054 120.904 305.606 120.92C305.158 120.928 304.794 120.92 304.514 120.896L304.418 119.876C304.722 119.908 305.114 119.924 305.594 119.924C306.082 119.924 306.594 119.908 307.13 119.876C307.17 119.564 307.21 119.268 307.25 118.988C307.29 118.7 307.334 118.432 307.382 118.184L308.414 118.376C308.366 118.592 308.322 118.816 308.282 119.048C308.242 119.28 308.206 119.524 308.174 119.78C308.774 119.716 309.35 119.636 309.902 119.54C310.462 119.444 310.926 119.332 311.294 119.204L311.414 120.176C311.014 120.296 310.514 120.408 309.914 120.512C309.322 120.608 308.706 120.688 308.066 120.752C308.034 121.184 308.01 121.632 307.994 122.096C308.186 122.056 308.382 122.024 308.582 122C308.782 121.976 308.982 121.964 309.182 121.964C309.31 121.964 309.434 121.968 309.554 121.976C309.682 121.984 309.806 121.996 309.926 122.012C310.062 121.708 310.182 121.396 310.286 121.076L311.282 121.364C311.226 121.508 311.17 121.652 311.114 121.796C311.058 121.94 310.998 122.084 310.934 122.228C311.606 122.436 312.142 122.772 312.542 123.236C312.942 123.7 313.142 124.276 313.142 124.964C313.142 125.612 312.986 126.188 312.674 126.692C312.362 127.196 311.918 127.612 311.342 127.94C310.766 128.268 310.082 128.5 309.29 128.636ZM305.906 126.62C306.29 126.484 306.742 126.192 307.262 125.744C307.19 125.368 307.13 124.984 307.082 124.592C307.042 124.192 307.014 123.788 306.998 123.38C306.414 123.684 305.938 124.084 305.57 124.58C305.202 125.068 305.018 125.596 305.018 126.164C305.018 126.476 305.102 126.652 305.27 126.692C305.446 126.732 305.658 126.708 305.906 126.62ZM308.162 124.844C308.394 124.564 308.626 124.26 308.858 123.932C309.098 123.604 309.318 123.252 309.518 122.876C309.462 122.868 309.406 122.864 309.35 122.864C309.294 122.864 309.238 122.864 309.182 122.864C308.774 122.864 308.382 122.912 308.006 123.008C308.014 123.32 308.03 123.632 308.054 123.944C308.086 124.248 308.122 124.548 308.162 124.844Z" fill="#6C5D47"/>
<path d="M293.233 128.828V124.1H296.929C296.849 123.996 296.753 123.884 296.641 123.764C296.529 123.636 296.429 123.544 296.341 123.488C297.317 123.024 297.969 122.408 298.297 121.64H296.761V120.788H298.525C298.541 120.652 298.553 120.516 298.561 120.38C298.577 120.244 298.585 120.1 298.585 119.948V119.888H296.881V119.012H298.585V117.992H299.629V119.012H301.513V119.888H299.629V119.948C299.629 120.1 299.621 120.244 299.605 120.38C299.597 120.516 299.585 120.652 299.569 120.788H301.909V121.64H299.953C300.217 122.064 300.561 122.464 300.985 122.84C301.417 123.208 301.849 123.484 302.281 123.668C302.225 123.716 302.149 123.792 302.053 123.896C301.957 124 301.865 124.108 301.777 124.22C301.697 124.332 301.637 124.424 301.597 124.496C301.141 124.24 300.697 123.908 300.265 123.5C299.833 123.084 299.473 122.624 299.185 122.12C298.993 122.52 298.741 122.884 298.429 123.212C298.117 123.532 297.737 123.828 297.289 124.1H300.001V128.828H293.233ZM291.601 124.772C291.561 124.7 291.501 124.608 291.421 124.496C291.341 124.384 291.257 124.276 291.169 124.172C291.081 124.068 291.005 123.992 290.941 123.944C291.549 123.664 292.041 123.336 292.417 122.96C292.801 122.576 293.085 122.136 293.269 121.64H291.277V120.788H293.485C293.509 120.652 293.525 120.516 293.533 120.38C293.541 120.236 293.545 120.088 293.545 119.936V119.888H291.673V119.012H293.545V117.992H294.589V119.012H296.137V119.888H294.589V119.936C294.589 120.08 294.585 120.224 294.577 120.368C294.569 120.512 294.557 120.652 294.541 120.788H296.341V121.64H294.781C294.989 121.96 295.241 122.272 295.537 122.576C295.841 122.88 296.153 123.128 296.473 123.32C296.409 123.36 296.321 123.428 296.209 123.524C296.097 123.612 295.989 123.7 295.885 123.788C295.781 123.876 295.705 123.944 295.657 123.992C295.385 123.792 295.109 123.544 294.829 123.248C294.557 122.944 294.317 122.624 294.109 122.288C293.645 123.272 292.809 124.1 291.601 124.772ZM294.313 127.976H298.909V126.884H294.313V127.976ZM294.313 126.044H298.909V124.952H294.313V126.044Z" fill="#6C5D47"/>
<path d="M283.946 128.816L283.73 127.82C283.842 127.796 284.006 127.76 284.222 127.712C284.446 127.664 284.69 127.608 284.954 127.544V123.56H284.21C284.05 125.712 283.494 127.388 282.542 128.588C282.486 128.532 282.398 128.464 282.278 128.384C282.166 128.312 282.05 128.24 281.93 128.168C281.818 128.104 281.722 128.06 281.642 128.036C282.154 127.42 282.542 126.644 282.806 125.708C283.078 124.772 283.214 123.652 283.214 122.348V118.484H289.73V119.456H284.246V122.636H289.898V123.56H287.402C287.482 124.088 287.622 124.6 287.822 125.096C288.078 124.944 288.342 124.772 288.614 124.58C288.894 124.38 289.114 124.216 289.274 124.088L289.922 124.808C289.81 124.888 289.654 124.996 289.454 125.132C289.254 125.26 289.042 125.392 288.818 125.528C288.602 125.664 288.402 125.784 288.218 125.888C288.466 126.304 288.758 126.692 289.094 127.052C289.43 127.404 289.818 127.732 290.258 128.036C290.202 128.076 290.118 128.144 290.006 128.24C289.894 128.336 289.786 128.432 289.682 128.528C289.586 128.632 289.514 128.712 289.466 128.768C288.642 128.184 287.97 127.444 287.45 126.548C286.93 125.644 286.59 124.648 286.43 123.56H285.95V127.316C286.238 127.244 286.502 127.176 286.742 127.112C286.982 127.048 287.162 126.992 287.282 126.944V127.94C287.114 127.996 286.882 128.064 286.586 128.144C286.29 128.232 285.97 128.32 285.626 128.408C285.29 128.496 284.97 128.576 284.666 128.648C284.37 128.72 284.13 128.776 283.946 128.816ZM279.518 128.864C279.51 128.72 279.482 128.536 279.434 128.312C279.386 128.088 279.334 127.916 279.278 127.796H280.142C280.302 127.796 280.418 127.768 280.49 127.712C280.562 127.656 280.598 127.552 280.598 127.4V124.832C280.31 124.952 280.05 125.06 279.818 125.156C279.586 125.244 279.414 125.308 279.302 125.348L279.014 124.196C279.198 124.14 279.43 124.064 279.71 123.968C279.99 123.872 280.286 123.764 280.598 123.644V121.304H279.146V120.284H280.598V117.98H281.642V120.284H282.782V121.304H281.642V123.236C281.874 123.14 282.086 123.052 282.278 122.972C282.478 122.884 282.63 122.812 282.734 122.756V123.836C282.614 123.9 282.458 123.98 282.266 124.076C282.074 124.164 281.866 124.26 281.642 124.364V127.784C281.642 128.16 281.538 128.432 281.33 128.6C281.122 128.776 280.806 128.864 280.382 128.864H279.518ZM284.906 121.46V120.536H289.226V121.46H284.906Z" fill="#6C5D47"/>
<path d="M277.298 129.188C276.522 128.468 275.902 127.624 275.438 126.656C274.974 125.68 274.742 124.608 274.742 123.44C274.742 122.272 274.974 121.204 275.438 120.236C275.902 119.26 276.522 118.412 277.298 117.692L277.79 118.172C277.062 118.892 276.494 119.688 276.086 120.56C275.678 121.424 275.474 122.384 275.474 123.44C275.474 124.496 275.678 125.46 276.086 126.332C276.494 127.196 277.062 127.988 277.79 128.708L277.298 129.188Z" fill="#6C5D47"/>
<path d="M256.969 128.072V118.808H264.217V128.072H256.969ZM258.133 127.016H263.053V123.86H258.133V127.016ZM258.133 122.84H263.053V119.864H258.133V122.84Z" fill="#6C5D47"/>
<path d="M247.394 128.864C247.354 128.792 247.29 128.7 247.202 128.588C247.122 128.476 247.034 128.368 246.938 128.264C246.85 128.168 246.77 128.096 246.698 128.048C247.338 127.736 247.83 127.376 248.174 126.968C248.518 126.56 248.754 126.06 248.882 125.468C249.018 124.876 249.09 124.148 249.098 123.284H248.066V118.568H253.262V123.284H251.858V127.304C251.858 127.416 251.882 127.492 251.93 127.532C251.978 127.572 252.074 127.592 252.218 127.592H252.686C252.838 127.592 252.954 127.572 253.034 127.532C253.122 127.484 253.19 127.376 253.238 127.208C253.286 127.032 253.326 126.752 253.358 126.368C253.47 126.424 253.626 126.488 253.826 126.56C254.034 126.624 254.206 126.676 254.342 126.716C254.294 127.268 254.21 127.684 254.09 127.964C253.97 128.236 253.806 128.42 253.598 128.516C253.39 128.612 253.118 128.66 252.782 128.66H251.87C251.502 128.66 251.234 128.596 251.066 128.468C250.906 128.348 250.826 128.14 250.826 127.844V123.284H250.106C250.106 124.204 250.034 125.012 249.89 125.708C249.746 126.404 249.478 127.008 249.086 127.52C248.702 128.032 248.138 128.48 247.394 128.864ZM245.042 128.852V124.232C244.802 124.456 244.554 124.676 244.298 124.892C244.05 125.108 243.798 125.308 243.542 125.492C243.494 125.42 243.426 125.332 243.338 125.228C243.25 125.116 243.158 125.008 243.062 124.904C242.966 124.8 242.886 124.724 242.822 124.676C243.15 124.468 243.482 124.22 243.818 123.932C244.162 123.644 244.494 123.332 244.814 122.996C245.134 122.66 245.422 122.324 245.678 121.988C245.942 121.652 246.154 121.332 246.314 121.028H243.338V120.092H245.018V117.968H246.074V120.092H247.382L247.778 120.452C247.586 120.868 247.366 121.272 247.118 121.664C246.87 122.056 246.606 122.436 246.326 122.804C246.518 122.94 246.726 123.084 246.95 123.236C247.182 123.38 247.41 123.52 247.634 123.656C247.858 123.784 248.05 123.892 248.21 123.98C248.114 124.084 247.998 124.232 247.862 124.424C247.726 124.608 247.63 124.756 247.574 124.868C247.374 124.732 247.142 124.576 246.878 124.4C246.614 124.224 246.354 124.04 246.098 123.848V128.852H245.042ZM249.134 122.276H252.182V119.576H249.134V122.276Z" fill="#6C5D47"/>
<path d="M236.594 124.604C236.274 124.604 235.998 124.492 235.766 124.268C235.542 124.036 235.43 123.76 235.43 123.44C235.43 123.112 235.542 122.836 235.766 122.612C235.998 122.388 236.274 122.276 236.594 122.276C236.922 122.276 237.198 122.388 237.422 122.612C237.646 122.836 237.758 123.112 237.758 123.44C237.758 123.76 237.646 124.036 237.422 124.268C237.198 124.492 236.922 124.604 236.594 124.604Z" fill="#6C5D47"/>
<path d="M222.709 128.936C222.669 128.808 222.605 128.648 222.517 128.456C222.429 128.272 222.341 128.12 222.253 128C222.821 127.896 223.369 127.736 223.897 127.52C224.433 127.296 224.929 127.036 225.385 126.74C224.993 126.364 224.669 125.952 224.413 125.504C224.165 125.784 223.909 126.044 223.645 126.284C223.381 126.524 223.117 126.736 222.853 126.92C222.765 126.808 222.649 126.688 222.505 126.56C222.361 126.424 222.233 126.316 222.121 126.236C222.457 126.028 222.789 125.768 223.117 125.456C223.453 125.136 223.765 124.796 224.053 124.436C224.349 124.068 224.605 123.708 224.821 123.356C224.381 123.388 223.977 123.416 223.609 123.44C223.249 123.464 222.973 123.48 222.781 123.488L222.601 122.528C222.809 122.528 223.057 122.52 223.345 122.504C223.641 122.488 223.953 122.472 224.281 122.456C224.521 122.24 224.805 121.944 225.133 121.568C224.933 121.384 224.701 121.188 224.437 120.98C224.173 120.764 223.909 120.56 223.645 120.368C223.381 120.176 223.145 120.028 222.937 119.924L223.573 119.168C223.685 119.232 223.805 119.308 223.933 119.396C224.061 119.484 224.193 119.576 224.329 119.672C224.473 119.504 224.621 119.316 224.773 119.108C224.925 118.892 225.069 118.676 225.205 118.46C225.341 118.244 225.453 118.056 225.541 117.896L226.429 118.388C226.253 118.66 226.033 118.968 225.769 119.312C225.513 119.656 225.269 119.956 225.037 120.212C225.173 120.316 225.305 120.424 225.433 120.536C225.569 120.64 225.689 120.736 225.793 120.824C226.041 120.536 226.285 120.244 226.525 119.948C226.765 119.644 226.985 119.36 227.185 119.096C227.393 118.832 227.557 118.604 227.677 118.412L228.565 118.952C228.413 119.168 228.221 119.42 227.989 119.708C227.765 119.988 227.517 120.284 227.245 120.596C226.981 120.908 226.709 121.216 226.429 121.52C226.149 121.824 225.885 122.104 225.637 122.36C226.069 122.32 226.489 122.284 226.897 122.252C227.313 122.212 227.681 122.172 228.001 122.132C227.889 122.004 227.777 121.888 227.665 121.784C227.553 121.672 227.449 121.576 227.353 121.496L228.061 120.872C228.277 121.04 228.513 121.26 228.769 121.532C229.033 121.804 229.285 122.08 229.525 122.36C229.765 122.64 229.957 122.888 230.101 123.104C230.045 123.136 229.957 123.196 229.837 123.284C229.725 123.372 229.613 123.46 229.501 123.548C229.397 123.636 229.321 123.708 229.273 123.764C229.193 123.644 229.101 123.516 228.997 123.38C228.901 123.236 228.793 123.088 228.673 122.936C228.369 122.984 227.973 123.036 227.485 123.092C227.005 123.148 226.505 123.2 225.985 123.248C225.913 123.384 225.837 123.524 225.757 123.668C225.677 123.812 225.593 123.952 225.505 124.088H228.301L228.757 124.46C228.293 125.308 227.693 126.064 226.957 126.728C227.429 127.016 227.941 127.256 228.493 127.448C229.045 127.64 229.629 127.768 230.245 127.832C230.149 127.968 230.053 128.136 229.957 128.336C229.869 128.536 229.797 128.708 229.741 128.852C229.101 128.748 228.469 128.568 227.845 128.312C227.229 128.064 226.661 127.752 226.141 127.376C225.165 128.08 224.021 128.6 222.709 128.936ZM220.693 128.78V123.872C220.293 124.208 219.917 124.488 219.565 124.712C219.533 124.648 219.469 124.56 219.373 124.448C219.277 124.328 219.177 124.216 219.073 124.112C218.969 124 218.881 123.92 218.809 123.872C219.073 123.72 219.373 123.512 219.709 123.248C220.053 122.976 220.393 122.68 220.729 122.36C221.073 122.032 221.385 121.704 221.665 121.376C221.953 121.048 222.177 120.744 222.337 120.464L223.225 121.052C223.025 121.356 222.801 121.66 222.553 121.964C222.305 122.268 222.041 122.564 221.761 122.852V128.78H220.693ZM219.841 121.208C219.737 121.064 219.621 120.912 219.493 120.752C219.373 120.592 219.249 120.464 219.121 120.368C219.465 120.2 219.825 119.988 220.201 119.732C220.585 119.468 220.945 119.188 221.281 118.892C221.617 118.596 221.897 118.312 222.121 118.04L222.937 118.676C222.689 118.964 222.377 119.272 222.001 119.6C221.633 119.928 221.257 120.236 220.873 120.524C220.489 120.812 220.145 121.04 219.841 121.208ZM226.189 126.152C226.637 125.76 227.001 125.348 227.281 124.916H225.109C225.381 125.356 225.741 125.768 226.189 126.152Z" fill="#6C5D47"/>
<path d="M212.029 128.864V124.364H207.133V123.296H212.029V120.632H209.905C209.657 121.032 209.393 121.412 209.113 121.772C208.833 122.124 208.545 122.44 208.249 122.72C208.185 122.648 208.093 122.568 207.973 122.48C207.861 122.384 207.745 122.292 207.625 122.204C207.513 122.116 207.421 122.056 207.349 122.024C207.613 121.784 207.877 121.492 208.141 121.148C208.413 120.804 208.665 120.44 208.897 120.056C209.137 119.664 209.345 119.28 209.521 118.904C209.705 118.52 209.845 118.168 209.941 117.848L211.081 118.196C211.001 118.428 210.909 118.66 210.805 118.892C210.709 119.116 210.605 119.344 210.493 119.576H216.973V120.632H213.217V123.296H218.041V124.364H213.217V128.864H212.029Z" fill="#6C5D47"/>
<path d="M199.766 128.672V124.916C199.638 125.06 199.506 125.196 199.37 125.324C199.242 125.452 199.11 125.568 198.974 125.672C198.902 125.584 198.814 125.492 198.71 125.396C198.614 125.3 198.514 125.212 198.41 125.132V126.812H195.434V119.06H198.41V124.916C198.714 124.684 199.002 124.412 199.274 124.1C199.546 123.78 199.786 123.452 199.994 123.116C200.21 122.772 200.374 122.448 200.486 122.144H199.046V121.328H201.278V120.596H199.226V119.84H201.278V119.156H199.022V118.364H202.202V122.144H200.534L201.374 122.48C201.31 122.632 201.238 122.784 201.158 122.936C201.078 123.088 200.99 123.244 200.894 123.404H202.406C202.526 123.212 202.638 123.008 202.742 122.792C202.846 122.568 202.926 122.364 202.982 122.18L203.918 122.48C203.862 122.616 203.794 122.764 203.714 122.924C203.634 123.084 203.55 123.244 203.462 123.404H205.79V124.184H203.306V124.868H205.322V125.624H203.306V126.344H205.322V127.1H203.306V127.844H205.826V128.672H199.766ZM202.622 122.144V121.328H204.806V120.596H202.79V119.84H204.806V119.156H202.598V118.364H205.742V122.144H202.622ZM196.346 125.84H197.51V123.368H196.346V125.84ZM196.346 122.396H197.51V120.032H196.346V122.396ZM200.786 127.844H202.31V127.1H200.786V127.844ZM200.786 126.344H202.31V125.624H200.786V126.344ZM200.786 124.868H202.31V124.184H200.786V124.868Z" fill="#6C5D47"/>
<path d="M184.969 128.072V118.808H192.217V128.072H184.969ZM186.133 127.016H191.053V123.86H186.133V127.016ZM186.133 122.84H191.053V119.864H186.133V122.84Z" fill="#6C5D47"/>
<path d="M176.594 124.604C176.274 124.604 175.998 124.492 175.766 124.268C175.542 124.036 175.43 123.76 175.43 123.44C175.43 123.112 175.542 122.836 175.766 122.612C175.998 122.388 176.274 122.276 176.594 122.276C176.922 122.276 177.198 122.388 177.422 122.612C177.646 122.836 177.758 123.112 177.758 123.44C177.758 123.76 177.646 124.036 177.422 124.268C177.198 124.492 176.922 124.604 176.594 124.604Z" fill="#6C5D47"/>
<path d="M162.709 128.936C162.669 128.808 162.605 128.648 162.517 128.456C162.429 128.272 162.341 128.12 162.253 128C162.821 127.896 163.369 127.736 163.897 127.52C164.433 127.296 164.929 127.036 165.385 126.74C164.993 126.364 164.669 125.952 164.413 125.504C164.165 125.784 163.909 126.044 163.645 126.284C163.381 126.524 163.117 126.736 162.853 126.92C162.765 126.808 162.649 126.688 162.505 126.56C162.361 126.424 162.233 126.316 162.121 126.236C162.457 126.028 162.789 125.768 163.117 125.456C163.453 125.136 163.765 124.796 164.053 124.436C164.349 124.068 164.605 123.708 164.821 123.356C164.381 123.388 163.977 123.416 163.609 123.44C163.249 123.464 162.973 123.48 162.781 123.488L162.601 122.528C162.809 122.528 163.057 122.52 163.345 122.504C163.641 122.488 163.953 122.472 164.281 122.456C164.521 122.24 164.805 121.944 165.133 121.568C164.933 121.384 164.701 121.188 164.437 120.98C164.173 120.764 163.909 120.56 163.645 120.368C163.381 120.176 163.145 120.028 162.937 119.924L163.573 119.168C163.685 119.232 163.805 119.308 163.933 119.396C164.061 119.484 164.193 119.576 164.329 119.672C164.473 119.504 164.621 119.316 164.773 119.108C164.925 118.892 165.069 118.676 165.205 118.46C165.341 118.244 165.453 118.056 165.541 117.896L166.429 118.388C166.253 118.66 166.033 118.968 165.769 119.312C165.513 119.656 165.269 119.956 165.037 120.212C165.173 120.316 165.305 120.424 165.433 120.536C165.569 120.64 165.689 120.736 165.793 120.824C166.041 120.536 166.285 120.244 166.525 119.948C166.765 119.644 166.985 119.36 167.185 119.096C167.393 118.832 167.557 118.604 167.677 118.412L168.565 118.952C168.413 119.168 168.221 119.42 167.989 119.708C167.765 119.988 167.517 120.284 167.245 120.596C166.981 120.908 166.709 121.216 166.429 121.52C166.149 121.824 165.885 122.104 165.637 122.36C166.069 122.32 166.489 122.284 166.897 122.252C167.313 122.212 167.681 122.172 168.001 122.132C167.889 122.004 167.777 121.888 167.665 121.784C167.553 121.672 167.449 121.576 167.353 121.496L168.061 120.872C168.277 121.04 168.513 121.26 168.769 121.532C169.033 121.804 169.285 122.08 169.525 122.36C169.765 122.64 169.957 122.888 170.101 123.104C170.045 123.136 169.957 123.196 169.837 123.284C169.725 123.372 169.613 123.46 169.501 123.548C169.397 123.636 169.321 123.708 169.273 123.764C169.193 123.644 169.101 123.516 168.997 123.38C168.901 123.236 168.793 123.088 168.673 122.936C168.369 122.984 167.973 123.036 167.485 123.092C167.005 123.148 166.505 123.2 165.985 123.248C165.913 123.384 165.837 123.524 165.757 123.668C165.677 123.812 165.593 123.952 165.505 124.088H168.301L168.757 124.46C168.293 125.308 167.693 126.064 166.957 126.728C167.429 127.016 167.941 127.256 168.493 127.448C169.045 127.64 169.629 127.768 170.245 127.832C170.149 127.968 170.053 128.136 169.957 128.336C169.869 128.536 169.797 128.708 169.741 128.852C169.101 128.748 168.469 128.568 167.845 128.312C167.229 128.064 166.661 127.752 166.141 127.376C165.165 128.08 164.021 128.6 162.709 128.936ZM160.693 128.78V123.872C160.293 124.208 159.917 124.488 159.565 124.712C159.533 124.648 159.469 124.56 159.373 124.448C159.277 124.328 159.177 124.216 159.073 124.112C158.969 124 158.881 123.92 158.809 123.872C159.073 123.72 159.373 123.512 159.709 123.248C160.053 122.976 160.393 122.68 160.729 122.36C161.073 122.032 161.385 121.704 161.665 121.376C161.953 121.048 162.177 120.744 162.337 120.464L163.225 121.052C163.025 121.356 162.801 121.66 162.553 121.964C162.305 122.268 162.041 122.564 161.761 122.852V128.78H160.693ZM159.841 121.208C159.737 121.064 159.621 120.912 159.493 120.752C159.373 120.592 159.249 120.464 159.121 120.368C159.465 120.2 159.825 119.988 160.201 119.732C160.585 119.468 160.945 119.188 161.281 118.892C161.617 118.596 161.897 118.312 162.121 118.04L162.937 118.676C162.689 118.964 162.377 119.272 162.001 119.6C161.633 119.928 161.257 120.236 160.873 120.524C160.489 120.812 160.145 121.04 159.841 121.208ZM166.189 126.152C166.637 125.76 167.001 125.348 167.281 124.916H165.109C165.381 125.356 165.741 125.768 166.189 126.152Z" fill="#6C5D47"/>
<path d="M152.029 128.864V124.364H147.133V123.296H152.029V120.632H149.905C149.657 121.032 149.393 121.412 149.113 121.772C148.833 122.124 148.545 122.44 148.249 122.72C148.185 122.648 148.093 122.568 147.973 122.48C147.861 122.384 147.745 122.292 147.625 122.204C147.513 122.116 147.421 122.056 147.349 122.024C147.613 121.784 147.877 121.492 148.141 121.148C148.413 120.804 148.665 120.44 148.897 120.056C149.137 119.664 149.345 119.28 149.521 118.904C149.705 118.52 149.845 118.168 149.941 117.848L151.081 118.196C151.001 118.428 150.909 118.66 150.805 118.892C150.709 119.116 150.605 119.344 150.493 119.576H156.973V120.632H153.217V123.296H158.041V124.364H153.217V128.864H152.029Z" fill="#6C5D47"/>
<path d="M139.766 128.672V124.916C139.638 125.06 139.506 125.196 139.37 125.324C139.242 125.452 139.11 125.568 138.974 125.672C138.902 125.584 138.814 125.492 138.71 125.396C138.614 125.3 138.514 125.212 138.41 125.132V126.812H135.434V119.06H138.41V124.916C138.714 124.684 139.002 124.412 139.274 124.1C139.546 123.78 139.786 123.452 139.994 123.116C140.21 122.772 140.374 122.448 140.486 122.144H139.046V121.328H141.278V120.596H139.226V119.84H141.278V119.156H139.022V118.364H142.202V122.144H140.534L141.374 122.48C141.31 122.632 141.238 122.784 141.158 122.936C141.078 123.088 140.99 123.244 140.894 123.404H142.406C142.526 123.212 142.638 123.008 142.742 122.792C142.846 122.568 142.926 122.364 142.982 122.18L143.918 122.48C143.862 122.616 143.794 122.764 143.714 122.924C143.634 123.084 143.55 123.244 143.462 123.404H145.79V124.184H143.306V124.868H145.322V125.624H143.306V126.344H145.322V127.1H143.306V127.844H145.826V128.672H139.766ZM142.622 122.144V121.328H144.806V120.596H142.79V119.84H144.806V119.156H142.598V118.364H145.742V122.144H142.622ZM136.346 125.84H137.51V123.368H136.346V125.84ZM136.346 122.396H137.51V120.032H136.346V122.396ZM140.786 127.844H142.31V127.1H140.786V127.844ZM140.786 126.344H142.31V125.624H140.786V126.344ZM140.786 124.868H142.31V124.184H140.786V124.868Z" fill="#6C5D47"/>
<path d="M123.145 128.3V127.256H128.017V122.744H123.973V121.7H128.017V118.196H129.181V121.7H133.261V122.744H129.181V127.256H134.077V128.3H123.145Z" fill="#6C5D47"/>
<path d="M116.594 124.604C116.274 124.604 115.998 124.492 115.766 124.268C115.542 124.036 115.43 123.76 115.43 123.44C115.43 123.112 115.542 122.836 115.766 122.612C115.998 122.388 116.274 122.276 116.594 122.276C116.922 122.276 117.198 122.388 117.422 122.612C117.646 122.836 117.758 123.112 117.758 123.44C117.758 123.76 117.646 124.036 117.422 124.268C117.198 124.492 116.922 124.604 116.594 124.604Z" fill="#6C5D47"/>
<path d="M103.766 128.672V124.916C103.638 125.06 103.506 125.196 103.37 125.324C103.242 125.452 103.11 125.568 102.974 125.672C102.902 125.584 102.814 125.492 102.71 125.396C102.614 125.3 102.514 125.212 102.41 125.132V126.812H99.4336V119.06H102.41V124.916C102.714 124.684 103.002 124.412 103.274 124.1C103.546 123.78 103.786 123.452 103.994 123.116C104.21 122.772 104.374 122.448 104.486 122.144H103.046V121.328H105.278V120.596H103.226V119.84H105.278V119.156H103.022V118.364H106.202V122.144H104.534L105.374 122.48C105.31 122.632 105.238 122.784 105.158 122.936C105.078 123.088 104.99 123.244 104.894 123.404H106.406C106.526 123.212 106.638 123.008 106.742 122.792C106.846 122.568 106.926 122.364 106.982 122.18L107.918 122.48C107.862 122.616 107.794 122.764 107.714 122.924C107.634 123.084 107.55 123.244 107.462 123.404H109.79V124.184H107.306V124.868H109.322V125.624H107.306V126.344H109.322V127.1H107.306V127.844H109.826V128.672H103.766ZM106.622 122.144V121.328H108.806V120.596H106.79V119.84H108.806V119.156H106.598V118.364H109.742V122.144H106.622ZM100.346 125.84H101.51V123.368H100.346V125.84ZM100.346 122.396H101.51V120.032H100.346V122.396ZM104.786 127.844H106.31V127.1H104.786V127.844ZM104.786 126.344H106.31V125.624H104.786V126.344ZM104.786 124.868H106.31V124.184H104.786V124.868Z" fill="#6C5D47"/>
<path d="M90.902 128.876C90.886 128.724 90.858 128.54 90.818 128.324C90.778 128.108 90.734 127.928 90.686 127.784H91.694C91.862 127.784 91.982 127.756 92.054 127.7C92.126 127.644 92.162 127.536 92.162 127.376V117.992H93.218V120.272C93.394 121 93.666 121.716 94.034 122.42C94.338 122.18 94.65 121.916 94.97 121.628C95.29 121.34 95.598 121.052 95.894 120.764C96.198 120.468 96.458 120.196 96.674 119.948L97.502 120.668C97.262 120.924 96.974 121.208 96.638 121.52C96.31 121.824 95.962 122.128 95.594 122.432C95.234 122.736 94.882 123.016 94.538 123.272C95.002 123.992 95.542 124.656 96.158 125.264C96.774 125.864 97.434 126.372 98.138 126.788C98.058 126.844 97.966 126.932 97.862 127.052C97.758 127.164 97.658 127.28 97.562 127.4C97.466 127.52 97.39 127.62 97.334 127.7C96.51 127.156 95.738 126.46 95.018 125.612C94.306 124.764 93.706 123.832 93.218 122.816V127.736C93.218 128.496 92.778 128.876 91.898 128.876H90.902ZM87.794 127.796C87.69 127.676 87.562 127.54 87.41 127.388C87.266 127.236 87.13 127.12 87.002 127.04C87.602 126.624 88.134 126.14 88.598 125.588C89.062 125.028 89.442 124.436 89.738 123.812C90.034 123.188 90.222 122.58 90.302 121.988H87.494V120.98H91.454C91.35 122.46 90.974 123.78 90.326 124.94C89.678 126.092 88.834 127.044 87.794 127.796Z" fill="#6C5D47"/>
<path d="M77.763 128.132C77.539 128.132 77.347 128.052 77.187 127.892C77.035 127.732 76.959 127.544 76.959 127.328C76.959 127.112 77.035 126.924 77.187 126.764C77.347 126.604 77.539 126.524 77.763 126.524C77.987 126.524 78.175 126.604 78.327 126.764C78.487 126.924 78.567 127.112 78.567 127.328C78.567 127.544 78.487 127.732 78.327 127.892C78.175 128.052 77.987 128.132 77.763 128.132ZM84.831 128.132C84.607 128.132 84.419 128.052 84.267 127.892C84.115 127.732 84.039 127.544 84.039 127.328C84.039 127.112 84.115 126.924 84.267 126.764C84.419 126.604 84.607 126.524 84.831 126.524C85.055 126.524 85.243 126.604 85.395 126.764C85.555 126.924 85.635 127.112 85.635 127.328C85.635 127.544 85.555 127.732 85.395 127.892C85.243 128.052 85.055 128.132 84.831 128.132ZM81.303 128.132C81.079 128.132 80.887 128.052 80.727 127.892C80.575 127.732 80.499 127.544 80.499 127.328C80.499 127.112 80.575 126.924 80.727 126.764C80.887 126.604 81.079 126.524 81.303 126.524C81.519 126.524 81.703 126.604 81.855 126.764C82.015 126.924 82.095 127.112 82.095 127.328C82.095 127.544 82.015 127.732 81.855 127.892C81.703 128.052 81.519 128.132 81.303 128.132Z" fill="#6C5D47"/>
<path d="M66.375 128.072V118.808H73.623V128.072H66.375ZM67.539 127.016H72.459V123.86H67.539V127.016ZM67.539 122.84H72.459V119.864H67.539V122.84Z" fill="#6C5D47"/>
<path d="M53.0071 128.6V125.228H56.3311V128.6H53.0071ZM57.1351 122.456C57.0951 122.392 57.0271 122.316 56.9311 122.228C56.8431 122.14 56.7471 122.052 56.6431 121.964C56.5471 121.876 56.4631 121.808 56.3911 121.76C56.7191 121.552 57.0391 121.296 57.3511 120.992C57.6631 120.688 57.9551 120.364 58.2271 120.02C58.5071 119.668 58.7551 119.316 58.9711 118.964C59.1951 118.612 59.3751 118.284 59.5111 117.98L60.4711 118.148C60.6951 118.588 60.9831 119.028 61.3351 119.468C61.6871 119.9 62.0751 120.3 62.4991 120.668C62.9231 121.036 63.3591 121.34 63.8071 121.58C63.7431 121.628 63.6631 121.704 63.5671 121.808C63.4791 121.912 63.3911 122.02 63.3031 122.132C63.2231 122.244 63.1631 122.336 63.1231 122.408C62.7391 122.184 62.3471 121.9 61.9471 121.556C61.5471 121.204 61.1751 120.82 60.8311 120.404C60.4871 119.98 60.1951 119.552 59.9551 119.12C59.7631 119.512 59.5191 119.912 59.2231 120.32C58.9351 120.72 58.6111 121.104 58.2511 121.472C57.8991 121.84 57.5271 122.168 57.1351 122.456ZM57.3391 128.888C57.2911 128.776 57.2111 128.624 57.0991 128.432C56.9951 128.248 56.8991 128.108 56.8111 128.012C57.5631 127.804 58.3031 127.516 59.0311 127.148C59.7671 126.772 60.4431 126.344 61.0591 125.864C61.6831 125.384 62.2031 124.884 62.6191 124.364L63.3751 124.976C62.9191 125.568 62.3711 126.12 61.7311 126.632C61.0911 127.144 60.3951 127.592 59.6431 127.976C58.8991 128.36 58.1311 128.664 57.3391 128.888ZM57.8431 126.536C57.7871 126.44 57.6951 126.3 57.5671 126.116C57.4391 125.932 57.3231 125.8 57.2191 125.72C57.7311 125.536 58.2471 125.288 58.7671 124.976C59.2951 124.664 59.7871 124.32 60.2431 123.944C60.7071 123.568 61.0911 123.196 61.3951 122.828L62.1511 123.452C61.8311 123.844 61.4351 124.236 60.9631 124.628C60.4991 125.012 59.9991 125.372 59.4631 125.708C58.9271 126.036 58.3871 126.312 57.8431 126.536ZM57.4231 124.628C57.3671 124.54 57.2671 124.412 57.1231 124.244C56.9871 124.076 56.8751 123.956 56.7871 123.884C57.4751 123.58 58.1191 123.192 58.7191 122.72C59.3271 122.248 59.8391 121.756 60.2551 121.244L60.9751 121.856C60.5431 122.392 60.0271 122.896 59.4271 123.368C58.8271 123.84 58.1591 124.26 57.4231 124.628ZM52.4551 121.052V120.176H56.7991V121.052H52.4551ZM53.0311 119.372V118.472H56.2591V119.372H53.0311ZM53.0311 124.412V123.536H56.2591V124.412H53.0311ZM53.0311 122.732V121.856H56.2591V122.732H53.0311ZM53.9671 127.712H55.3591V126.104H53.9671V127.712Z" fill="#6C5D47"/>
<path d="M46.8997 128.888V123.392C46.6277 123.872 46.3197 124.344 45.9757 124.808C45.6317 125.264 45.2837 125.692 44.9317 126.092C44.5797 126.492 44.2437 126.836 43.9237 127.124C43.8597 127.036 43.7517 126.928 43.5997 126.8C43.4477 126.664 43.3157 126.556 43.2037 126.476V128.876H42.1117V122.468C41.9277 122.732 41.7397 122.98 41.5477 123.212C41.3637 123.444 41.1797 123.656 40.9957 123.848C40.8997 123.736 40.7717 123.62 40.6117 123.5C40.4597 123.38 40.3157 123.288 40.1797 123.224C40.4117 123 40.6517 122.724 40.8997 122.396C41.1477 122.06 41.3877 121.696 41.6197 121.304C41.8597 120.912 42.0797 120.516 42.2797 120.116C42.4877 119.708 42.6637 119.32 42.8077 118.952C42.9517 118.584 43.0517 118.264 43.1077 117.992L44.1637 118.292C44.0597 118.66 43.9237 119.044 43.7557 119.444C43.5957 119.836 43.4117 120.232 43.2037 120.632V126.308C43.4917 126.06 43.7997 125.756 44.1277 125.396C44.4557 125.028 44.7797 124.636 45.0997 124.22C45.4197 123.796 45.7117 123.372 45.9757 122.948C46.2477 122.524 46.4677 122.124 46.6357 121.748H43.8517V120.728H46.8997V118.004H47.9797V120.728H51.1477V121.748H48.1837C48.3517 122.132 48.5757 122.54 48.8557 122.972C49.1357 123.404 49.4437 123.832 49.7797 124.256C50.1157 124.672 50.4517 125.064 50.7877 125.432C51.1317 125.792 51.4477 126.092 51.7357 126.332C51.6637 126.372 51.5677 126.44 51.4477 126.536C51.3357 126.632 51.2277 126.732 51.1237 126.836C51.0197 126.932 50.9397 127.016 50.8837 127.088C50.5717 126.8 50.2397 126.46 49.8877 126.068C49.5437 125.668 49.2077 125.24 48.8797 124.784C48.5517 124.328 48.2517 123.872 47.9797 123.416V128.888H46.8997Z" fill="#6C5D47"/>
<g filter="url(#filter0_d_372_582)">
<path d="M4 25H339V102C339 104.761 336.761 107 334 107H9C6.23857 107 4 104.761 4 102V25Z" fill="white"/>
<path d="M4 5C4 2.23858 6.23858 0 9 0H334C336.761 0 339 2.23858 339 5V25H4V5Z" fill="#FCEFBE"/>
</g>
<path d="M85.0682 93.154C84.0042 93.154 83.2669 92.7387 82.8562 91.908C82.4456 91.0773 82.2402 89.808 82.2402 88.1C82.2402 86.392 82.4456 85.1227 82.8562 84.292C83.2669 83.452 84.0042 83.032 85.0682 83.032C86.1229 83.032 86.8556 83.452 87.2662 84.292C87.6769 85.1227 87.8822 86.392 87.8822 88.1C87.8822 89.808 87.6769 91.0773 87.2662 91.908C86.8556 92.7387 86.1229 93.154 85.0682 93.154ZM85.0682 91.992C85.4602 91.992 85.7729 91.8753 86.0062 91.642C86.2489 91.3993 86.4216 90.9933 86.5242 90.424C86.6362 89.8547 86.6922 89.08 86.6922 88.1C86.6922 87.1107 86.6362 86.3313 86.5242 85.762C86.4216 85.1927 86.2489 84.7913 86.0062 84.558C85.7729 84.3153 85.4602 84.194 85.0682 84.194C84.6856 84.194 84.3729 84.3153 84.1302 84.558C83.8876 84.7913 83.7102 85.1927 83.5982 85.762C83.4862 86.3313 83.4302 87.1107 83.4302 88.1C83.4302 89.08 83.4862 89.8547 83.5982 90.424C83.7102 90.9933 83.8876 91.3993 84.1302 91.642C84.3729 91.8753 84.6856 91.992 85.0682 91.992Z" fill="#6C5D47"/>
<path d="M78.0272 93.154C76.9632 93.154 76.2259 92.7387 75.8152 91.908C75.4046 91.0773 75.1992 89.808 75.1992 88.1C75.1992 86.392 75.4046 85.1227 75.8152 84.292C76.2259 83.452 76.9632 83.032 78.0272 83.032C79.0819 83.032 79.8145 83.452 80.2252 84.292C80.6359 85.1227 80.8412 86.392 80.8412 88.1C80.8412 89.808 80.6359 91.0773 80.2252 91.908C79.8145 92.7387 79.0819 93.154 78.0272 93.154ZM78.0272 91.992C78.4192 91.992 78.7319 91.8753 78.9652 91.642C79.2079 91.3993 79.3806 90.9933 79.4832 90.424C79.5952 89.8547 79.6512 89.08 79.6512 88.1C79.6512 87.1107 79.5952 86.3313 79.4832 85.762C79.3806 85.1927 79.2079 84.7913 78.9652 84.558C78.7319 84.3153 78.4192 84.194 78.0272 84.194C77.6446 84.194 77.3319 84.3153 77.0892 84.558C76.8466 84.7913 76.6692 85.1927 76.5572 85.762C76.4452 86.3313 76.3892 87.1107 76.3892 88.1C76.3892 89.08 76.4452 89.8547 76.5572 90.424C76.6692 90.9933 76.8466 91.3993 77.0892 91.642C77.3319 91.8753 77.6446 91.992 78.0272 91.992Z" fill="#6C5D47"/>
<path d="M72.7505 87.974C72.4892 87.974 72.2652 87.8853 72.0785 87.708C71.9012 87.5213 71.8125 87.2973 71.8125 87.036C71.8125 86.7747 71.9012 86.5553 72.0785 86.378C72.2652 86.2007 72.4892 86.112 72.7505 86.112C73.0025 86.112 73.2172 86.2007 73.3945 86.378C73.5812 86.5553 73.6745 86.7747 73.6745 87.036C73.6745 87.2973 73.5812 87.5213 73.3945 87.708C73.2172 87.8853 73.0025 87.974 72.7505 87.974ZM72.7505 93.154C72.4892 93.154 72.2652 93.0653 72.0785 92.888C71.9012 92.7013 71.8125 92.482 71.8125 92.23C71.8125 91.9687 71.9012 91.7493 72.0785 91.572C72.2652 91.3853 72.4892 91.292 72.7505 91.292C73.0025 91.292 73.2172 91.3853 73.3945 91.572C73.5812 91.7493 73.6745 91.9687 73.6745 92.23C73.6745 92.482 73.5812 92.7013 73.3945 92.888C73.2172 93.0653 73.0025 93.154 72.7505 93.154Z" fill="#6C5D47"/>
<path d="M67.0437 93.154C66.5584 93.154 66.1104 93.0327 65.6997 92.79C65.2891 92.538 64.9484 92.2207 64.6777 91.838L65.5737 91.152C65.7604 91.4133 65.9704 91.628 66.2037 91.796C66.4464 91.9547 66.7264 92.034 67.0437 92.034C67.5664 92.034 67.9771 91.8613 68.2757 91.516C68.5837 91.1613 68.7984 90.6807 68.9197 90.074C69.0504 89.458 69.1157 88.7533 69.1157 87.96C68.9477 88.268 68.7004 88.5107 68.3737 88.688C68.0564 88.856 67.7111 88.94 67.3377 88.94C66.8431 88.94 66.3951 88.828 65.9937 88.604C65.5924 88.3707 65.2704 88.0393 65.0277 87.61C64.7944 87.1807 64.6777 86.6673 64.6777 86.07C64.6777 85.482 64.7897 84.9593 65.0137 84.502C65.2377 84.0447 65.5504 83.6853 65.9517 83.424C66.3531 83.1627 66.8197 83.032 67.3517 83.032C67.7624 83.032 68.1497 83.1067 68.5137 83.256C68.8777 83.4053 69.1951 83.662 69.4657 84.026C69.7364 84.39 69.9464 84.8893 70.0957 85.524C70.2451 86.1493 70.3104 86.9427 70.2917 87.904C70.2544 89.724 69.9604 91.054 69.4097 91.894C68.8591 92.734 68.0704 93.154 67.0437 93.154ZM67.3657 87.862C67.8511 87.862 68.2477 87.6847 68.5557 87.33C68.8637 86.966 68.9944 86.5133 68.9477 85.972C68.9011 85.3933 68.7424 84.9547 68.4717 84.656C68.2104 84.348 67.8604 84.194 67.4217 84.194C66.9364 84.194 66.5584 84.376 66.2877 84.74C66.0264 85.104 65.8957 85.5473 65.8957 86.07C65.8957 86.602 66.0311 87.036 66.3017 87.372C66.5724 87.6987 66.9271 87.862 67.3657 87.862Z" fill="#6C5D47"/>
<path d="M61.2983 93V84.726L59.4503 85.902L58.8203 84.894L61.5783 83.172H62.4883V93H61.2983Z" fill="#6C5D47"/>
<path d="M54.3268 89.22C53.7668 89.22 53.2628 89.122 52.8148 88.926C52.3761 88.7207 51.9608 88.4967 51.5688 88.254C51.1674 88.0113 50.7708 87.7873 50.3788 87.582C49.9961 87.3767 49.5854 87.274 49.1468 87.274C48.7921 87.274 48.4654 87.358 48.1668 87.526C47.8774 87.6847 47.6208 87.8947 47.3968 88.156C47.1821 88.408 46.9954 88.674 46.8368 88.954L45.8848 88.31C46.3048 87.638 46.7808 87.1107 47.3128 86.728C47.8448 86.336 48.4561 86.14 49.1468 86.14C49.6788 86.14 50.1641 86.2427 50.6028 86.448C51.0508 86.644 51.4754 86.8633 51.8768 87.106C52.2874 87.358 52.6888 87.5867 53.0808 87.792C53.4821 87.988 53.8974 88.086 54.3268 88.086C54.6908 88.086 55.0174 88.0067 55.3068 87.848C55.5961 87.68 55.8528 87.4653 56.0768 87.204C56.3008 86.9427 56.4874 86.6767 56.6368 86.406L57.5888 87.05C57.1688 87.722 56.6928 88.254 56.1608 88.646C55.6288 89.0287 55.0174 89.22 54.3268 89.22Z" fill="#6C5D47"/>
<path d="M41.2225 93.154C40.1585 93.154 39.4212 92.7387 39.0105 91.908C38.5999 91.0773 38.3945 89.808 38.3945 88.1C38.3945 86.392 38.5999 85.1227 39.0105 84.292C39.4212 83.452 40.1585 83.032 41.2225 83.032C42.2772 83.032 43.0099 83.452 43.4205 84.292C43.8312 85.1227 44.0365 86.392 44.0365 88.1C44.0365 89.808 43.8312 91.0773 43.4205 91.908C43.0099 92.7387 42.2772 93.154 41.2225 93.154ZM41.2225 91.992C41.6145 91.992 41.9272 91.8753 42.1605 91.642C42.4032 91.3993 42.5759 90.9933 42.6785 90.424C42.7905 89.8547 42.8465 89.08 42.8465 88.1C42.8465 87.1107 42.7905 86.3313 42.6785 85.762C42.5759 85.1927 42.4032 84.7913 42.1605 84.558C41.9272 84.3153 41.6145 84.194 41.2225 84.194C40.8399 84.194 40.5272 84.3153 40.2845 84.558C40.0419 84.7913 39.8645 85.1927 39.7525 85.762C39.6405 86.3313 39.5845 87.1107 39.5845 88.1C39.5845 89.08 39.6405 89.8547 39.7525 90.424C39.8645 90.9933 40.0419 91.3993 40.2845 91.642C40.5272 91.8753 40.8399 91.992 41.2225 91.992Z" fill="#6C5D47"/>
<path d="M34.1815 93.154C33.1175 93.154 32.3802 92.7387 31.9695 91.908C31.5588 91.0773 31.3535 89.808 31.3535 88.1C31.3535 86.392 31.5588 85.1227 31.9695 84.292C32.3802 83.452 33.1175 83.032 34.1815 83.032C35.2362 83.032 35.9688 83.452 36.3795 84.292C36.7902 85.1227 36.9955 86.392 36.9955 88.1C36.9955 89.808 36.7902 91.0773 36.3795 91.908C35.9688 92.7387 35.2362 93.154 34.1815 93.154ZM34.1815 91.992C34.5735 91.992 34.8862 91.8753 35.1195 91.642C35.3622 91.3993 35.5348 90.9933 35.6375 90.424C35.7495 89.8547 35.8055 89.08 35.8055 88.1C35.8055 87.1107 35.7495 86.3313 35.6375 85.762C35.5348 85.1927 35.3622 84.7913 35.1195 84.558C34.8862 84.3153 34.5735 84.194 34.1815 84.194C33.7988 84.194 33.4862 84.3153 33.2435 84.558C33.0008 84.7913 32.8235 85.1927 32.7115 85.762C32.5995 86.3313 32.5435 87.1107 32.5435 88.1C32.5435 89.08 32.5995 89.8547 32.7115 90.424C32.8235 90.9933 33.0008 91.3993 33.2435 91.642C33.4862 91.8753 33.7988 91.992 34.1815 91.992Z" fill="#6C5D47"/>
<path d="M28.9048 87.974C28.6435 87.974 28.4195 87.8853 28.2328 87.708C28.0555 87.5213 27.9668 87.2973 27.9668 87.036C27.9668 86.7747 28.0555 86.5553 28.2328 86.378C28.4195 86.2007 28.6435 86.112 28.9048 86.112C29.1568 86.112 29.3715 86.2007 29.5488 86.378C29.7355 86.5553 29.8288 86.7747 29.8288 87.036C29.8288 87.2973 29.7355 87.5213 29.5488 87.708C29.3715 87.8853 29.1568 87.974 28.9048 87.974ZM28.9048 93.154C28.6435 93.154 28.4195 93.0653 28.2328 92.888C28.0555 92.7013 27.9668 92.482 27.9668 92.23C27.9668 91.9687 28.0555 91.7493 28.2328 91.572C28.4195 91.3853 28.6435 91.292 28.9048 91.292C29.1568 91.292 29.3715 91.3853 29.5488 91.572C29.7355 91.7493 29.8288 91.9687 29.8288 92.23C29.8288 92.482 29.7355 92.7013 29.5488 92.888C29.3715 93.0653 29.1568 93.154 28.9048 93.154Z" fill="#6C5D47"/>
<path d="M23.6721 93.084C23.1121 93.084 22.5801 92.944 22.0761 92.664C21.5814 92.384 21.1941 92.006 20.9141 91.53L21.9221 90.886C22.1367 91.2127 22.3887 91.4693 22.6781 91.656C22.9674 91.8427 23.2987 91.936 23.6721 91.936C24.2694 91.936 24.7221 91.7633 25.0301 91.418C25.3474 91.0633 25.5061 90.5687 25.5061 89.934C25.5061 89.318 25.3661 88.842 25.0861 88.506C24.8154 88.17 24.4374 88.002 23.9521 88.002C23.6627 88.002 23.3921 88.072 23.1401 88.212C22.8974 88.352 22.7247 88.5433 22.6221 88.786H21.5161V83.2H26.3461V84.306H22.7201V87.372C23.0841 87.0547 23.4994 86.896 23.9661 86.896C24.4887 86.896 24.9554 87.0127 25.3661 87.246C25.7767 87.4793 26.0987 87.8247 26.3321 88.282C26.5747 88.73 26.6961 89.2807 26.6961 89.934C26.6961 90.9513 26.4161 91.7307 25.8561 92.272C25.3054 92.8133 24.5774 93.084 23.6721 93.084Z" fill="#6C5D47"/>
<path d="M17.562 93V84.726L15.714 85.902L15.084 84.894L17.842 83.172H18.752V93H17.562Z" fill="#6C5D47"/>
<path fill-rule="evenodd" clip-rule="evenodd" d="M191 86H183V85H191V86Z" fill="#6C5D47"/>
<path fill-rule="evenodd" clip-rule="evenodd" d="M287 86H279V85H287V86Z" fill="#6C5D47"/>
<path fill-rule="evenodd" clip-rule="evenodd" d="M319 86H311V85H319V86Z" fill="#6C5D47"/>
<path d="M130 87C130 90.866 126.866 94 123 94C119.134 94 116 90.866 116 87C116 83.134 119.134 80 123 80C126.866 80 130 83.134 130 87Z" fill="#FF9A01"/>
<path d="M162 87C162 90.866 158.866 94 155 94C151.134 94 148 90.866 148 87C148 83.134 151.134 80 155 80C158.866 80 162 83.134 162 87Z" fill="#FF9A01"/>
<path d="M226 86C226 89.866 222.866 93 219 93C215.134 93 212 89.866 212 86C212 82.134 215.134 79 219 79C222.866 79 226 82.134 226 86Z" fill="#FF9A01"/>
<path d="M258 86C258 89.866 254.866 93 251 93C247.134 93 244 89.866 244 86C244 82.134 247.134 79 251 79C254.866 79 258 82.134 258 86Z" fill="#FF9A01"/>
<path d="M78.6952 52.154C77.6312 52.154 76.8939 51.7387 76.4832 50.908C76.0725 50.0773 75.8672 48.808 75.8672 47.1C75.8672 45.392 76.0725 44.1227 76.4832 43.292C76.8939 42.452 77.6312 42.032 78.6952 42.032C79.7499 42.032 80.4825 42.452 80.8932 43.292C81.3039 44.1227 81.5092 45.392 81.5092 47.1C81.5092 48.808 81.3039 50.0773 80.8932 50.908C80.4825 51.7387 79.7499 52.154 78.6952 52.154ZM78.6952 50.992C79.0872 50.992 79.3999 50.8753 79.6332 50.642C79.8759 50.3993 80.0485 49.9933 80.1512 49.424C80.2632 48.8547 80.3192 48.08 80.3192 47.1C80.3192 46.1107 80.2632 45.3313 80.1512 44.762C80.0485 44.1927 79.8759 43.7913 79.6332 43.558C79.3999 43.3153 79.0872 43.194 78.6952 43.194C78.3125 43.194 77.9999 43.3153 77.7572 43.558C77.5145 43.7913 77.3372 44.1927 77.2252 44.762C77.1132 45.3313 77.0572 46.1107 77.0572 47.1C77.0572 48.08 77.1132 48.8547 77.2252 49.424C77.3372 49.9933 77.5145 50.3993 77.7572 50.642C77.9999 50.8753 78.3125 50.992 78.6952 50.992Z" fill="#6C5D47"/>
<path d="M71.6542 52.154C70.5902 52.154 69.8528 51.7387 69.4422 50.908C69.0315 50.0773 68.8262 48.808 68.8262 47.1C68.8262 45.392 69.0315 44.1227 69.4422 43.292C69.8528 42.452 70.5902 42.032 71.6542 42.032C72.7088 42.032 73.4415 42.452 73.8522 43.292C74.2628 44.1227 74.4682 45.392 74.4682 47.1C74.4682 48.808 74.2628 50.0773 73.8522 50.908C73.4415 51.7387 72.7088 52.154 71.6542 52.154ZM71.6542 50.992C72.0462 50.992 72.3588 50.8753 72.5922 50.642C72.8348 50.3993 73.0075 49.9933 73.1102 49.424C73.2222 48.8547 73.2782 48.08 73.2782 47.1C73.2782 46.1107 73.2222 45.3313 73.1102 44.762C73.0075 44.1927 72.8348 43.7913 72.5922 43.558C72.3588 43.3153 72.0462 43.194 71.6542 43.194C71.2715 43.194 70.9588 43.3153 70.7162 43.558C70.4735 43.7913 70.2962 44.1927 70.1842 44.762C70.0722 45.3313 70.0162 46.1107 70.0162 47.1C70.0162 48.08 70.0722 48.8547 70.1842 49.424C70.2962 49.9933 70.4735 50.3993 70.7162 50.642C70.9588 50.8753 71.2715 50.992 71.6542 50.992Z" fill="#6C5D47"/>
<path d="M66.3775 46.974C66.1161 46.974 65.8921 46.8853 65.7055 46.708C65.5281 46.5213 65.4395 46.2973 65.4395 46.036C65.4395 45.7747 65.5281 45.5553 65.7055 45.378C65.8921 45.2007 66.1161 45.112 66.3775 45.112C66.6295 45.112 66.8441 45.2007 67.0215 45.378C67.2081 45.5553 67.3015 45.7747 67.3015 46.036C67.3015 46.2973 67.2081 46.5213 67.0215 46.708C66.8441 46.8853 66.6295 46.974 66.3775 46.974ZM66.3775 52.154C66.1161 52.154 65.8921 52.0653 65.7055 51.888C65.5281 51.7013 65.4395 51.482 65.4395 51.23C65.4395 50.9687 65.5281 50.7493 65.7055 50.572C65.8921 50.3853 66.1161 50.292 66.3775 50.292C66.6295 50.292 66.8441 50.3853 67.0215 50.572C67.2081 50.7493 67.3015 50.9687 67.3015 51.23C67.3015 51.482 67.2081 51.7013 67.0215 51.888C66.8441 52.0653 66.6295 52.154 66.3775 52.154Z" fill="#6C5D47"/>
<path d="M60.8976 52.154C60.235 52.154 59.6656 51.972 59.1896 51.608C58.7136 51.2347 58.3776 50.7213 58.1816 50.068L59.2876 49.69C59.3436 49.886 59.437 50.0867 59.5676 50.292C59.6983 50.488 59.871 50.656 60.0856 50.796C60.3003 50.936 60.5616 51.006 60.8696 51.006C61.4296 51.006 61.8683 50.866 62.1856 50.586C62.503 50.2967 62.6616 49.8487 62.6616 49.242C62.6616 48.6913 62.489 48.248 62.1436 47.912C61.8076 47.576 61.355 47.408 60.7856 47.408H60.2116V46.302H60.7856C61.3176 46.302 61.719 46.148 61.9896 45.84C62.2696 45.532 62.4096 45.14 62.4096 44.664C62.4096 44.132 62.251 43.754 61.9336 43.53C61.6256 43.306 61.271 43.194 60.8696 43.194C60.599 43.194 60.3656 43.264 60.1696 43.404C59.9736 43.544 59.8103 43.7167 59.6796 43.922C59.549 44.118 59.451 44.3093 59.3856 44.496L58.2936 44.062C58.5363 43.4087 58.891 42.9093 59.3576 42.564C59.8243 42.2187 60.3376 42.046 60.8976 42.046C61.719 42.046 62.3816 42.2793 62.8856 42.746C63.399 43.2033 63.6556 43.8287 63.6556 44.622C63.6556 45.126 63.525 45.574 63.2636 45.966C63.0023 46.358 62.657 46.6473 62.2276 46.834C62.7223 47.0113 63.1236 47.3193 63.4316 47.758C63.7396 48.1967 63.8936 48.7053 63.8936 49.284C63.8936 50.1333 63.637 50.824 63.1236 51.356C62.6196 51.888 61.8776 52.154 60.8976 52.154Z" fill="#6C5D47"/>
<path d="M54.8296 52V43.726L52.9816 44.902L52.3516 43.894L55.1096 42.172H56.0196V52H54.8296Z" fill="#6C5D47"/>
<path d="M47.8561 48.22C47.2961 48.22 46.7921 48.122 46.3441 47.926C45.9054 47.7207 45.4901 47.4967 45.0981 47.254C44.6967 47.0113 44.3001 46.7873 43.9081 46.582C43.5254 46.3767 43.1147 46.274 42.6761 46.274C42.3214 46.274 41.9947 46.358 41.6961 46.526C41.4067 46.6847 41.1501 46.8947 40.9261 47.156C40.7114 47.408 40.5247 47.674 40.3661 47.954L39.4141 47.31C39.8341 46.638 40.3101 46.1107 40.8421 45.728C41.3741 45.336 41.9854 45.14 42.6761 45.14C43.2081 45.14 43.6934 45.2427 44.1321 45.448C44.5801 45.644 45.0047 45.8633 45.4061 46.106C45.8167 46.358 46.2181 46.5867 46.6101 46.792C47.0114 46.988 47.4267 47.086 47.8561 47.086C48.2201 47.086 48.5467 47.0067 48.8361 46.848C49.1254 46.68 49.3821 46.4653 49.6061 46.204C49.8301 45.9427 50.0167 45.6767 50.1661 45.406L51.1181 46.05C50.6981 46.722 50.2221 47.254 49.6901 47.646C49.1581 48.0287 48.5467 48.22 47.8561 48.22Z" fill="#6C5D47"/>
<path d="M34.7538 52.154C33.6898 52.154 32.9524 51.7387 32.5418 50.908C32.1311 50.0773 31.9258 48.808 31.9258 47.1C31.9258 45.392 32.1311 44.1227 32.5418 43.292C32.9524 42.452 33.6898 42.032 34.7538 42.032C35.8084 42.032 36.5411 42.452 36.9518 43.292C37.3624 44.1227 37.5678 45.392 37.5678 47.1C37.5678 48.808 37.3624 50.0773 36.9518 50.908C36.5411 51.7387 35.8084 52.154 34.7538 52.154ZM34.7538 50.992C35.1458 50.992 35.4584 50.8753 35.6918 50.642C35.9344 50.3993 36.1071 49.9933 36.2098 49.424C36.3218 48.8547 36.3778 48.08 36.3778 47.1C36.3778 46.1107 36.3218 45.3313 36.2098 44.762C36.1071 44.1927 35.9344 43.7913 35.6918 43.558C35.4584 43.3153 35.1458 43.194 34.7538 43.194C34.3711 43.194 34.0584 43.3153 33.8158 43.558C33.5731 43.7913 33.3958 44.1927 33.2838 44.762C33.1718 45.3313 33.1158 46.1107 33.1158 47.1C33.1158 48.08 33.1718 48.8547 33.2838 49.424C33.3958 49.9933 33.5731 50.3993 33.8158 50.642C34.0584 50.8753 34.3711 50.992 34.7538 50.992Z" fill="#6C5D47"/>
<path d="M27.7128 52.154C26.6488 52.154 25.9114 51.7387 25.5008 50.908C25.0901 50.0773 24.8848 48.808 24.8848 47.1C24.8848 45.392 25.0901 44.1227 25.5008 43.292C25.9114 42.452 26.6488 42.032 27.7128 42.032C28.7674 42.032 29.5001 42.452 29.9108 43.292C30.3214 44.1227 30.5268 45.392 30.5268 47.1C30.5268 48.808 30.3214 50.0773 29.9108 50.908C29.5001 51.7387 28.7674 52.154 27.7128 52.154ZM27.7128 50.992C28.1048 50.992 28.4174 50.8753 28.6508 50.642C28.8934 50.3993 29.0661 49.9933 29.1688 49.424C29.2808 48.8547 29.3368 48.08 29.3368 47.1C29.3368 46.1107 29.2808 45.3313 29.1688 44.762C29.0661 44.1927 28.8934 43.7913 28.6508 43.558C28.4174 43.3153 28.1048 43.194 27.7128 43.194C27.3301 43.194 27.0174 43.3153 26.7748 43.558C26.5321 43.7913 26.3548 44.1927 26.2428 44.762C26.1308 45.3313 26.0748 46.1107 26.0748 47.1C26.0748 48.08 26.1308 48.8547 26.2428 49.424C26.3548 49.9933 26.5321 50.3993 26.7748 50.642C27.0174 50.8753 27.3301 50.992 27.7128 50.992Z" fill="#6C5D47"/>
<path d="M22.436 46.974C22.1747 46.974 21.9507 46.8853 21.764 46.708C21.5867 46.5213 21.498 46.2973 21.498 46.036C21.498 45.7747 21.5867 45.5553 21.764 45.378C21.9507 45.2007 22.1747 45.112 22.436 45.112C22.688 45.112 22.9027 45.2007 23.08 45.378C23.2667 45.5553 23.36 45.7747 23.36 46.036C23.36 46.2973 23.2667 46.5213 23.08 46.708C22.9027 46.8853 22.688 46.974 22.436 46.974ZM22.436 52.154C22.1747 52.154 21.9507 52.0653 21.764 51.888C21.5867 51.7013 21.498 51.482 21.498 51.23C21.498 50.9687 21.5867 50.7493 21.764 50.572C21.9507 50.3853 22.1747 50.292 22.436 50.292C22.688 50.292 22.9027 50.3853 23.08 50.572C23.2667 50.7493 23.36 50.9687 23.36 51.23C23.36 51.482 23.2667 51.7013 23.08 51.888C22.9027 52.0653 22.688 52.154 22.436 52.154Z" fill="#6C5D47"/>
<path d="M16.7293 52.154C16.2439 52.154 15.7959 52.0327 15.3853 51.79C14.9746 51.538 14.6339 51.2207 14.3633 50.838L15.2593 50.152C15.4459 50.4133 15.6559 50.628 15.8893 50.796C16.1319 50.9547 16.4119 51.034 16.7293 51.034C17.2519 51.034 17.6626 50.8613 17.9613 50.516C18.2693 50.1613 18.4839 49.6807 18.6053 49.074C18.7359 48.458 18.8013 47.7533 18.8013 46.96C18.6333 47.268 18.3859 47.5107 18.0593 47.688C17.7419 47.856 17.3966 47.94 17.0233 47.94C16.5286 47.94 16.0806 47.828 15.6793 47.604C15.2779 47.3707 14.9559 47.0393 14.7133 46.61C14.4799 46.1807 14.3633 45.6673 14.3633 45.07C14.3633 44.482 14.4753 43.9593 14.6993 43.502C14.9233 43.0447 15.2359 42.6853 15.6373 42.424C16.0386 42.1627 16.5053 42.032 17.0373 42.032C17.4479 42.032 17.8353 42.1067 18.1993 42.256C18.5633 42.4053 18.8806 42.662 19.1513 43.026C19.4219 43.39 19.6319 43.8893 19.7813 44.524C19.9306 45.1493 19.9959 45.9427 19.9773 46.904C19.9399 48.724 19.6459 50.054 19.0953 50.894C18.5446 51.734 17.7559 52.154 16.7293 52.154ZM17.0513 46.862C17.5366 46.862 17.9333 46.6847 18.2413 46.33C18.5493 45.966 18.6799 45.5133 18.6333 44.972C18.5866 44.3933 18.4279 43.9547 18.1573 43.656C17.8959 43.348 17.5459 43.194 17.1073 43.194C16.6219 43.194 16.2439 43.376 15.9733 43.74C15.7119 44.104 15.5813 44.5473 15.5813 45.07C15.5813 45.602 15.7166 46.036 15.9873 46.372C16.2579 46.6987 16.6126 46.862 17.0513 46.862Z" fill="#6C5D47"/>
<path d="M129 46C129 49.866 125.866 53 122 53C118.134 53 115 49.866 115 46C115 42.134 118.134 39 122 39C125.866 39 129 42.134 129 46Z" fill="#FF9A01"/>
<path d="M161 46C161 49.866 157.866 53 154 53C150.134 53 147 49.866 147 46C147 42.134 150.134 39 154 39C157.866 39 161 42.134 161 46Z" fill="#FF9A01"/>
<path d="M225 46C225 49.866 221.866 53 218 53C214.134 53 211 49.866 211 46C211 42.134 214.134 39 218 39C221.866 39 225 42.134 225 46Z" fill="#FF9A01"/>
<path d="M257 46C257 49.866 253.866 53 250 53C246.134 53 243 49.866 243 46C243 42.134 246.134 39 250 39C253.866 39 257 42.134 257 46Z" fill="#FF9A01"/>
<path d="M321 46C321 49.866 317.866 53 314 53C310.134 53 307 49.866 307 46C307 42.134 310.134 39 314 39C317.866 39 321 42.134 321 46Z" fill="#FF9A01"/>
<path fill-rule="evenodd" clip-rule="evenodd" d="M190 46H182V45H190V46Z" fill="#6C5D47"/>
<path d="M281.5 39L288.861 51.75H274.139L281.5 39Z" fill="#FF9A01"/>
<path fill-rule="evenodd" clip-rule="evenodd" d="M339 66H4V65H339V66Z" fill="#BEB09C"/>
<path d="M66.3178 19.966C66.2991 19.7887 66.2618 19.574 66.2058 19.322C66.1498 19.07 66.0938 18.8787 66.0378 18.748H67.0458C67.2418 18.748 67.3771 18.7154 67.4518 18.65C67.5358 18.5754 67.5778 18.454 67.5778 18.286V12.308H63.6158V7.71602H68.8378V18.692C68.8378 19.1214 68.7211 19.4387 68.4878 19.644C68.2638 19.8587 67.8951 19.966 67.3818 19.966H66.3178ZM57.1758 19.994V7.71602H62.3838V12.308H58.4218V19.994H57.1758ZM60.4518 18.51V13.344H65.5338V18.51H60.4518ZM61.6278 17.53H64.3718V16.368H61.6278V17.53ZM61.6278 15.472H64.3718V14.324H61.6278V15.472ZM58.4218 11.342H61.1658V10.432H58.4218V11.342ZM64.8338 11.342H67.5778V10.432H64.8338V11.342ZM58.4218 9.56402H61.1658V8.68202H58.4218V9.56402ZM64.8338 9.56402H67.5778V8.68202H64.8338V9.56402Z" fill="#6C5D47"/>
<path d="M50.9585 20.064C50.9398 19.8774 50.8978 19.658 50.8325 19.406C50.7765 19.154 50.7205 18.9534 50.6645 18.804H51.7005C51.8965 18.804 52.0365 18.7714 52.1205 18.706C52.2045 18.6407 52.2465 18.5147 52.2465 18.328V15.444H47.6125V14.31H52.2465V12.84H47.3045V11.692H50.5105V10.222H47.7385V9.06002H50.5105V7.29602H51.8405V9.06002H54.7665V10.222H51.8405V11.692H55.3685V12.84H53.5485V14.31H55.1305V15.444H53.5485V18.734C53.5485 19.1634 53.4225 19.49 53.1705 19.714C52.9185 19.9474 52.5312 20.064 52.0085 20.064H50.9585ZM43.0625 17.642V8.45802H46.9685V17.642H43.0625ZM44.2525 16.494H45.7785V13.582H44.2525V16.494ZM44.2525 12.434H45.7785V9.60602H44.2525V12.434ZM50.1185 18.202C49.9598 17.9874 49.7638 17.7634 49.5305 17.53C49.2972 17.2874 49.0592 17.0587 48.8165 16.844C48.5738 16.6294 48.3545 16.4567 48.1585 16.326L48.9285 15.472C49.1525 15.6307 49.3952 15.8174 49.6565 16.032C49.9178 16.2467 50.1652 16.4614 50.3985 16.676C50.6412 16.8907 50.8372 17.0914 50.9865 17.278C50.9212 17.334 50.8232 17.4274 50.6925 17.558C50.5712 17.6887 50.4545 17.8147 50.3425 17.936C50.2305 18.0574 50.1558 18.146 50.1185 18.202Z" fill="#6C5D47"/>
<path d="M34.7896 20.064C34.7803 19.9053 34.7476 19.714 34.6916 19.49C34.6449 19.2753 34.5936 19.1027 34.5376 18.972H35.3916C35.5783 18.972 35.7089 18.944 35.7836 18.888C35.8676 18.8227 35.9096 18.7013 35.9096 18.524V17.026H33.5996V14.38C33.4036 14.5293 33.1983 14.6787 32.9836 14.828C32.7689 14.968 32.5496 15.108 32.3256 15.248C32.2603 15.1453 32.1623 15.0193 32.0316 14.87C31.9009 14.7207 31.7796 14.5993 31.6676 14.506C31.5743 15.6073 31.3596 16.6013 31.0236 17.488C30.6969 18.3747 30.2396 19.154 29.6516 19.826C29.5489 19.7327 29.3949 19.616 29.1896 19.476C28.9843 19.3453 28.8116 19.2567 28.6716 19.21C29.2129 18.6313 29.6236 17.9687 29.9036 17.222C30.1929 16.4753 30.3843 15.6307 30.4776 14.688C30.2163 14.8373 29.9223 14.9913 29.5956 15.15C29.2689 15.3087 28.9843 15.4393 28.7416 15.542L28.3496 14.352C28.5456 14.2773 28.7789 14.1887 29.0496 14.086C29.3203 13.974 29.5909 13.862 29.8616 13.75C30.1416 13.6287 30.3703 13.5213 30.5476 13.428V8.48601H35.0836V7.28201H36.3576V8.48601H41.0616V9.53601H31.7236V13.036C31.7236 13.2693 31.7189 13.5073 31.7096 13.75C31.7003 13.9833 31.6863 14.212 31.6676 14.436C32.3023 14.0813 32.8623 13.6847 33.3476 13.246C33.1703 13.0873 32.9929 12.938 32.8156 12.798C32.6383 12.6487 32.4609 12.5133 32.2836 12.392L32.9416 11.72C33.1003 11.832 33.2776 11.9673 33.4736 12.126C33.6696 12.2753 33.8516 12.4247 34.0196 12.574C34.1689 12.4153 34.3043 12.2473 34.4256 12.07C34.5563 11.8927 34.6776 11.7153 34.7896 11.538H32.0036V10.572H35.2796C35.3543 10.4133 35.4149 10.25 35.4616 10.082C35.5176 9.91401 35.5643 9.74135 35.6016 9.56401L36.7076 9.74601C36.6703 9.88601 36.6283 10.026 36.5816 10.166C36.5349 10.306 36.4883 10.4413 36.4416 10.572H41.0196V11.538H37.7996C37.9583 11.7433 38.1263 11.9393 38.3036 12.126C38.4809 12.3033 38.6676 12.476 38.8636 12.644C39.1996 12.336 39.5169 11.9953 39.8156 11.622L40.6416 12.21C40.5016 12.3593 40.3429 12.5227 40.1656 12.7C39.9883 12.8773 39.8063 13.0453 39.6196 13.204C40.2543 13.6333 40.9263 13.9787 41.6356 14.24C41.5329 14.3147 41.4116 14.4547 41.2716 14.66C41.1409 14.8653 41.0383 15.0333 40.9636 15.164C40.6743 15.0333 40.3896 14.8933 40.1096 14.744C39.8296 14.5947 39.5589 14.4313 39.2976 14.254V17.026H37.0436V18.86C37.0436 19.6627 36.5816 20.064 35.6576 20.064H34.7896ZM40.5856 19.826C40.1003 19.6113 39.6103 19.3313 39.1156 18.986C38.6209 18.6313 38.1963 18.286 37.8416 17.95L38.6116 17.222C38.9476 17.5393 39.3629 17.852 39.8576 18.16C40.3523 18.4587 40.8189 18.6967 41.2576 18.874C41.1456 18.9673 41.0149 19.1213 40.8656 19.336C40.7256 19.5507 40.6323 19.714 40.5856 19.826ZM32.2976 19.826C32.2696 19.7513 32.2136 19.6487 32.1296 19.518C32.0549 19.3967 31.9709 19.2707 31.8776 19.14C31.7843 19.0187 31.7003 18.93 31.6256 18.874C32.0736 18.6873 32.5403 18.4493 33.0256 18.16C33.5109 17.8707 33.9263 17.558 34.2716 17.222L35.0416 17.95C34.6683 18.314 34.2389 18.664 33.7536 19C33.2776 19.3267 32.7923 19.602 32.2976 19.826ZM29.4976 12.798C29.4229 12.602 29.3156 12.3687 29.1756 12.098C29.0449 11.818 28.9049 11.5427 28.7556 11.272C28.6156 10.992 28.4803 10.7587 28.3496 10.572L29.3016 10.068C29.4136 10.236 29.5443 10.4507 29.6936 10.712C29.8429 10.9733 29.9876 11.244 30.1276 11.524C30.2769 11.804 30.3983 12.056 30.4916 12.28C30.4169 12.308 30.3143 12.3593 30.1836 12.434C30.0529 12.4993 29.9223 12.5647 29.7916 12.63C29.6703 12.6953 29.5723 12.7513 29.4976 12.798ZM34.9576 13.106H37.8696C37.3936 12.6487 36.9689 12.126 36.5956 11.538H36.0216C35.8723 11.8273 35.7089 12.1027 35.5316 12.364C35.3543 12.616 35.1629 12.8633 34.9576 13.106ZM34.8036 16.13H38.0936V15.416H34.8036V16.13ZM34.8036 14.646H38.0936V13.974H34.8036V14.646Z" fill="#6C5D47"/>
<path d="M15.1753 19.7V15.766H19.0533V19.7H15.1753ZM19.9913 12.532C19.9446 12.4573 19.8653 12.3687 19.7533 12.266C19.6506 12.1633 19.5386 12.0607 19.4173 11.958C19.3053 11.8553 19.2073 11.776 19.1233 11.72C19.5059 11.4773 19.8792 11.1787 20.2432 10.824C20.6072 10.4693 20.9479 10.0913 21.2653 9.69001C21.5919 9.27935 21.8813 8.86868 22.1333 8.45801C22.3946 8.04735 22.6046 7.66468 22.7633 7.31001L23.8833 7.50601C24.1446 8.01935 24.4806 8.53268 24.8913 9.04601C25.3019 9.55001 25.7546 10.0167 26.2493 10.446C26.7439 10.8753 27.2526 11.23 27.7752 11.51C27.7006 11.566 27.6073 11.6547 27.4953 11.776C27.3926 11.8973 27.2899 12.0233 27.1873 12.154C27.0939 12.2847 27.0239 12.392 26.9773 12.476C26.5293 12.2147 26.0719 11.8833 25.6053 11.482C25.1386 11.0713 24.7046 10.6233 24.3033 10.138C23.9019 9.64335 23.5612 9.14401 23.2812 8.64001C23.0573 9.09735 22.7726 9.56401 22.4273 10.04C22.0913 10.5067 21.7133 10.9547 21.2933 11.384C20.8826 11.8133 20.4486 12.196 19.9913 12.532ZM20.2293 20.036C20.1733 19.9053 20.0799 19.728 19.9493 19.504C19.8279 19.2893 19.7159 19.126 19.6133 19.014C20.4906 18.7713 21.3539 18.4353 22.2033 18.006C23.0619 17.5673 23.8506 17.068 24.5693 16.508C25.2973 15.948 25.9039 15.3647 26.3892 14.758L27.2713 15.472C26.7393 16.1627 26.0999 16.8067 25.3533 17.404C24.6066 18.0013 23.7946 18.524 22.9172 18.972C22.0492 19.42 21.1533 19.7747 20.2293 20.036ZM20.8173 17.292C20.7519 17.18 20.6446 17.0167 20.4953 16.802C20.3459 16.5873 20.2106 16.4333 20.0893 16.34C20.6866 16.1253 21.2886 15.836 21.8952 15.472C22.5113 15.108 23.0853 14.7067 23.6173 14.268C24.1586 13.8293 24.6066 13.3953 24.9613 12.966L25.8433 13.694C25.4699 14.1513 25.0079 14.6087 24.4573 15.066C23.9159 15.514 23.3326 15.934 22.7073 16.326C22.0819 16.7087 21.4519 17.0307 20.8173 17.292ZM20.3273 15.066C20.2619 14.9633 20.1453 14.814 19.9773 14.618C19.8186 14.422 19.6879 14.282 19.5853 14.198C20.3879 13.8433 21.1393 13.3907 21.8393 12.84C22.5486 12.2893 23.1459 11.7153 23.6313 11.118L24.4713 11.832C23.9673 12.4573 23.3653 13.0453 22.6653 13.596C21.9653 14.1467 21.1859 14.6367 20.3273 15.066ZM14.5312 10.894V9.87201H19.5992V10.894H14.5312ZM15.2032 8.93401V7.88401H18.9693V8.93401H15.2032ZM15.2032 14.814V13.792H18.9693V14.814H15.2032ZM15.2032 12.854V11.832H18.9693V12.854H15.2032ZM16.2952 18.664H17.9193V16.788H16.2952V18.664Z" fill="#6C5D47"/>
<path d="M116.918 20.064C116.815 19.9333 116.661 19.7793 116.456 19.602C116.26 19.4247 116.078 19.294 115.91 19.21C116.741 18.6313 117.361 17.908 117.772 17.04C118.183 16.172 118.388 15.0753 118.388 13.75V7.78601H125.99V18.594C125.99 19.4993 125.458 19.952 124.394 19.952H123.26C123.241 19.7653 123.199 19.532 123.134 19.252C123.078 18.9813 123.017 18.7713 122.952 18.622H124.1C124.305 18.622 124.45 18.5893 124.534 18.524C124.618 18.4493 124.66 18.314 124.66 18.118V15.262H119.606C119.475 16.354 119.186 17.2827 118.738 18.048C118.299 18.8133 117.693 19.4853 116.918 20.064ZM119.69 14.072H124.66V12.126H119.704V13.736C119.704 13.792 119.699 13.848 119.69 13.904C119.69 13.96 119.69 14.016 119.69 14.072ZM119.704 10.922H124.66V9.00401H119.704V10.922Z" fill="#6C5D47"/>
<path d="M148.386 19.938C148.32 19.7887 148.213 19.5927 148.064 19.35C147.914 19.1167 147.788 18.9393 147.686 18.818C149.59 18.146 151.004 17.1707 151.928 15.892C152.852 14.604 153.314 13.0827 153.314 11.328V7.45001H154.672V11.636C154.69 12.5973 154.854 13.4607 155.162 14.226C155.479 14.9913 155.904 15.6633 156.436 16.242C156.977 16.8207 157.588 17.3153 158.27 17.726C158.951 18.1367 159.665 18.468 160.412 18.72C160.337 18.7853 160.239 18.8973 160.118 19.056C160.006 19.2147 159.903 19.3733 159.81 19.532C159.716 19.6907 159.651 19.812 159.614 19.896C159.063 19.6907 158.503 19.4247 157.934 19.098C157.364 18.7713 156.823 18.384 156.31 17.936C155.796 17.488 155.344 16.9793 154.952 16.41C154.56 15.8407 154.261 15.2107 154.056 14.52C153.654 15.7147 152.968 16.7833 151.998 17.726C151.027 18.6593 149.823 19.3967 148.386 19.938ZM157.15 14.338C157.075 14.2727 156.963 14.1933 156.814 14.1C156.674 14.0067 156.529 13.918 156.38 13.834C156.24 13.7407 156.118 13.6753 156.016 13.638C156.221 13.4233 156.445 13.1433 156.688 12.798C156.94 12.4527 157.182 12.0793 157.416 11.678C157.649 11.2767 157.859 10.894 158.046 10.53C158.232 10.1567 158.372 9.84401 158.466 9.59201L159.726 10.124C159.604 10.4227 159.441 10.7633 159.236 11.146C159.03 11.5193 158.806 11.902 158.564 12.294C158.33 12.686 158.088 13.064 157.836 13.428C157.593 13.7827 157.364 14.086 157.15 14.338ZM149.702 14.73C149.627 14.674 149.51 14.6087 149.352 14.534C149.193 14.4593 149.03 14.3893 148.862 14.324C148.694 14.2587 148.558 14.2167 148.456 14.198C148.624 13.946 148.792 13.6287 148.96 13.246C149.137 12.854 149.3 12.4433 149.45 12.014C149.608 11.5847 149.739 11.174 149.842 10.782C149.944 10.3807 150.01 10.0447 150.038 9.77401L151.354 10.068C151.316 10.376 151.237 10.74 151.116 11.16C150.994 11.5707 150.854 12 150.696 12.448C150.537 12.8867 150.369 13.3067 150.192 13.708C150.024 14.1093 149.86 14.45 149.702 14.73Z" fill="#6C5D47"/>
<path d="M184.025 20.022C184.006 19.8447 183.973 19.63 183.927 19.378C183.88 19.126 183.829 18.916 183.773 18.748H184.949C185.145 18.748 185.285 18.7153 185.369 18.65C185.453 18.5847 185.495 18.4587 185.495 18.272V7.32401H186.727V9.984C186.932 10.8333 187.249 11.6687 187.679 12.49C188.033 12.21 188.397 11.902 188.771 11.566C189.144 11.23 189.503 10.894 189.849 10.558C190.203 10.2127 190.507 9.89534 190.759 9.60601L191.725 10.446C191.445 10.7447 191.109 11.076 190.717 11.44C190.334 11.7947 189.928 12.1493 189.499 12.504C189.079 12.8587 188.668 13.1853 188.267 13.484C188.808 14.324 189.438 15.0987 190.157 15.808C190.875 16.508 191.645 17.1007 192.467 17.586C192.373 17.6513 192.266 17.754 192.145 17.894C192.023 18.0247 191.907 18.16 191.795 18.3C191.683 18.44 191.594 18.5567 191.529 18.65C190.567 18.0153 189.667 17.2033 188.827 16.214C187.996 15.2247 187.296 14.1373 186.727 12.952V18.692C186.727 19.5787 186.213 20.022 185.187 20.022H184.025ZM180.399 18.762C180.277 18.622 180.128 18.4633 179.951 18.286C179.783 18.1087 179.624 17.9733 179.475 17.88C180.175 17.3947 180.795 16.83 181.337 16.186C181.878 15.5327 182.321 14.842 182.667 14.114C183.012 13.386 183.231 12.6767 183.325 11.986H180.049V10.81H184.669C184.547 12.5367 184.109 14.0767 183.353 15.43C182.597 16.774 181.612 17.8847 180.399 18.762Z" fill="#6C5D47"/>
<path d="M217.369 19.98V12.826C216.968 13.526 216.497 14.2167 215.955 14.898C215.414 15.57 214.84 16.2 214.233 16.788C213.636 17.376 213.034 17.894 212.427 18.342C212.371 18.258 212.283 18.1553 212.161 18.034C212.04 17.9033 211.914 17.782 211.783 17.67C211.653 17.5487 211.541 17.46 211.447 17.404C211.942 17.096 212.441 16.7227 212.945 16.284C213.449 15.8453 213.939 15.3647 214.415 14.842C214.901 14.3193 215.349 13.7827 215.759 13.232C216.17 12.6813 216.52 12.1447 216.809 11.622H211.993V10.432H217.369V7.33801H218.643V10.432H224.005V11.622H219.175C219.567 12.2847 220.048 12.966 220.617 13.666C221.187 14.3567 221.812 15.024 222.493 15.668C223.184 16.312 223.889 16.8813 224.607 17.376C224.514 17.432 224.397 17.5253 224.257 17.656C224.127 17.7773 224.001 17.908 223.879 18.048C223.758 18.1787 223.669 18.286 223.613 18.37C222.979 17.8847 222.353 17.3433 221.737 16.746C221.131 16.1393 220.561 15.5047 220.029 14.842C219.507 14.17 219.045 13.498 218.643 12.826V19.98H217.369Z" fill="#6C5D47"/>
<path d="M244.092 19.574V18.454H249.328V15.29H245.03V14.128H249.328V12.686H246.822V11.538H253.178V12.686H250.686V14.128H254.942V15.29H250.686V18.454H255.838V19.574H244.092ZM243.924 13.12C243.858 12.9893 243.756 12.8167 243.616 12.602C243.485 12.378 243.34 12.1913 243.182 12.042C243.76 11.8367 244.362 11.552 244.988 11.188C245.613 10.8147 246.215 10.3993 246.794 9.94201C247.382 9.48467 247.909 9.01801 248.376 8.54201C248.842 8.06601 249.206 7.61334 249.468 7.18401L250.686 7.38001C251.031 7.87467 251.442 8.35067 251.918 8.80801C252.403 9.25601 252.921 9.67601 253.472 10.068C254.032 10.4507 254.596 10.7913 255.166 11.09C255.744 11.3887 256.29 11.636 256.804 11.832C256.71 11.9253 256.608 12.0513 256.496 12.21C256.384 12.3687 256.276 12.5273 256.174 12.686C256.08 12.8353 256.01 12.9567 255.964 13.05C255.488 12.8353 254.974 12.574 254.424 12.266C253.882 11.9487 253.341 11.594 252.8 11.202C252.258 10.81 251.745 10.39 251.26 9.94201C250.784 9.49401 250.378 9.02734 250.042 8.54201C249.752 8.93401 249.37 9.34934 248.894 9.78801C248.427 10.2173 247.909 10.6467 247.34 11.076C246.77 11.496 246.192 11.8833 245.604 12.238C245.016 12.5927 244.456 12.8867 243.924 13.12ZM252.786 18.37L251.722 17.824C251.936 17.4973 252.16 17.11 252.394 16.662C252.636 16.214 252.823 15.808 252.954 15.444L254.102 15.934C254.008 16.158 253.887 16.4193 253.738 16.718C253.588 17.0073 253.43 17.2967 253.262 17.586C253.094 17.8753 252.935 18.1367 252.786 18.37ZM247.186 18.37C247.102 18.1647 246.976 17.922 246.808 17.642C246.64 17.3527 246.462 17.0727 246.276 16.802C246.089 16.522 245.912 16.3027 245.744 16.144L246.794 15.514C247.064 15.8313 247.326 16.1813 247.578 16.564C247.83 16.9467 248.058 17.3293 248.264 17.712L247.186 18.37Z" fill="#6C5D47"/>
<path d="M275.643 19.35V18.132H281.327V12.868H276.609V11.65H281.327V7.56201H282.685V11.65H287.445V12.868H282.685V18.132H288.397V19.35H275.643Z" fill="#6C5D47"/>
<path d="M309.771 19.084V8.276H318.227V19.084H309.771ZM311.129 17.852H316.869V14.17H311.129V17.852ZM311.129 12.98H316.869V9.508H311.129V12.98Z" fill="#6C5D47"/>
<defs>
<filter id="filter0_d_372_582" x="0" y="0" width="343" height="115" filterUnits="userSpaceOnUse" color-interpolation-filters="sRGB">
<feFlood flood-opacity="0" result="BackgroundImageFix"/>
<feColorMatrix in="SourceAlpha" type="matrix" values="0 0 0 0 0 0 0 0 0 0 0 0 0 0 0 0 0 0 127 0" result="hardAlpha"/>
<feOffset dy="4"/>
<feGaussianBlur stdDeviation="2"/>
<feComposite in2="hardAlpha" operator="out"/>
<feColorMatrix type="matrix" values="0 0 0 0 0.133333 0 0 0 0 0.133333 0 0 0 0 0.133333 0 0 0 0.1 0"/>
<feBlend mode="normal" in2="BackgroundImageFix" result="effect1_dropShadow_372_582"/>
<feBlend mode="normal" in="SourceGraphic" in2="effect1_dropShadow_372_582" result="shape"/>
</filter>
</defs>
</svg>
