<svg xmlns="http://www.w3.org/2000/svg" width="430" height="103" fill="none"><path fill="#fff" d="M83.068 102.154c-1.064 0-1.801-.415-2.212-1.246-.41-.83-.616-2.1-.616-3.808 0-1.708.206-2.977.616-3.808.41-.84 1.148-1.26 2.212-1.26 1.055 0 1.788.42 2.198 1.26.41.83.616 2.1.616 3.808 0 1.708-.205 2.978-.616 3.808-.41.831-1.143 1.246-2.198 1.246Zm0-1.162c.392 0 .705-.116.938-.35.243-.242.416-.648.518-1.218.112-.57.168-1.344.168-2.324 0-.99-.056-1.768-.168-2.338-.102-.57-.275-.97-.518-1.204-.233-.242-.546-.364-.938-.364-.382 0-.695.122-.938.364-.242.234-.42.635-.532 1.204-.112.57-.168 1.349-.168 2.338 0 .98.056 1.755.168 2.324.112.57.29.976.532 1.218.243.234.556.35.938.35ZM76.027 102.154c-1.064 0-1.801-.415-2.212-1.246-.41-.83-.616-2.1-.616-3.808 0-1.708.206-2.977.616-3.808.41-.84 1.148-1.26 2.212-1.26 1.055 0 1.787.42 2.198 1.26.41.83.616 2.1.616 3.808 0 1.708-.205 2.978-.616 3.808-.41.831-1.143 1.246-2.198 1.246Zm0-1.162c.392 0 .705-.116.938-.35.243-.242.416-.648.518-1.218.112-.57.168-1.344.168-2.324 0-.99-.056-1.768-.168-2.338-.102-.57-.275-.97-.518-1.204-.233-.242-.546-.364-.938-.364-.382 0-.695.122-.938.364-.242.234-.42.635-.532 1.204-.112.57-.168 1.349-.168 2.338 0 .98.056 1.755.168 2.324.112.57.29.976.532 1.218.243.234.556.35.938.35ZM70.75 96.974a.941.941 0 0 1-.671-.266.941.941 0 0 1-.266-.672c0-.261.088-.48.266-.658a.941.941 0 0 1 .672-.266c.251 0 .466.089.643.266.187.178.28.397.28.658a.916.916 0 0 1-.28.672.877.877 0 0 1-.644.266Zm0 5.18a.938.938 0 0 1-.671-.266.923.923 0 0 1-.266-.658c0-.261.088-.48.266-.658a.92.92 0 0 1 .672-.28c.251 0 .466.094.643.28.187.178.28.397.28.658a.9.9 0 0 1-.28.658.875.875 0 0 1-.644.266ZM65.044 102.154c-.486 0-.934-.121-1.344-.364a3.436 3.436 0 0 1-1.022-.952l.896-.686c.186.262.396.476.63.644.242.159.522.238.84.238.522 0 .933-.172 1.232-.518.308-.354.522-.835.644-1.442.13-.616.196-1.32.196-2.114a1.8 1.8 0 0 1-.742.728 2.18 2.18 0 0 1-1.036.252 2.71 2.71 0 0 1-1.344-.336 2.604 2.604 0 0 1-.966-.994c-.234-.43-.35-.942-.35-1.54 0-.588.112-1.11.336-1.568.224-.457.536-.816.938-1.078.401-.261.868-.392 1.4-.392.41 0 .798.075 1.162.224.364.15.681.406.952.77.27.364.48.864.63 1.498.15.626.214 1.419.196 2.38-.038 1.82-.332 3.15-.882 3.99-.55.84-1.34 1.26-2.366 1.26Zm.322-5.292c.485 0 .882-.177 1.19-.532.308-.364.438-.816.392-1.358-.047-.578-.206-1.017-.476-1.316-.262-.308-.612-.462-1.05-.462-.486 0-.864.182-1.134.546-.262.364-.392.808-.392 1.33 0 .532.135.966.406 1.302.27.327.625.49 1.064.49ZM59.298 102v-8.274l-1.848 1.176-.63-1.008 2.758-1.722h.91V102h-1.19ZM52.327 98.22c-.56 0-1.064-.097-1.512-.293-.439-.206-.854-.43-1.246-.672a22.42 22.42 0 0 0-1.19-.672 2.567 2.567 0 0 0-1.232-.308c-.355 0-.682.084-.98.252-.29.158-.546.368-.77.63a5.12 5.12 0 0 0-.56.798l-.952-.644c.42-.672.896-1.2 1.428-1.582a3.01 3.01 0 0 1 1.834-.588c.532 0 1.017.102 1.456.308.448.196.872.415 1.274.658.41.252.812.48 1.204.686.401.196.816.294 1.246.294.364 0 .69-.08.98-.238a2.98 2.98 0 0 0 .77-.644c.224-.262.41-.528.56-.798l.952.644c-.42.672-.896 1.204-1.428 1.596a3.06 3.06 0 0 1-1.834.574ZM39.222 102.154c-1.064 0-1.8-.415-2.212-1.246-.41-.83-.615-2.1-.615-3.808 0-1.708.205-2.977.615-3.808.411-.84 1.148-1.26 2.212-1.26 1.055 0 1.788.42 2.198 1.26.411.83.616 2.1.616 3.808 0 1.708-.205 2.978-.616 3.808-.41.831-1.143 1.246-2.198 1.246Zm0-1.162c.392 0 .705-.116.938-.35.243-.242.416-.648.519-1.218.111-.57.167-1.344.167-2.324 0-.99-.055-1.768-.167-2.338-.103-.57-.276-.97-.519-1.204-.233-.242-.545-.364-.938-.364-.382 0-.695.122-.938.364-.242.234-.42.635-.532 1.204-.111.57-.168 1.349-.168 2.338 0 .98.056 1.755.168 2.324.112.57.29.976.532 1.218.243.234.556.35.938.35ZM32.181 102.154c-1.063 0-1.8-.415-2.211-1.246-.411-.83-.616-2.1-.616-3.808 0-1.708.205-2.977.616-3.808.41-.84 1.148-1.26 2.212-1.26 1.054 0 1.787.42 2.197 1.26.411.83.617 2.1.617 3.808 0 1.708-.206 2.978-.617 3.808-.41.831-1.143 1.246-2.197 1.246Zm0-1.162c.393 0 .705-.116.939-.35.242-.242.415-.648.518-1.218.111-.57.168-1.344.168-2.324 0-.99-.056-1.768-.168-2.338-.103-.57-.276-.97-.518-1.204-.234-.242-.546-.364-.938-.364-.383 0-.696.122-.939.364-.242.234-.42.635-.531 1.204-.113.57-.168 1.349-.168 2.338 0 .98.055 1.755.168 2.324.111.57.289.976.532 1.218.242.234.555.35.938.35ZM26.905 96.974a.941.941 0 0 1-.672-.266.941.941 0 0 1-.266-.672c0-.261.088-.48.266-.658a.941.941 0 0 1 .672-.266c.252 0 .466.089.644.266.186.178.28.397.28.658a.916.916 0 0 1-.28.672.877.877 0 0 1-.644.266Zm0 5.18a.938.938 0 0 1-.672-.266.923.923 0 0 1-.266-.658c0-.261.088-.48.266-.658a.92.92 0 0 1 .672-.28c.252 0 .466.094.644.28.186.178.28.397.28.658a.9.9 0 0 1-.28.658.875.875 0 0 1-.644.266ZM21.672 102.084c-.56 0-1.092-.14-1.596-.42a3.082 3.082 0 0 1-1.162-1.134l1.008-.644c.215.327.467.584.756.77.29.187.62.28.994.28.597 0 1.05-.172 1.358-.518.317-.354.476-.85.476-1.484 0-.616-.14-1.092-.42-1.428-.27-.336-.649-.504-1.134-.504-.29 0-.56.07-.812.21-.243.14-.415.331-.518.574h-1.106V92.2h4.83v1.106H20.72v3.066c.364-.317.78-.476 1.246-.476.523 0 .99.117 1.4.35.41.234.733.579.966 1.036.243.448.364.999.364 1.652 0 1.017-.28 1.797-.84 2.338-.55.542-1.279.812-2.184.812ZM15.562 102v-8.274l-1.848 1.176-.63-1.008 2.758-1.722h.91V102h-1.19ZM154 96a7 7 0 1 1-14 0 7 7 0 0 1 14 0ZM198 96a7 7 0 1 1-14 0 7 7 0 0 1 14 0ZM330 96a7 7 0 1 1-14 0 7 7 0 0 1 14 0ZM286 96a7 7 0 1 1-14 0 7 7 0 0 1 14 0Z"/><path fill="#fff" fill-rule="evenodd" d="M239 96h-8v-1h8v1ZM371 96h-8v-1h8v1ZM415 96h-8v-1h8v1Z" clip-rule="evenodd"/><path fill="#fff" d="M77.695 61.154c-1.064 0-1.801-.415-2.212-1.246-.41-.83-.616-2.1-.616-3.808 0-1.708.206-2.977.616-3.808.41-.84 1.148-1.26 2.212-1.26 1.055 0 1.788.42 2.198 1.26.41.83.616 2.1.616 3.808 0 1.708-.205 2.978-.616 3.808-.41.83-1.143 1.246-2.198 1.246Zm0-1.162c.392 0 .705-.116.938-.35.243-.242.416-.648.518-1.218.112-.57.168-1.344.168-2.324 0-.99-.056-1.768-.168-2.338-.102-.57-.275-.97-.518-1.204-.233-.242-.546-.364-.938-.364-.382 0-.695.122-.938.364-.243.234-.42.635-.532 1.204-.112.57-.168 1.349-.168 2.338 0 .98.056 1.755.168 2.324.112.57.29.976.532 1.218.243.234.555.35.938.35ZM70.654 61.154c-1.064 0-1.801-.415-2.212-1.246-.41-.83-.616-2.1-.616-3.808 0-1.708.206-2.977.616-3.808.41-.84 1.148-1.26 2.212-1.26 1.055 0 1.788.42 2.198 1.26.41.83.616 2.1.616 3.808 0 1.708-.205 2.978-.616 3.808-.41.83-1.143 1.246-2.198 1.246Zm0-1.162c.392 0 .705-.116.938-.35.243-.242.415-.648.518-1.218.112-.57.168-1.344.168-2.324 0-.99-.056-1.768-.168-2.338-.103-.57-.275-.97-.518-1.204-.233-.242-.546-.364-.938-.364-.382 0-.695.122-.938.364-.242.234-.42.635-.532 1.204-.112.57-.168 1.349-.168 2.338 0 .98.056 1.755.168 2.324.112.57.29.976.532 1.218.243.234.556.35.938.35ZM65.377 55.974a.941.941 0 0 1-.671-.266.941.941 0 0 1-.267-.672c0-.261.09-.48.267-.658a.941.941 0 0 1 .671-.266c.252 0 .467.089.645.266.186.178.28.397.28.658a.917.917 0 0 1-.28.672.877.877 0 0 1-.645.266Zm0 5.18a.941.941 0 0 1-.671-.266.924.924 0 0 1-.267-.658c0-.261.09-.48.267-.658a.916.916 0 0 1 .671-.28c.252 0 .467.094.645.28.186.178.28.397.28.658a.9.9 0 0 1-.28.658.877.877 0 0 1-.645.266ZM59.898 61.154c-.663 0-1.232-.182-1.708-.546-.476-.373-.812-.887-1.008-1.54l1.106-.378c.056.196.149.397.28.602.13.196.303.364.518.504.214.14.476.21.784.21.56 0 .998-.14 1.316-.42.317-.29.476-.737.476-1.344 0-.55-.173-.994-.518-1.33-.336-.336-.789-.504-1.358-.504h-.574v-1.106h.574c.532 0 .933-.154 1.204-.462.28-.308.42-.7.42-1.176 0-.532-.159-.91-.476-1.134a1.762 1.762 0 0 0-1.064-.336c-.271 0-.504.07-.7.21-.196.14-.36.313-.49.518-.131.196-.229.387-.294.574l-1.092-.434c.242-.653.597-1.153 1.064-1.498.466-.345.98-.518 1.54-.518.821 0 1.484.233 1.988.7.513.457.77 1.083.77 1.876a2.366 2.366 0 0 1-1.428 2.212c.494.177.896.485 1.204.924.308.439.462.947.462 1.526 0 .85-.257 1.54-.77 2.072-.504.532-1.246.798-2.226.798ZM53.83 61v-8.274l-1.848 1.176-.63-1.008 2.758-1.722h.91V61h-1.19ZM46.856 57.22c-.56 0-1.064-.097-1.512-.293-.439-.206-.854-.43-1.246-.672a22.42 22.42 0 0 0-1.19-.672 2.567 2.567 0 0 0-1.232-.308c-.355 0-.681.084-.98.252-.29.158-.546.368-.77.63a5.12 5.12 0 0 0-.56.798l-.952-.644c.42-.672.896-1.2 1.428-1.582a3.01 3.01 0 0 1 1.834-.588c.532 0 1.017.102 1.456.308.448.196.873.415 1.274.658.41.252.812.48 1.204.686.401.196.817.294 1.246.294.364 0 .69-.08.98-.238a2.98 2.98 0 0 0 .77-.644c.224-.262.41-.528.56-.798l.952.644c-.42.672-.896 1.204-1.428 1.596a3.06 3.06 0 0 1-1.834.574ZM33.754 61.154c-1.064 0-1.802-.415-2.212-1.246-.41-.83-.616-2.1-.616-3.808 0-1.708.205-2.977.616-3.808.41-.84 1.148-1.26 2.212-1.26 1.054 0 1.787.42 2.198 1.26.41.83.616 2.1.616 3.808 0 1.708-.206 2.978-.616 3.808-.41.83-1.144 1.246-2.198 1.246Zm0-1.162c.392 0 .704-.116.938-.35.242-.242.415-.648.518-1.218.112-.57.168-1.344.168-2.324 0-.99-.056-1.768-.168-2.338-.103-.57-.276-.97-.518-1.204-.234-.242-.546-.364-.938-.364-.383 0-.696.122-.938.364-.243.234-.42.635-.532 1.204-.112.57-.168 1.349-.168 2.338 0 .98.056 1.755.168 2.324.112.57.29.976.532 1.218.242.234.555.35.938.35ZM26.713 61.154c-1.064 0-1.802-.415-2.212-1.246-.41-.83-.616-2.1-.616-3.808 0-1.708.205-2.977.616-3.808.41-.84 1.148-1.26 2.212-1.26 1.054 0 1.787.42 2.198 1.26.41.83.616 2.1.616 3.808 0 1.708-.206 2.978-.616 3.808-.41.83-1.144 1.246-2.198 1.246Zm0-1.162c.392 0 .704-.116.938-.35.242-.242.415-.648.518-1.218.112-.57.168-1.344.168-2.324 0-.99-.056-1.768-.168-2.338-.103-.57-.276-.97-.518-1.204-.234-.242-.546-.364-.938-.364-.383 0-.696.122-.938.364-.243.234-.42.635-.532 1.204-.112.57-.168 1.349-.168 2.338 0 .98.056 1.755.168 2.324.112.57.29.976.532 1.218.242.234.555.35.938.35ZM21.436 55.974a.941.941 0 0 1-.672-.266.941.941 0 0 1-.266-.672c0-.261.089-.48.266-.658a.941.941 0 0 1 .672-.266c.252 0 .467.089.644.266.187.178.28.397.28.658a.916.916 0 0 1-.28.672.877.877 0 0 1-.644.266Zm0 5.18a.941.941 0 0 1-.672-.266.924.924 0 0 1-.266-.658c0-.261.089-.48.266-.658a.916.916 0 0 1 .672-.28c.252 0 .467.094.644.28.187.178.28.397.28.658a.9.9 0 0 1-.28.658.877.877 0 0 1-.644.266ZM15.73 61.154c-.486 0-.934-.121-1.345-.364a3.438 3.438 0 0 1-1.022-.952l.896-.686c.187.262.397.476.63.644a1.5 1.5 0 0 0 .84.238c.523 0 .934-.172 1.232-.518.308-.354.523-.835.644-1.442.13-.616.196-1.32.196-2.114a1.8 1.8 0 0 1-.742.728 2.18 2.18 0 0 1-1.036.252 2.71 2.71 0 0 1-1.344-.336 2.602 2.602 0 0 1-.966-.994c-.233-.43-.35-.942-.35-1.54 0-.588.112-1.11.336-1.568.224-.457.537-.816.938-1.078.402-.261.868-.392 1.4-.392.41 0 .798.075 1.162.224.364.15.682.406.952.77.27.364.48.864.63 1.498.15.626.215 1.419.196 2.38-.037 1.82-.331 3.15-.882 3.99-.55.84-1.34 1.26-2.366 1.26Zm.321-5.292c.486 0 .882-.177 1.19-.532.308-.364.439-.816.392-1.358-.046-.578-.205-1.017-.476-1.316-.261-.308-.611-.462-1.05-.462-.485 0-.863.182-1.134.546-.261.364-.392.808-.392 1.33 0 .532.136.966.406 1.302.27.327.626.49 1.064.49ZM154 55a7 7 0 1 1-14 0 7 7 0 0 1 14 0ZM198 55a7 7 0 1 1-14 0 7 7 0 0 1 14 0ZM286 55a7 7 0 1 1-14 0 7 7 0 0 1 14 0ZM330 55a7 7 0 1 1-14 0 7 7 0 0 1 14 0ZM418 55a7 7 0 1 1-14 0 7 7 0 0 1 14 0Z"/><path fill="#fff" fill-rule="evenodd" d="M239 55h-8v-1h8v1Z" clip-rule="evenodd"/><path fill="#fff" d="m366.5 48 7.361 12.75h-14.722L366.5 48Z"/><path fill="#fff" fill-rule="evenodd" d="M430 28H0v-1h430v1Z" clip-rule="evenodd"/><path fill="#fff" d="M65.318 12.965a5.902 5.902 0 0 0-.112-.644 3.431 3.431 0 0 0-.168-.574h1.008c.196 0 .331-.033.406-.098.084-.075.126-.196.126-.364V5.307h-3.962V.715h5.222V11.69c0 .43-.117.746-.35.952-.224.214-.593.322-1.106.322h-1.064Zm-9.142.028V.715h5.208v4.592h-3.962v7.686h-1.246Zm3.276-1.484V6.343h5.082v5.166h-5.082Zm1.176-.98h2.744V9.367h-2.744v1.162Zm0-2.058h2.744V7.323h-2.744V8.47Zm-3.206-4.13h2.744v-.91h-2.744v.91Zm6.412 0h2.744v-.91h-2.744v.91Zm-6.412-1.778h2.744V1.68h-2.744v.882Zm6.412 0h2.744V1.68h-2.744v.882ZM49.959 13.063a4.447 4.447 0 0 0-.127-.658 4.66 4.66 0 0 0-.168-.602H50.7c.197 0 .336-.033.42-.098.085-.065.127-.191.127-.378V8.443h-4.635V7.309h4.634v-1.47h-4.942V4.69h3.206V3.22H46.74V2.059h2.772V.295h1.33v1.764h2.925V3.22h-2.925v1.47h3.527v1.148h-1.82v1.47h1.582v1.134h-1.582v3.29c0 .43-.126.756-.378.98-.252.233-.639.35-1.162.35h-1.05Zm-7.897-2.422V1.457h3.907v9.184h-3.907Zm1.19-1.148h1.526V6.58h-1.526v2.912Zm0-4.06h1.526V2.605h-1.526v2.828Zm5.866 5.768a6.064 6.064 0 0 0-.587-.672 12.268 12.268 0 0 0-.715-.686 6.267 6.267 0 0 0-.658-.518l.77-.854c.225.159.467.345.729.56.26.215.508.43.742.644.242.215.438.415.587.602-.065.056-.163.15-.293.28-.122.13-.238.257-.35.378-.113.121-.187.21-.225.266ZM33.79 13.063a3.205 3.205 0 0 0-.098-.574 2.932 2.932 0 0 0-.154-.518h.854c.186 0 .317-.028.392-.084.084-.065.126-.186.126-.364v-1.498H32.6V7.38c-.196.15-.402.299-.616.448-.215.14-.434.28-.658.42a3.283 3.283 0 0 0-.294-.378c-.131-.15-.252-.27-.364-.364-.094 1.102-.308 2.096-.644 2.982a7.396 7.396 0 0 1-1.372 2.338 4.427 4.427 0 0 0-.462-.35 2.489 2.489 0 0 0-.518-.266 5.928 5.928 0 0 0 1.232-1.988c.289-.746.48-1.591.574-2.534a18.452 18.452 0 0 1-1.736.854l-.392-1.19.7-.266.812-.336c.28-.121.508-.228.686-.322V1.485h4.536V.281h1.274v1.204h4.704v1.05h-9.338v3.5a15.82 15.82 0 0 1-.056 1.4 9.143 9.143 0 0 0 1.68-1.19 11.292 11.292 0 0 0-.532-.448 6.709 6.709 0 0 0-.532-.406l.658-.672c.158.112.336.248.532.406.196.15.378.299.546.448.149-.158.284-.326.406-.504.13-.177.252-.354.364-.532h-2.786v-.966h3.276c.074-.158.135-.322.182-.49.056-.168.102-.34.14-.518l1.106.182c-.038.14-.08.28-.126.42-.047.14-.094.276-.14.406h4.578v.966H36.8c.158.206.326.402.504.588.177.178.364.35.56.518.336-.308.653-.648.952-1.022l.826.588c-.14.15-.3.313-.476.49-.178.178-.36.346-.546.504.634.43 1.306.775 2.016 1.036-.103.075-.224.215-.364.42-.131.206-.234.374-.308.504-.29-.13-.574-.27-.854-.42a8.92 8.92 0 0 1-.812-.49v2.772h-2.254v1.834c0 .803-.462 1.204-1.386 1.204h-.868Zm5.796-.238a8.8 8.8 0 0 1-1.47-.84c-.495-.354-.92-.7-1.274-1.036l.77-.728c.336.318.75.63 1.246.938.494.299.96.537 1.4.714a2.401 2.401 0 0 0-.392.462c-.14.215-.234.378-.28.49Zm-8.288 0a1.788 1.788 0 0 0-.168-.308 6.665 6.665 0 0 0-.252-.378 1.408 1.408 0 0 0-.252-.266c.448-.186.914-.424 1.4-.714.485-.29.9-.602 1.246-.938l.77.728a9.962 9.962 0 0 1-2.744 1.876Zm-2.8-7.028a6.983 6.983 0 0 0-.322-.7c-.131-.28-.271-.555-.42-.826a5.6 5.6 0 0 0-.406-.7l.952-.504c.112.168.242.383.392.644.149.262.294.532.434.812.149.28.27.532.364.756-.075.028-.178.08-.308.154l-.392.196c-.122.066-.22.122-.294.168Zm5.46.308h2.912c-.476-.457-.901-.98-1.274-1.568h-.574a8.02 8.02 0 0 1-.49.826c-.178.252-.37.5-.574.742Zm-.154 3.024h3.29v-.714h-3.29v.714Zm0-1.484h3.29v-.672h-3.29v.672ZM14.175 12.7V8.766h3.878V12.7h-3.878Zm4.816-7.168a1.396 1.396 0 0 0-.238-.266 5.51 5.51 0 0 0-.336-.308 2.534 2.534 0 0 0-.294-.238 6.934 6.934 0 0 0 1.12-.896 11.81 11.81 0 0 0 1.022-1.134c.327-.411.616-.822.868-1.232.262-.411.472-.794.63-1.148l1.12.196a9.047 9.047 0 0 0 1.008 1.54c.41.504.864.97 1.358 1.4.495.429 1.004.784 1.526 1.064a2.26 2.26 0 0 0-.28.266c-.102.12-.205.247-.308.378a3.54 3.54 0 0 0-.21.322 9.34 9.34 0 0 1-1.372-.994c-.466-.411-.9-.86-1.302-1.344a10.4 10.4 0 0 1-1.022-1.498 9.55 9.55 0 0 1-.854 1.4c-.336.466-.714.914-1.134 1.344a9.98 9.98 0 0 1-1.302 1.148Zm.238 7.504a5.23 5.23 0 0 0-.28-.532 2.732 2.732 0 0 0-.336-.49c.878-.243 1.74-.58 2.59-1.008a14.77 14.77 0 0 0 2.366-1.498 10.545 10.545 0 0 0 1.82-1.75l.882.714a11.365 11.365 0 0 1-1.918 1.932 14.29 14.29 0 0 1-2.436 1.568c-.868.448-1.764.802-2.688 1.064Zm.588-2.744a8.096 8.096 0 0 0-.322-.49 2.11 2.11 0 0 0-.406-.462c.598-.215 1.2-.504 1.806-.868.616-.364 1.19-.766 1.722-1.204.542-.44.99-.873 1.344-1.302l.882.728a10.17 10.17 0 0 1-1.386 1.372c-.541.448-1.124.868-1.75 1.26-.625.382-1.255.704-1.89.966Zm-.49-2.226a4.46 4.46 0 0 0-.35-.448 3.038 3.038 0 0 0-.392-.42A10.494 10.494 0 0 0 20.84 5.84c.71-.551 1.307-1.125 1.792-1.722l.84.714a11.188 11.188 0 0 1-1.806 1.764c-.7.55-1.48 1.04-2.338 1.47Zm-5.796-4.172V2.872H18.6v1.022h-5.068Zm.672-1.96V.884h3.766v1.05h-3.766Zm0 5.88V6.792h3.766v1.022h-3.766Zm0-1.96V4.832h3.766v1.022h-3.766Zm1.092 5.81h1.624V9.788h-1.624v1.876ZM141.918 13.063a3.587 3.587 0 0 0-.462-.462 2.522 2.522 0 0 0-.546-.392c.831-.579 1.451-1.302 1.862-2.17.411-.868.616-1.965.616-3.29V.785h7.602v10.808c0 .905-.532 1.358-1.596 1.358h-1.134a5.807 5.807 0 0 0-.126-.7 3.336 3.336 0 0 0-.182-.63h1.148c.205 0 .35-.033.434-.098.084-.075.126-.21.126-.406V8.261h-5.054c-.131 1.092-.42 2.02-.868 2.786-.439.765-1.045 1.438-1.82 2.016Zm2.772-5.992h4.97V5.125h-4.956v1.61c0 .056-.005.112-.014.168v.168Zm.014-3.15h4.956V2.003h-4.956v1.918ZM185.386 12.937a5.268 5.268 0 0 0-.322-.588 5.429 5.429 0 0 0-.378-.532c1.904-.672 3.318-1.647 4.242-2.926.924-1.288 1.386-2.81 1.386-4.564V.45h1.358v4.186c.018.962.182 1.825.49 2.59a6.787 6.787 0 0 0 1.274 2.016 8.5 8.5 0 0 0 1.834 1.484c.681.41 1.395.742 2.142.994a2.418 2.418 0 0 0-.294.336 6.742 6.742 0 0 0-.308.476 3.75 3.75 0 0 0-.196.364 11.322 11.322 0 0 1-1.68-.798 10.101 10.101 0 0 1-1.624-1.162 8.128 8.128 0 0 1-1.358-1.526 6.64 6.64 0 0 1-.896-1.89c-.402 1.195-1.088 2.264-2.058 3.206-.971.934-2.175 1.67-3.612 2.212Zm8.764-5.6a2.785 2.785 0 0 0-.336-.238 6.826 6.826 0 0 0-.434-.266 1.805 1.805 0 0 0-.364-.196c.205-.214.429-.494.672-.84.252-.345.494-.718.728-1.12.233-.401.443-.784.63-1.148.186-.373.326-.686.42-.938l1.26.532c-.122.299-.285.64-.49 1.022-.206.374-.43.756-.672 1.148a20 20 0 0 1-.728 1.134 11.16 11.16 0 0 1-.686.91Zm-7.448.392a2.164 2.164 0 0 0-.35-.196 7.812 7.812 0 0 0-.49-.21 2.37 2.37 0 0 0-.406-.126c.168-.252.336-.57.504-.952.177-.392.34-.802.49-1.232.158-.43.289-.84.392-1.232.102-.401.168-.737.196-1.008l1.316.294a7.231 7.231 0 0 1-.238 1.092c-.122.41-.262.84-.42 1.288-.159.439-.327.859-.504 1.26a9.81 9.81 0 0 1-.49 1.022ZM233.025 13.021a9.082 9.082 0 0 0-.098-.644 4.851 4.851 0 0 0-.154-.63h1.176c.196 0 .336-.032.42-.098.084-.065.126-.191.126-.378V.323h1.232v2.66c.205.85.522 1.685.952 2.506.354-.28.718-.588 1.092-.924.373-.336.732-.672 1.078-1.008.354-.345.658-.662.91-.952l.966.84c-.28.299-.616.63-1.008.994a28.8 28.8 0 0 1-1.218 1.064c-.42.355-.831.682-1.232.98.541.84 1.171 1.615 1.89 2.324.718.7 1.488 1.293 2.31 1.778a1.858 1.858 0 0 0-.322.308c-.122.13-.238.266-.35.406-.112.14-.201.257-.266.35-.962-.634-1.862-1.446-2.702-2.436a15.431 15.431 0 0 1-2.1-3.262v5.74c0 .887-.514 1.33-1.54 1.33h-1.162Zm-3.626-1.26a9.826 9.826 0 0 0-.448-.476 2.526 2.526 0 0 0-.476-.406c.7-.485 1.32-1.05 1.862-1.694a9.92 9.92 0 0 0 1.33-2.072 7.262 7.262 0 0 0 .658-2.128h-3.276V3.81h4.62c-.122 1.727-.56 3.267-1.316 4.62a10.265 10.265 0 0 1-2.954 3.332ZM278.369 12.98V5.826c-.401.7-.872 1.39-1.414 2.072a20.702 20.702 0 0 1-1.722 1.89 16.806 16.806 0 0 1-1.806 1.554 2.127 2.127 0 0 0-.266-.308 4.502 4.502 0 0 0-.378-.364 2.097 2.097 0 0 0-.336-.266c.495-.308.994-.681 1.498-1.12.504-.439.994-.92 1.47-1.442.486-.523.934-1.06 1.344-1.61.411-.55.761-1.087 1.05-1.61h-4.816v-1.19h5.376V.338h1.274v3.094h5.362v1.19h-4.83c.392.663.873 1.344 1.442 2.044.57.69 1.195 1.358 1.876 2.002a18.513 18.513 0 0 0 2.114 1.708c-.093.056-.21.15-.35.28-.13.121-.256.252-.378.392-.121.13-.21.238-.266.322a21.285 21.285 0 0 1-1.876-1.624 23.6 23.6 0 0 1-1.708-1.904 20.186 20.186 0 0 1-1.386-2.016v7.154h-1.274ZM317.092 12.574v-1.12h5.236V8.29h-4.298V7.128h4.298V5.686h-2.506V4.538h6.356v1.148h-2.492v1.442h4.256V8.29h-4.256v3.164h5.152v1.12h-11.746Zm-.168-6.454a5.751 5.751 0 0 0-.308-.518 2.502 2.502 0 0 0-.434-.56c.578-.206 1.18-.49 1.806-.854a16.861 16.861 0 0 0 1.806-1.246 15.802 15.802 0 0 0 1.582-1.4c.466-.476.83-.93 1.092-1.358l1.218.196c.345.494.756.97 1.232 1.428a15.7 15.7 0 0 0 1.554 1.26 16.045 16.045 0 0 0 3.332 1.764c-.094.093-.196.219-.308.378a13.3 13.3 0 0 0-.322.476c-.094.149-.164.27-.21.364a20.03 20.03 0 0 1-1.54-.784 19.95 19.95 0 0 1-1.624-1.064 16.628 16.628 0 0 1-1.54-1.26 8.84 8.84 0 0 1-1.218-1.4c-.29.392-.672.807-1.148 1.246-.467.429-.985.858-1.554 1.288-.57.42-1.148.807-1.736 1.162-.588.354-1.148.648-1.68.882Zm8.862 5.25-1.064-.546c.214-.327.438-.714.672-1.162.242-.448.429-.854.56-1.218l1.148.49a13.422 13.422 0 0 1-.84 1.652c-.168.289-.327.55-.476.784Zm-5.6 0a5.546 5.546 0 0 0-.378-.728c-.168-.29-.346-.57-.532-.84-.187-.28-.364-.5-.532-.658l1.05-.63c.27.317.532.667.784 1.05.252.382.48.765.686 1.148l-1.078.658ZM360.643 12.35v-1.218h5.684V5.868h-4.718V4.65h4.718V.562h1.358V4.65h4.76v1.218h-4.76v5.264h5.712v1.218h-12.754ZM406.771 12.083V1.275h8.456v10.808h-8.456Zm1.358-1.232h5.74V7.17h-5.74v3.682Zm0-4.872h5.74V2.507h-5.74V5.98Z"/></svg>