<svg xmlns="http://www.w3.org/2000/svg" width="550" height="220" fill="none"><g filter="url(#a)"><path fill="#FCFAEC" d="M10 30c0-11.046 8.954-20 20-20h520v200H30c-11.046 0-20-8.954-20-20V30Z"/></g><g filter="url(#b)"><path fill="#fff" d="M60 70h440v77a5 5 0 0 1-5 5H65a5 5 0 0 1-5-5V70Z"/><path fill="#FCEFBE" d="M60 43a5 5 0 0 1 5-5h430a5 5 0 0 1 5 5v27H60V43Z"/></g><path fill="#6C5D47" d="m488.888 179.188-.492-.48a8.047 8.047 0 0 0 1.704-2.376c.408-.872.612-1.836.612-2.892 0-1.056-.204-2.016-.612-2.88a7.994 7.994 0 0 0-1.704-2.388l.492-.48a8.294 8.294 0 0 1 1.861 2.544c.464.968.695 2.036.695 3.204 0 1.168-.231 2.24-.695 3.216a8.339 8.339 0 0 1-1.861 2.532ZM480.657 178.72a2.943 2.943 0 0 0-.372-.492 3.033 3.033 0 0 0-.456-.42c1.072-.456 1.904-1.132 2.496-2.028.6-.896.9-1.968.9-3.216 0-.568-.068-1.012-.204-1.332-.136-.328-.316-.556-.54-.684a1.195 1.195 0 0 0-.744-.168c-.304.024-.596.208-.876.552-.28.336-.492.808-.636 1.416-.136.6-.156 1.312-.06 2.136-.072 0-.18.016-.324.048-.144.024-.28.052-.408.084-.128.024-.22.048-.276.072-.04-.288-.076-.648-.108-1.08a33.66 33.66 0 0 1-.072-1.38 91.527 91.527 0 0 1-.012-1.476c0-.496.008-.956.024-1.38.016-.424.04-.772.072-1.044l1.128.108a7.94 7.94 0 0 0-.132.816c-.032.336-.056.696-.072 1.08-.016.384-.028.752-.036 1.104.168-.576.432-1.056.792-1.44.36-.392.76-.596 1.2-.612.448-.024.856.076 1.224.3.368.224.66.576.876 1.056.216.472.324 1.08.324 1.824 0 1.456-.328 2.692-.984 3.708-.648 1.008-1.556 1.824-2.724 2.448ZM470.29 178.636a2.89 2.89 0 0 0-.18-.48 1.786 1.786 0 0 0-.288-.468c1.032-.144 1.824-.46 2.376-.948.552-.488.828-1.084.828-1.788 0-.472-.132-.868-.396-1.188-.264-.32-.628-.556-1.092-.708-.632 1.192-1.344 2.184-2.136 2.976a8.843 8.843 0 0 0 .336.96c-.144.032-.32.096-.528.192-.2.088-.352.172-.456.252l-.12-.312a4.808 4.808 0 0 0-.108-.312 5.341 5.341 0 0 1-1.344.78c-.44.16-.844.212-1.212.156a1.207 1.207 0 0 1-.456-.18 1.239 1.239 0 0 1-.384-.444c-.096-.2-.144-.46-.144-.78 0-.576.128-1.116.384-1.62.264-.512.62-.968 1.068-1.368.456-.4.972-.716 1.548-.948 0-.272.004-.54.012-.804l.048-.768c-.512.04-.992.068-1.44.084-.448.008-.812 0-1.092-.024l-.096-1.02c.304.032.696.048 1.176.048.488 0 1-.016 1.536-.048.04-.312.08-.608.12-.888.04-.288.084-.556.132-.804l1.032.192a14.297 14.297 0 0 0-.24 1.404c.6-.064 1.176-.144 1.728-.24a8.91 8.91 0 0 0 1.392-.336l.12.972c-.4.12-.9.232-1.5.336-.592.096-1.208.176-1.848.24-.032.432-.056.88-.072 1.344a6.93 6.93 0 0 1 .588-.096 5.032 5.032 0 0 1 .972-.024c.128.008.252.02.372.036a9.42 9.42 0 0 0 .36-.936l.996.288-.168.432a9.888 9.888 0 0 1-.18.432c.672.208 1.208.544 1.608 1.008.4.464.6 1.04.6 1.728 0 .648-.156 1.224-.468 1.728-.312.504-.756.92-1.332 1.248-.576.328-1.26.56-2.052.696Zm-3.384-2.016c.384-.136.836-.428 1.356-.876-.072-.376-.132-.76-.18-1.152-.04-.4-.068-.804-.084-1.212a4.108 4.108 0 0 0-1.428 1.2c-.368.488-.552 1.016-.552 1.584 0 .312.084.488.252.528.176.04.388.016.636-.072Zm2.256-1.776c.232-.28.464-.584.696-.912.24-.328.46-.68.66-1.056a1.187 1.187 0 0 0-.168-.012h-.168c-.408 0-.8.048-1.176.144.008.312.024.624.048.936.032.304.068.604.108.9ZM454.233 178.828V174.1h3.696a4.69 4.69 0 0 0-.288-.336 1.492 1.492 0 0 0-.3-.276c.976-.464 1.628-1.08 1.956-1.848h-1.536v-.852h1.764c.016-.136.028-.272.036-.408.016-.136.024-.28.024-.432v-.06h-1.704v-.876h1.704v-1.02h1.044v1.02h1.884v.876h-1.884v.06c0 .152-.008.296-.024.432-.008.136-.02.272-.036.408h2.34v.852h-1.956c.264.424.608.824 1.032 1.2.432.368.864.644 1.296.828a2.989 2.989 0 0 0-.228.228 5.356 5.356 0 0 0-.276.324c-.08.112-.14.204-.18.276a6.793 6.793 0 0 1-1.332-.996 6.137 6.137 0 0 1-1.08-1.38c-.192.4-.444.764-.756 1.092-.312.32-.692.616-1.14.888h2.712v4.728h-6.768Zm-1.632-4.056c-.04-.072-.1-.164-.18-.276a5.005 5.005 0 0 0-.252-.324 1.51 1.51 0 0 0-.228-.228c.608-.28 1.1-.608 1.476-.984a3.64 3.64 0 0 0 .852-1.32h-1.992v-.852h2.208c.024-.136.04-.272.048-.408.008-.144.012-.292.012-.444v-.048h-1.872v-.876h1.872v-1.02h1.044v1.02h1.548v.876h-1.548v.048a7.787 7.787 0 0 1-.048.852h1.8v.852h-1.56c.208.32.46.632.756.936.304.304.616.552.936.744-.064.04-.152.108-.264.204-.112.088-.22.176-.324.264-.104.088-.18.156-.228.204a6.25 6.25 0 0 1-.828-.744 6.83 6.83 0 0 1-.72-.96c-.464.984-1.3 1.812-2.508 2.484Zm2.712 3.204h4.596v-1.092h-4.596v1.092Zm0-1.932h4.596v-1.092h-4.596v1.092ZM444.946 178.816l-.216-.996a72.095 72.095 0 0 0 1.224-.276v-3.984h-.744c-.16 2.152-.716 3.828-1.668 5.028a1.806 1.806 0 0 0-.264-.204 13.253 13.253 0 0 0-.348-.216 1.44 1.44 0 0 0-.288-.132c.512-.616.9-1.392 1.164-2.328.272-.936.408-2.056.408-3.36v-3.864h6.516v.972h-5.484v3.18h5.652v.924h-2.496c.08.528.22 1.04.42 1.536.256-.152.52-.324.792-.516.28-.2.5-.364.66-.492l.648.72c-.112.08-.268.188-.468.324-.2.128-.412.26-.636.396-.216.136-.416.256-.6.36.248.416.54.804.876 1.164.336.352.724.68 1.164.984-.056.04-.14.108-.252.204-.112.096-.22.192-.324.288a9.5 9.5 0 0 0-.216.24 6.975 6.975 0 0 1-2.016-2.22c-.52-.904-.86-1.9-1.02-2.988h-.48v3.756c.288-.072.552-.14.792-.204.24-.064.42-.12.54-.168v.996c-.168.056-.4.124-.696.204a42.028 42.028 0 0 1-1.92.504 31.45 31.45 0 0 1-.72.168Zm-4.428.048a3.734 3.734 0 0 0-.084-.552 2.526 2.526 0 0 0-.156-.516h.864c.16 0 .276-.028.348-.084.072-.056.108-.16.108-.312v-2.568l-.78.324c-.232.088-.404.152-.516.192l-.288-1.152a25.704 25.704 0 0 0 1.584-.552v-2.34h-1.452v-1.02h1.452v-2.304h1.044v2.304h1.14v1.02h-1.14v1.932l.636-.264c.2-.088.352-.16.456-.216v1.08c-.12.064-.276.144-.468.24l-.624.288v3.42c0 .376-.104.648-.312.816-.208.176-.524.264-.948.264h-.864Zm5.388-7.404v-.924h4.32v.924h-4.32ZM438.298 179.188a8.336 8.336 0 0 1-1.86-2.532c-.464-.976-.696-2.048-.696-3.216 0-1.168.232-2.236.696-3.204a8.29 8.29 0 0 1 1.86-2.544l.492.48a8.289 8.289 0 0 0-1.704 2.388c-.408.864-.612 1.824-.612 2.88 0 1.056.204 2.02.612 2.892a8.347 8.347 0 0 0 1.704 2.376l-.492.48ZM417.969 178.072v-9.264h7.248v9.264h-7.248Zm1.164-1.056h4.92v-3.156h-4.92v3.156Zm0-4.176h4.92v-2.976h-4.92v2.976ZM408.394 178.864a2.237 2.237 0 0 0-.192-.276 3.338 3.338 0 0 0-.264-.324 1.382 1.382 0 0 0-.24-.216c.64-.312 1.132-.672 1.476-1.08.344-.408.58-.908.708-1.5.136-.592.208-1.32.216-2.184h-1.032v-4.716h5.196v4.716h-1.404v4.02c0 .112.024.188.072.228.048.04.144.06.288.06h.468a.8.8 0 0 0 .348-.06c.088-.048.156-.156.204-.324a5.14 5.14 0 0 0 .12-.84c.112.056.268.12.468.192.208.064.38.116.516.156-.048.552-.132.968-.252 1.248-.12.272-.284.456-.492.552-.208.096-.48.144-.816.144h-.912c-.368 0-.636-.064-.804-.192-.16-.12-.24-.328-.24-.624v-4.56h-.72c0 .92-.072 1.728-.216 2.424a4.401 4.401 0 0 1-.804 1.812c-.384.512-.948.96-1.692 1.344Zm-2.352-.012v-4.62c-.24.224-.488.444-.744.66-.248.216-.5.416-.756.6a3.034 3.034 0 0 0-.204-.264 5.356 5.356 0 0 0-.276-.324 1.933 1.933 0 0 0-.24-.228c.328-.208.66-.456.996-.744.344-.288.676-.6.996-.936.32-.336.608-.672.864-1.008.264-.336.476-.656.636-.96h-2.976v-.936h1.68v-2.124h1.056v2.124h1.308l.396.36c-.192.416-.412.82-.66 1.212-.248.392-.512.772-.792 1.14.192.136.4.28.624.432.232.144.46.284.684.42.224.128.416.236.576.324a4.584 4.584 0 0 0-.348.444 3.275 3.275 0 0 0-.288.444c-.2-.136-.432-.292-.696-.468-.264-.176-.524-.36-.78-.552v5.004h-1.056Zm4.092-6.576h3.048v-2.7h-3.048v2.7ZM397.594 174.604a1.151 1.151 0 0 1-1.164-1.164 1.151 1.151 0 0 1 1.164-1.164c.328 0 .604.112.828.336.224.224.336.5.336.828a1.151 1.151 0 0 1-1.164 1.164ZM383.709 178.936a4.234 4.234 0 0 0-.192-.48 2.874 2.874 0 0 0-.264-.456 8.257 8.257 0 0 0 1.644-.48 9.34 9.34 0 0 0 1.488-.78 5.47 5.47 0 0 1-.972-1.236c-.248.28-.504.54-.768.78a7.88 7.88 0 0 1-.792.636 2.857 2.857 0 0 0-.348-.36 3.77 3.77 0 0 0-.384-.324c.336-.208.668-.468.996-.78.336-.32.648-.66.936-1.02.296-.368.552-.728.768-1.08-.44.032-.844.06-1.212.084-.36.024-.636.04-.828.048l-.18-.96c.208 0 .456-.008.744-.024l.936-.048c.24-.216.524-.512.852-.888-.2-.184-.432-.38-.696-.588-.264-.216-.528-.42-.792-.612s-.5-.34-.708-.444l.636-.756c.112.064.232.14.36.228l.396.276c.144-.168.292-.356.444-.564a15.188 15.188 0 0 0 .768-1.212l.888.492c-.176.272-.396.58-.66.924-.256.344-.5.644-.732.9.136.104.268.212.396.324.136.104.256.2.36.288.248-.288.492-.58.732-.876.24-.304.46-.588.66-.852.208-.264.372-.492.492-.684l.888.54c-.152.216-.344.468-.576.756-.224.28-.472.576-.744.888-.264.312-.536.62-.816.924a46 46 0 0 1-.792.84c.432-.04.852-.076 1.26-.108.416-.04.784-.08 1.104-.12a4.679 4.679 0 0 0-.336-.348 4.732 4.732 0 0 0-.312-.288l.708-.624c.216.168.452.388.708.66.264.272.516.548.756.828.24.28.432.528.576.744a3.203 3.203 0 0 0-.264.18l-.336.264c-.104.088-.18.16-.228.216a7.333 7.333 0 0 0-.276-.384 6.861 6.861 0 0 0-.324-.444c-.304.048-.7.1-1.188.156-.48.056-.98.108-1.5.156a23.68 23.68 0 0 1-.228.42c-.08.144-.164.284-.252.42h2.796l.456.372a8.596 8.596 0 0 1-1.8 2.268c.472.288.984.528 1.536.72.552.192 1.136.32 1.752.384a3.525 3.525 0 0 0-.288.504c-.088.2-.16.372-.216.516a8.631 8.631 0 0 1-1.896-.54 7.983 7.983 0 0 1-1.704-.936c-.976.704-2.12 1.224-3.432 1.56Zm-2.016-.156v-4.908c-.4.336-.776.616-1.128.84a1.468 1.468 0 0 0-.192-.264 4.071 4.071 0 0 0-.3-.336 1.615 1.615 0 0 0-.264-.24 7.79 7.79 0 0 0 .9-.624 14.71 14.71 0 0 0 1.02-.888c.344-.328.656-.656.936-.984.288-.328.512-.632.672-.912l.888.588c-.2.304-.424.608-.672.912-.248.304-.512.6-.792.888v5.928h-1.068Zm-.852-7.572a11.69 11.69 0 0 0-.348-.456 1.899 1.899 0 0 0-.372-.384c.344-.168.704-.38 1.08-.636a11.41 11.41 0 0 0 1.08-.84 7.57 7.57 0 0 0 .84-.852l.816.636a9.35 9.35 0 0 1-.936.924c-.368.328-.744.636-1.128.924a9.104 9.104 0 0 1-1.032.684Zm6.348 4.944a5.97 5.97 0 0 0 1.092-1.236h-2.172c.272.44.632.852 1.08 1.236ZM373.029 178.864v-4.5h-4.896v-1.068h4.896v-2.664h-2.124c-.248.4-.512.78-.792 1.14-.28.352-.568.668-.864.948a1.791 1.791 0 0 0-.276-.24 5.853 5.853 0 0 0-.348-.276 1.419 1.419 0 0 0-.276-.18c.264-.24.528-.532.792-.876.272-.344.524-.708.756-1.092.24-.392.448-.776.624-1.152.184-.384.324-.736.42-1.056l1.14.348a8.38 8.38 0 0 1-.276.696c-.096.224-.2.452-.312.684h6.48v1.056h-3.756v2.664h4.824v1.068h-4.824v4.5h-1.188ZM360.766 178.672v-3.756c-.128.144-.26.28-.396.408-.128.128-.26.244-.396.348a2.759 2.759 0 0 0-.264-.276 3.08 3.08 0 0 0-.3-.264v1.68h-2.976v-7.752h2.976v5.856c.304-.232.592-.504.864-.816a8.12 8.12 0 0 0 .72-.984c.216-.344.38-.668.492-.972h-1.44v-.816h2.232v-.732h-2.052v-.756h2.052v-.684h-2.256v-.792h3.18v3.78h-1.668l.84.336a5.871 5.871 0 0 1-.216.456c-.08.152-.168.308-.264.468h1.512c.12-.192.232-.396.336-.612.104-.224.184-.428.24-.612l.936.3a6.737 6.737 0 0 1-.204.444c-.08.16-.164.32-.252.48h2.328v.78h-2.484v.684h2.016v.756h-2.016v.72h2.016v.756h-2.016v.744h2.52v.828h-6.06Zm2.856-6.528v-.816h2.184v-.732h-2.016v-.756h2.016v-.684h-2.208v-.792h3.144v3.78h-3.12Zm-6.276 3.696h1.164v-2.472h-1.164v2.472Zm0-3.444h1.164v-2.364h-1.164v2.364Zm4.44 5.448h1.524v-.744h-1.524v.744Zm0-1.5h1.524v-.72h-1.524v.72Zm0-1.476h1.524v-.684h-1.524v.684ZM345.969 178.072v-9.264h7.248v9.264h-7.248Zm1.164-1.056h4.92v-3.156h-4.92v3.156Zm0-4.176h4.92v-2.976h-4.92v2.976ZM337.594 174.604a1.151 1.151 0 0 1-1.164-1.164 1.151 1.151 0 0 1 1.164-1.164c.328 0 .604.112.828.336.224.224.336.5.336.828a1.151 1.151 0 0 1-1.164 1.164ZM323.709 178.936a4.234 4.234 0 0 0-.192-.48 2.874 2.874 0 0 0-.264-.456 8.257 8.257 0 0 0 1.644-.48 9.34 9.34 0 0 0 1.488-.78 5.47 5.47 0 0 1-.972-1.236c-.248.28-.504.54-.768.78a7.88 7.88 0 0 1-.792.636 2.857 2.857 0 0 0-.348-.36 3.77 3.77 0 0 0-.384-.324c.336-.208.668-.468.996-.78.336-.32.648-.66.936-1.02.296-.368.552-.728.768-1.08-.44.032-.844.06-1.212.084-.36.024-.636.04-.828.048l-.18-.96c.208 0 .456-.008.744-.024l.936-.048c.24-.216.524-.512.852-.888-.2-.184-.432-.38-.696-.588-.264-.216-.528-.42-.792-.612s-.5-.34-.708-.444l.636-.756c.112.064.232.14.36.228l.396.276c.144-.168.292-.356.444-.564a15.188 15.188 0 0 0 .768-1.212l.888.492c-.176.272-.396.58-.66.924-.256.344-.5.644-.732.9.136.104.268.212.396.324.136.104.256.2.36.288.248-.288.492-.58.732-.876.24-.304.46-.588.66-.852.208-.264.372-.492.492-.684l.888.54c-.152.216-.344.468-.576.756-.224.28-.472.576-.744.888-.264.312-.536.62-.816.924a46 46 0 0 1-.792.84c.432-.04.852-.076 1.26-.108.416-.04.784-.08 1.104-.12a4.679 4.679 0 0 0-.336-.348 4.732 4.732 0 0 0-.312-.288l.708-.624c.216.168.452.388.708.66.264.272.516.548.756.828.24.28.432.528.576.744a3.203 3.203 0 0 0-.264.18l-.336.264c-.104.088-.18.16-.228.216a7.333 7.333 0 0 0-.276-.384 6.861 6.861 0 0 0-.324-.444c-.304.048-.7.1-1.188.156-.48.056-.98.108-1.5.156a23.68 23.68 0 0 1-.228.42c-.08.144-.164.284-.252.42h2.796l.456.372a8.596 8.596 0 0 1-1.8 2.268c.472.288.984.528 1.536.72.552.192 1.136.32 1.752.384a3.525 3.525 0 0 0-.288.504c-.088.2-.16.372-.216.516a8.631 8.631 0 0 1-1.896-.54 7.983 7.983 0 0 1-1.704-.936c-.976.704-2.12 1.224-3.432 1.56Zm-2.016-.156v-4.908c-.4.336-.776.616-1.128.84a1.468 1.468 0 0 0-.192-.264 4.071 4.071 0 0 0-.3-.336 1.615 1.615 0 0 0-.264-.24 7.79 7.79 0 0 0 .9-.624 14.71 14.71 0 0 0 1.02-.888c.344-.328.656-.656.936-.984.288-.328.512-.632.672-.912l.888.588c-.2.304-.424.608-.672.912-.248.304-.512.6-.792.888v5.928h-1.068Zm-.852-7.572a11.69 11.69 0 0 0-.348-.456 1.899 1.899 0 0 0-.372-.384c.344-.168.704-.38 1.08-.636a11.41 11.41 0 0 0 1.08-.84 7.57 7.57 0 0 0 .84-.852l.816.636a9.35 9.35 0 0 1-.936.924c-.368.328-.744.636-1.128.924a9.104 9.104 0 0 1-1.032.684Zm6.348 4.944a5.97 5.97 0 0 0 1.092-1.236h-2.172c.272.44.632.852 1.08 1.236ZM313.029 178.864v-4.5h-4.896v-1.068h4.896v-2.664h-2.124c-.248.4-.512.78-.792 1.14-.28.352-.568.668-.864.948a1.791 1.791 0 0 0-.276-.24 5.853 5.853 0 0 0-.348-.276 1.419 1.419 0 0 0-.276-.18c.264-.24.528-.532.792-.876.272-.344.524-.708.756-1.092.24-.392.448-.776.624-1.152.184-.384.324-.736.42-1.056l1.14.348a8.38 8.38 0 0 1-.276.696c-.096.224-.2.452-.312.684h6.48v1.056h-3.756v2.664h4.824v1.068h-4.824v4.5h-1.188ZM300.766 178.672v-3.756c-.128.144-.26.28-.396.408-.128.128-.26.244-.396.348a2.759 2.759 0 0 0-.264-.276 3.08 3.08 0 0 0-.3-.264v1.68h-2.976v-7.752h2.976v5.856c.304-.232.592-.504.864-.816a8.12 8.12 0 0 0 .72-.984c.216-.344.38-.668.492-.972h-1.44v-.816h2.232v-.732h-2.052v-.756h2.052v-.684h-2.256v-.792h3.18v3.78h-1.668l.84.336a5.871 5.871 0 0 1-.216.456c-.08.152-.168.308-.264.468h1.512c.12-.192.232-.396.336-.612.104-.224.184-.428.24-.612l.936.3a6.737 6.737 0 0 1-.204.444c-.08.16-.164.32-.252.48h2.328v.78h-2.484v.684h2.016v.756h-2.016v.72h2.016v.756h-2.016v.744h2.52v.828h-6.06Zm2.856-6.528v-.816h2.184v-.732h-2.016v-.756h2.016v-.684h-2.208v-.792h3.144v3.78h-3.12Zm-6.276 3.696h1.164v-2.472h-1.164v2.472Zm0-3.444h1.164v-2.364h-1.164v2.364Zm4.44 5.448h1.524v-.744h-1.524v.744Zm0-1.5h1.524v-.72h-1.524v.72Zm0-1.476h1.524v-.684h-1.524v.684ZM284.145 178.3v-1.044h4.872v-4.512h-4.044V171.7h4.044v-3.504h1.164v3.504h4.08v1.044h-4.08v4.512h4.896v1.044h-10.932ZM277.594 174.604a1.151 1.151 0 0 1-1.164-1.164 1.151 1.151 0 0 1 1.164-1.164c.328 0 .604.112.828.336.224.224.336.5.336.828a1.151 1.151 0 0 1-1.164 1.164ZM264.766 178.672v-3.756c-.128.144-.26.28-.396.408-.128.128-.26.244-.396.348a2.759 2.759 0 0 0-.264-.276 3.08 3.08 0 0 0-.3-.264v1.68h-2.976v-7.752h2.976v5.856c.304-.232.592-.504.864-.816a8.12 8.12 0 0 0 .72-.984c.216-.344.38-.668.492-.972h-1.44v-.816h2.232v-.732h-2.052v-.756h2.052v-.684h-2.256v-.792h3.18v3.78h-1.668l.84.336a5.871 5.871 0 0 1-.216.456c-.08.152-.168.308-.264.468h1.512c.12-.192.232-.396.336-.612.104-.224.184-.428.24-.612l.936.3a6.737 6.737 0 0 1-.204.444c-.08.16-.164.32-.252.48h2.328v.78h-2.484v.684h2.016v.756h-2.016v.72h2.016v.756h-2.016v.744h2.52v.828h-6.06Zm2.856-6.528v-.816h2.184v-.732h-2.016v-.756h2.016v-.684h-2.208v-.792h3.144v3.78h-3.12Zm-6.276 3.696h1.164v-2.472h-1.164v2.472Zm0-3.444h1.164v-2.364h-1.164v2.364Zm4.44 5.448h1.524v-.744h-1.524v.744Zm0-1.5h1.524v-.72h-1.524v.72Zm0-1.476h1.524v-.684h-1.524v.684ZM251.902 178.876a7.314 7.314 0 0 0-.084-.552 4.112 4.112 0 0 0-.132-.54h1.008c.168 0 .288-.028.36-.084.072-.056.108-.164.108-.324v-9.384h1.056v2.28c.176.728.448 1.444.816 2.148.304-.24.616-.504.936-.792.32-.288.628-.576.924-.864a13.9 13.9 0 0 0 .78-.816l.828.72c-.24.256-.528.54-.864.852a24.34 24.34 0 0 1-1.044.912c-.36.304-.712.584-1.056.84.464.72 1.004 1.384 1.62 1.992.616.6 1.276 1.108 1.98 1.524-.08.056-.172.144-.276.264a6.239 6.239 0 0 0-.528.648c-.824-.544-1.596-1.24-2.316-2.088a13.25 13.25 0 0 1-1.8-2.796v4.92c0 .76-.44 1.14-1.32 1.14h-.996Zm-3.108-1.08a7.993 7.993 0 0 0-.384-.408 2.153 2.153 0 0 0-.408-.348c.6-.416 1.132-.9 1.596-1.452a8.469 8.469 0 0 0 1.14-1.776 6.2 6.2 0 0 0 .564-1.824h-2.808v-1.008h3.96c-.104 1.48-.48 2.8-1.128 3.96a8.796 8.796 0 0 1-2.532 2.856ZM238.763 178.132a.786.786 0 0 1-.576-.24.792.792 0 0 1-.228-.564c0-.216.076-.404.228-.564.16-.16.352-.24.576-.24.224 0 .412.08.564.24.16.16.24.348.24.564 0 .216-.08.404-.24.564a.747.747 0 0 1-.564.24Zm7.068 0a.747.747 0 0 1-.564-.24.792.792 0 0 1-.228-.564c0-.216.076-.404.228-.564.152-.16.34-.24.564-.24.224 0 .412.08.564.24.16.16.24.348.24.564 0 .216-.08.404-.24.564a.747.747 0 0 1-.564.24Zm-3.528 0a.786.786 0 0 1-.576-.24.792.792 0 0 1-.228-.564c0-.216.076-.404.228-.564.16-.16.352-.24.576-.24.216 0 .4.08.552.24.16.16.24.348.24.564 0 .216-.08.404-.24.564a.733.733 0 0 1-.552.24ZM227.375 178.072v-9.264h7.248v9.264h-7.248Zm1.164-1.056h4.92v-3.156h-4.92v3.156Zm0-4.176h4.92v-2.976h-4.92v2.976ZM214.007 178.6v-3.372h3.324v3.372h-3.324Zm4.128-6.144a1.195 1.195 0 0 0-.204-.228 4.706 4.706 0 0 0-.288-.264 2.172 2.172 0 0 0-.252-.204c.328-.208.648-.464.96-.768.312-.304.604-.628.876-.972.28-.352.528-.704.744-1.056.224-.352.404-.68.54-.984l.96.168c.224.44.512.88.864 1.32.352.432.74.832 1.164 1.2.424.368.86.672 1.308.912a1.933 1.933 0 0 0-.24.228c-.088.104-.176.212-.264.324-.08.112-.14.204-.18.276a8.009 8.009 0 0 1-1.176-.852c-.4-.352-.772-.736-1.116-1.152a8.918 8.918 0 0 1-.876-1.284 8.19 8.19 0 0 1-.732 1.2c-.288.4-.612.784-.972 1.152a8.55 8.55 0 0 1-1.116.984Zm.204 6.432a4.474 4.474 0 0 0-.24-.456 2.337 2.337 0 0 0-.288-.42 12.015 12.015 0 0 0 2.22-.864 12.656 12.656 0 0 0 2.028-1.284 9.04 9.04 0 0 0 1.56-1.5l.756.612a9.739 9.739 0 0 1-1.644 1.656c-.64.512-1.336.96-2.088 1.344-.744.384-1.512.688-2.304.912Zm.504-2.352a6.909 6.909 0 0 0-.276-.42 1.807 1.807 0 0 0-.348-.396 8.801 8.801 0 0 0 1.548-.744c.528-.312 1.02-.656 1.476-1.032a8.116 8.116 0 0 0 1.152-1.116l.756.624a8.71 8.71 0 0 1-1.188 1.176c-.464.384-.964.744-1.5 1.08-.536.328-1.076.604-1.62.828Zm-.42-1.908a3.815 3.815 0 0 0-.3-.384 2.599 2.599 0 0 0-.336-.36 8.993 8.993 0 0 0 1.932-1.164 9.36 9.36 0 0 0 1.536-1.476l.72.612a9.59 9.59 0 0 1-1.548 1.512c-.6.472-1.268.892-2.004 1.26Zm-4.968-3.576v-.876h4.344v.876h-4.344Zm.576-1.68v-.9h3.228v.9h-3.228Zm0 5.04v-.876h3.228v.876h-3.228Zm0-1.68v-.876h3.228v.876h-3.228Zm.936 4.98h1.392v-1.608h-1.392v1.608ZM207.9 178.888v-5.496c-.272.48-.58.952-.924 1.416-.344.456-.692.884-1.044 1.284-.352.4-.688.744-1.008 1.032a2.023 2.023 0 0 0-.324-.324 4.802 4.802 0 0 0-.396-.324v2.4h-1.092v-6.408c-.184.264-.372.512-.564.744a9.015 9.015 0 0 1-.552.636 2.41 2.41 0 0 0-.384-.348 2.269 2.269 0 0 0-.432-.276c.232-.224.472-.5.72-.828.248-.336.488-.7.72-1.092.24-.392.46-.788.66-1.188.208-.408.384-.796.528-1.164.144-.368.244-.688.3-.96l1.056.3c-.104.368-.24.752-.408 1.152-.16.392-.344.788-.552 1.188v5.676c.288-.248.596-.552.924-.912a17.244 17.244 0 0 0 1.848-2.448c.272-.424.492-.824.66-1.2h-2.784v-1.02h3.048v-2.724h1.08v2.724h3.168v1.02h-2.964c.168.384.392.792.672 1.224.28.432.588.86.924 1.284.336.416.672.808 1.008 1.176.344.36.66.66.948.9-.072.04-.168.108-.288.204a5.75 5.75 0 0 0-.324.3c-.104.096-.184.18-.24.252a15.347 15.347 0 0 1-.996-1.02c-.344-.4-.68-.828-1.008-1.284a19.11 19.11 0 0 1-.9-1.368v5.472h-1.08ZM145.068 138.154c-1.064 0-1.801-.415-2.212-1.246-.41-.831-.616-2.1-.616-3.808 0-1.708.206-2.977.616-3.808.411-.84 1.148-1.26 2.212-1.26 1.055 0 1.788.42 2.198 1.26.411.831.616 2.1.616 3.808 0 1.708-.205 2.977-.616 3.808-.41.831-1.143 1.246-2.198 1.246Zm0-1.162c.392 0 .705-.117.938-.35.243-.243.416-.649.518-1.218.112-.569.168-1.344.168-2.324 0-.989-.056-1.769-.168-2.338-.102-.569-.275-.971-.518-1.204-.233-.243-.546-.364-.938-.364-.382 0-.695.121-.938.364-.242.233-.42.635-.532 1.204-.112.569-.168 1.349-.168 2.338 0 .98.056 1.755.168 2.324.112.569.29.975.532 1.218.243.233.556.35.938.35ZM138.027 138.154c-1.064 0-1.801-.415-2.212-1.246-.41-.831-.616-2.1-.616-3.808 0-1.708.206-2.977.616-3.808.411-.84 1.148-1.26 2.212-1.26 1.055 0 1.788.42 2.198 1.26.411.831.616 2.1.616 3.808 0 1.708-.205 2.977-.616 3.808-.41.831-1.143 1.246-2.198 1.246Zm0-1.162c.392 0 .705-.117.938-.35.243-.243.416-.649.518-1.218.112-.569.168-1.344.168-2.324 0-.989-.056-1.769-.168-2.338-.102-.569-.275-.971-.518-1.204-.233-.243-.546-.364-.938-.364-.382 0-.695.121-.938.364-.242.233-.42.635-.532 1.204-.112.569-.168 1.349-.168 2.338 0 .98.056 1.755.168 2.324.112.569.29.975.532 1.218.243.233.556.35.938.35ZM132.75 132.974a.944.944 0 0 1-.672-.266.944.944 0 0 1-.266-.672c0-.261.089-.481.266-.658a.944.944 0 0 1 .672-.266c.252 0 .467.089.645.266a.873.873 0 0 1 .279.658.92.92 0 0 1-.279.672.882.882 0 0 1-.645.266Zm0 5.18a.944.944 0 0 1-.672-.266.926.926 0 0 1-.266-.658c0-.261.089-.481.266-.658a.916.916 0 0 1 .672-.28c.252 0 .467.093.645.28a.873.873 0 0 1 .279.658.903.903 0 0 1-.279.658.882.882 0 0 1-.645.266ZM127.044 138.154c-.486 0-.934-.121-1.344-.364a3.423 3.423 0 0 1-1.022-.952l.896-.686c.186.261.396.476.63.644.242.159.522.238.84.238.522 0 .933-.173 1.232-.518.308-.355.522-.835.644-1.442.13-.616.196-1.321.196-2.114a1.802 1.802 0 0 1-.742.728 2.183 2.183 0 0 1-1.036.252c-.495 0-.943-.112-1.344-.336a2.594 2.594 0 0 1-.966-.994c-.234-.429-.35-.943-.35-1.54 0-.588.112-1.111.336-1.568.224-.457.536-.817.938-1.078.401-.261.868-.392 1.4-.392.41 0 .798.075 1.162.224.364.149.681.406.952.77.27.364.48.863.63 1.498.149.625.214 1.419.196 2.38-.038 1.82-.332 3.15-.882 3.99-.551.84-1.34 1.26-2.366 1.26Zm.322-5.292c.485 0 .882-.177 1.19-.532.308-.364.438-.817.392-1.358-.047-.579-.206-1.017-.476-1.316-.262-.308-.612-.462-1.05-.462-.486 0-.864.182-1.134.546-.262.364-.392.807-.392 1.33 0 .532.135.966.406 1.302.27.327.625.49 1.064.49ZM121.298 138v-8.274l-1.848 1.176-.63-1.008 2.758-1.722h.91V138h-1.19ZM114.327 134.22c-.56 0-1.064-.098-1.512-.294a11.99 11.99 0 0 1-1.246-.672 22.1 22.1 0 0 0-1.19-.672 2.573 2.573 0 0 0-1.232-.308c-.355 0-.682.084-.98.252-.29.159-.546.369-.77.63a5.06 5.06 0 0 0-.56.798l-.952-.644c.42-.672.896-1.199 1.428-1.582a3.01 3.01 0 0 1 1.834-.588c.532 0 1.017.103 1.456.308.448.196.872.415 1.274.658.41.252.812.481 1.204.686.401.196.816.294 1.246.294.364 0 .69-.079.98-.238.289-.168.546-.383.77-.644.224-.261.41-.527.56-.798l.952.644c-.42.672-.896 1.204-1.428 1.596a3.06 3.06 0 0 1-1.834.574ZM101.223 138.154c-1.064 0-1.802-.415-2.213-1.246-.41-.831-.616-2.1-.616-3.808 0-1.708.206-2.977.616-3.808.411-.84 1.149-1.26 2.213-1.26 1.054 0 1.787.42 2.198 1.26.41.831.616 2.1.616 3.808 0 1.708-.206 2.977-.616 3.808-.411.831-1.144 1.246-2.198 1.246Zm0-1.162c.392 0 .704-.117.938-.35.242-.243.415-.649.518-1.218.112-.569.168-1.344.168-2.324 0-.989-.056-1.769-.168-2.338-.103-.569-.276-.971-.518-1.204-.234-.243-.546-.364-.938-.364-.383 0-.696.121-.938.364-.243.233-.42.635-.532 1.204-.112.569-.168 1.349-.168 2.338 0 .98.056 1.755.168 2.324.112.569.289.975.532 1.218.242.233.555.35.938.35ZM94.181 138.154c-1.063 0-1.8-.415-2.212-1.246-.41-.831-.615-2.1-.615-3.808 0-1.708.205-2.977.615-3.808.411-.84 1.149-1.26 2.213-1.26 1.054 0 1.787.42 2.197 1.26.411.831.617 2.1.617 3.808 0 1.708-.206 2.977-.617 3.808-.41.831-1.143 1.246-2.198 1.246Zm0-1.162c.392 0 .705-.117.939-.35.242-.243.415-.649.517-1.218.112-.569.168-1.344.168-2.324 0-.989-.056-1.769-.168-2.338-.102-.569-.275-.971-.517-1.204-.234-.243-.547-.364-.939-.364-.382 0-.695.121-.938.364-.242.233-.42.635-.531 1.204-.112.569-.169 1.349-.169 2.338 0 .98.056 1.755.168 2.324.112.569.29.975.532 1.218.243.233.556.35.939.35ZM88.905 132.974a.943.943 0 0 1-.672-.266.942.942 0 0 1-.266-.672c0-.261.088-.481.266-.658a.943.943 0 0 1 .672-.266c.252 0 .466.089.644.266.186.177.28.397.28.658a.917.917 0 0 1-.28.672.878.878 0 0 1-.644.266Zm0 5.18a.943.943 0 0 1-.672-.266.925.925 0 0 1-.266-.658c0-.261.088-.481.266-.658a.915.915 0 0 1 .672-.28c.252 0 .466.093.644.28.186.177.28.397.28.658a.901.901 0 0 1-.28.658.878.878 0 0 1-.644.266ZM83.672 138.084c-.56 0-1.092-.14-1.596-.42a3.082 3.082 0 0 1-1.162-1.134l1.008-.644c.215.327.467.583.756.77.29.187.62.28.994.28.597 0 1.05-.173 1.358-.518.317-.355.476-.849.476-1.484 0-.616-.14-1.092-.42-1.428-.27-.336-.649-.504-1.134-.504-.29 0-.56.07-.812.21-.243.14-.415.331-.518.574h-1.106V128.2h4.83v1.106H82.72v3.066c.364-.317.78-.476 1.246-.476.523 0 .99.117 1.4.35.41.233.733.579.966 1.036.243.448.364.999.364 1.652 0 1.017-.28 1.797-.84 2.338-.55.541-1.279.812-2.184.812ZM77.562 138v-8.274l-1.848 1.176-.63-1.008 2.758-1.722h.91V138h-1.19Z"/><path fill="#6C5D47" fill-rule="evenodd" d="M300 132h-8v-1h8v1ZM433 132h-8v-1h8v1ZM477 132h-8v-1h8v1Z" clip-rule="evenodd"/><path fill="#FF9A01" d="M215 132a7 7 0 1 1-14 0 7 7 0 0 1 14 0ZM259 132a7 7 0 1 1-14 0 7 7 0 0 1 14 0ZM347 132a7 7 0 1 1-14 0 7 7 0 0 1 14 0ZM391 132a7 7 0 1 1-14 0 7 7 0 0 1 14 0Z"/><path fill="#6C5D47" d="M139.695 97.154c-1.064 0-1.801-.415-2.212-1.246-.41-.83-.616-2.1-.616-3.808 0-1.708.206-2.977.616-3.808.411-.84 1.148-1.26 2.212-1.26 1.055 0 1.788.42 2.198 1.26.411.83.616 2.1.616 3.808 0 1.708-.205 2.977-.616 3.808-.41.83-1.143 1.246-2.198 1.246Zm0-1.162c.392 0 .705-.117.938-.35.243-.243.416-.649.518-1.218.112-.57.168-1.344.168-2.324 0-.99-.056-1.769-.168-2.338-.102-.57-.275-.97-.518-1.204-.233-.243-.546-.364-.938-.364-.382 0-.695.121-.938.364-.242.233-.42.635-.532 1.204-.112.57-.168 1.349-.168 2.338 0 .98.056 1.755.168 2.324.112.57.29.975.532 1.218.243.233.556.35.938.35ZM132.654 97.154c-1.064 0-1.801-.415-2.212-1.246-.41-.83-.616-2.1-.616-3.808 0-1.708.206-2.977.616-3.808.411-.84 1.148-1.26 2.212-1.26 1.055 0 1.788.42 2.198 1.26.411.83.616 2.1.616 3.808 0 1.708-.205 2.977-.616 3.808-.41.83-1.143 1.246-2.198 1.246Zm0-1.162c.392 0 .705-.117.938-.35.243-.243.416-.649.518-1.218.112-.57.168-1.344.168-2.324 0-.99-.056-1.769-.168-2.338-.102-.57-.275-.97-.518-1.204-.233-.243-.546-.364-.938-.364-.382 0-.695.121-.938.364-.242.233-.42.635-.532 1.204-.112.57-.168 1.349-.168 2.338 0 .98.056 1.755.168 2.324.112.57.29.975.532 1.218.243.233.556.35.938.35ZM127.377 91.974a.942.942 0 0 1-.672-.266.943.943 0 0 1-.266-.672c0-.261.089-.48.266-.658a.942.942 0 0 1 .672-.266c.252 0 .467.089.644.266a.87.87 0 0 1 .28.658.915.915 0 0 1-.28.672.877.877 0 0 1-.644.266Zm0 5.18a.942.942 0 0 1-.672-.266.926.926 0 0 1-.266-.658c0-.261.089-.48.266-.658a.917.917 0 0 1 .672-.28c.252 0 .467.093.644.28a.87.87 0 0 1 .28.658.9.9 0 0 1-.28.658.877.877 0 0 1-.644.266ZM121.898 97.154c-.663 0-1.232-.182-1.708-.546-.476-.373-.812-.887-1.008-1.54l1.106-.378a2.3 2.3 0 0 0 .28.602c.13.196.303.364.518.504.214.14.476.21.784.21.56 0 .998-.14 1.316-.42.317-.29.476-.737.476-1.344 0-.55-.173-.994-.518-1.33-.336-.336-.789-.504-1.358-.504h-.574v-1.106h.574c.532 0 .933-.154 1.204-.462.28-.308.42-.7.42-1.176 0-.532-.159-.91-.476-1.134a1.763 1.763 0 0 0-1.064-.336c-.271 0-.504.07-.7.21-.196.14-.36.313-.49.518a2.55 2.55 0 0 0-.294.574l-1.092-.434c.242-.653.597-1.153 1.064-1.498a2.53 2.53 0 0 1 1.54-.518c.821 0 1.484.233 1.988.7.513.457.77 1.083.77 1.876a2.37 2.37 0 0 1-1.428 2.212c.494.177.896.485 1.204.924.308.439.462.947.462 1.526 0 .85-.257 1.54-.77 2.072-.504.532-1.246.798-2.226.798ZM115.83 97v-8.274l-1.848 1.176-.63-1.008 2.758-1.722h.91V97h-1.19ZM108.856 93.22c-.56 0-1.064-.098-1.512-.294-.439-.205-.854-.43-1.246-.672a22.124 22.124 0 0 0-1.19-.672 2.567 2.567 0 0 0-1.232-.308c-.355 0-.681.084-.98.252a2.759 2.759 0 0 0-.77.63 5.127 5.127 0 0 0-.56.798l-.952-.644c.42-.672.896-1.2 1.428-1.582a3.01 3.01 0 0 1 1.834-.588c.532 0 1.017.103 1.456.308.448.196.873.415 1.274.658.411.252.812.48 1.204.686.401.196.817.294 1.246.294.364 0 .691-.08.98-.238.289-.168.546-.383.77-.644.224-.261.411-.527.56-.798l.952.644c-.42.672-.896 1.204-1.428 1.596a3.06 3.06 0 0 1-1.834.574ZM95.754 97.154c-1.064 0-1.802-.415-2.212-1.246-.41-.83-.616-2.1-.616-3.808 0-1.708.205-2.977.616-3.808.41-.84 1.148-1.26 2.212-1.26 1.054 0 1.787.42 2.198 1.26.41.83.616 2.1.616 3.808 0 1.708-.206 2.977-.616 3.808-.41.83-1.144 1.246-2.198 1.246Zm0-1.162c.392 0 .704-.117.938-.35.242-.243.415-.649.518-1.218.112-.57.168-1.344.168-2.324 0-.99-.056-1.769-.168-2.338-.103-.57-.276-.97-.518-1.204-.234-.243-.546-.364-.938-.364-.383 0-.696.121-.938.364-.243.233-.42.635-.532 1.204-.112.57-.168 1.349-.168 2.338 0 .98.056 1.755.168 2.324.112.57.29.975.532 1.218.242.233.555.35.938.35ZM88.713 97.154c-1.064 0-1.802-.415-2.212-1.246-.41-.83-.616-2.1-.616-3.808 0-1.708.205-2.977.616-3.808.41-.84 1.148-1.26 2.212-1.26 1.054 0 1.787.42 2.198 1.26.41.83.616 2.1.616 3.808 0 1.708-.206 2.977-.616 3.808-.41.83-1.144 1.246-2.198 1.246Zm0-1.162c.392 0 .704-.117.938-.35.242-.243.415-.649.518-1.218.112-.57.168-1.344.168-2.324 0-.99-.056-1.769-.168-2.338-.103-.57-.276-.97-.518-1.204-.234-.243-.546-.364-.938-.364-.383 0-.696.121-.938.364-.243.233-.42.635-.532 1.204-.112.57-.168 1.349-.168 2.338 0 .98.056 1.755.168 2.324.112.57.29.975.532 1.218.242.233.555.35.938.35ZM83.436 91.974a.941.941 0 0 1-.672-.266.941.941 0 0 1-.266-.672c0-.261.089-.48.266-.658a.941.941 0 0 1 .672-.266c.252 0 .467.089.644.266.187.177.28.397.28.658a.916.916 0 0 1-.28.672.877.877 0 0 1-.644.266Zm0 5.18a.941.941 0 0 1-.672-.266.924.924 0 0 1-.266-.658c0-.261.089-.48.266-.658a.916.916 0 0 1 .672-.28c.252 0 .467.093.644.28.187.177.28.397.28.658a.9.9 0 0 1-.28.658.877.877 0 0 1-.644.266ZM77.73 97.154c-.486 0-.934-.121-1.345-.364a3.438 3.438 0 0 1-1.022-.952l.896-.686c.187.261.397.476.63.644a1.5 1.5 0 0 0 .84.238c.523 0 .934-.173 1.232-.518.308-.355.523-.835.644-1.442.13-.616.196-1.32.196-2.114a1.8 1.8 0 0 1-.742.728 2.18 2.18 0 0 1-1.036.252 2.71 2.71 0 0 1-1.344-.336 2.603 2.603 0 0 1-.966-.994c-.233-.43-.35-.943-.35-1.54 0-.588.112-1.11.336-1.568.224-.457.537-.817.938-1.078.402-.261.868-.392 1.4-.392.41 0 .798.075 1.162.224.364.15.682.406.952.77.27.364.48.863.63 1.498.15.625.215 1.419.196 2.38-.037 1.82-.331 3.15-.882 3.99-.55.84-1.34 1.26-2.366 1.26Zm.321-5.292c.486 0 .882-.177 1.19-.532.308-.364.439-.817.392-1.358-.046-.579-.205-1.017-.476-1.316-.261-.308-.611-.462-1.05-.462-.485 0-.863.182-1.134.546-.261.364-.392.807-.392 1.33 0 .532.136.966.406 1.302.27.327.626.49 1.064.49Z"/><path fill="#FF9A01" d="M215 91a7 7 0 1 1-14 0 7 7 0 0 1 14 0ZM259 91a7 7 0 1 1-14 0 7 7 0 0 1 14 0ZM347 91a7 7 0 1 1-14 0 7 7 0 0 1 14 0ZM391 91a7 7 0 1 1-14 0 7 7 0 0 1 14 0ZM479 91a7 7 0 1 1-14 0 7 7 0 0 1 14 0Z"/><path fill="#6C5D47" fill-rule="evenodd" d="M300 91h-8v-1h8v1Z" clip-rule="evenodd"/><path fill="#FF9A01" d="m428.5 84 7.361 12.75h-14.722L428.5 84Z"/><path fill="#BEB09C" fill-rule="evenodd" d="M500 111H60v-1h440v1Z" clip-rule="evenodd"/><path fill="#6C5D47" d="M127.318 60.966a5.971 5.971 0 0 0-.112-.644 3.428 3.428 0 0 0-.168-.574h1.008c.196 0 .331-.033.406-.098.084-.075.126-.196.126-.364v-5.978h-3.962v-4.592h5.222v10.976c0 .43-.117.747-.35.952-.224.215-.593.322-1.106.322h-1.064Zm-9.142.028V48.716h5.208v4.592h-3.962v7.686h-1.246Zm3.276-1.484v-5.166h5.082v5.166h-5.082Zm1.176-.98h2.744v-1.162h-2.744v1.162Zm0-2.058h2.744v-1.148h-2.744v1.148Zm-3.206-4.13h2.744v-.91h-2.744v.91Zm6.412 0h2.744v-.91h-2.744v.91Zm-6.412-1.778h2.744v-.882h-2.744v.882Zm6.412 0h2.744v-.882h-2.744v.882ZM111.958 61.064a4.377 4.377 0 0 0-.125-.658 4.656 4.656 0 0 0-.168-.602h1.036c.196 0 .336-.033.42-.098.084-.065.126-.191.126-.378v-2.884h-4.635V55.31h4.635v-1.47h-4.942v-1.148h3.206v-1.47h-2.772V50.06h2.772v-1.764h1.329v1.764h2.927v1.162h-2.927v1.47h3.528v1.148h-1.819v1.47h1.582v1.134h-1.582v3.29c0 .43-.126.756-.378.98-.252.233-.64.35-1.162.35h-1.051Zm-7.896-2.422v-9.184h3.907v9.184h-3.907Zm1.191-1.148h1.526v-2.912h-1.526v2.912Zm0-4.06h1.526v-2.828h-1.526v2.828Zm5.865 5.768a5.989 5.989 0 0 0-.587-.672 12.703 12.703 0 0 0-.714-.686 6.297 6.297 0 0 0-.658-.518l.77-.854c.224.159.466.345.728.56.261.215.508.43.742.644.242.215.438.415.587.602a5.82 5.82 0 0 0-.293.28c-.122.13-.238.257-.35.378-.112.121-.187.21-.225.266ZM95.79 61.064a3.204 3.204 0 0 0-.098-.574 2.932 2.932 0 0 0-.154-.518h.854c.186 0 .317-.028.392-.084.084-.065.126-.187.126-.364v-1.498H94.6V55.38c-.196.15-.402.299-.616.448-.215.14-.434.28-.658.42a3.278 3.278 0 0 0-.294-.378c-.131-.15-.252-.27-.364-.364-.094 1.101-.308 2.095-.644 2.982a7.396 7.396 0 0 1-1.372 2.338 4.427 4.427 0 0 0-.462-.35 2.483 2.483 0 0 0-.518-.266 5.93 5.93 0 0 0 1.232-1.988c.289-.747.48-1.591.574-2.534a18.559 18.559 0 0 1-1.736.854l-.392-1.19.7-.266.812-.336c.28-.121.508-.229.686-.322v-4.942h4.536v-1.204h1.274v1.204h4.704v1.05h-9.338v3.5a15.824 15.824 0 0 1-.056 1.4 9.148 9.148 0 0 0 1.68-1.19 11.273 11.273 0 0 0-.532-.448 6.685 6.685 0 0 0-.532-.406l.658-.672c.158.112.336.247.532.406.196.15.378.299.546.448.149-.159.284-.327.406-.504.13-.177.252-.355.364-.532h-2.786v-.966h3.276c.074-.159.135-.322.182-.49a4.69 4.69 0 0 0 .14-.518l1.106.182c-.038.14-.08.28-.126.42-.047.14-.094.275-.14.406h4.578v.966H98.8c.158.205.326.401.504.588.177.177.364.35.56.518.336-.308.653-.649.952-1.022l.826.588c-.14.15-.299.313-.476.49-.178.177-.36.345-.546.504.634.43 1.306.775 2.016 1.036-.103.075-.224.215-.364.42-.131.205-.234.373-.308.504-.29-.13-.574-.27-.854-.42a8.902 8.902 0 0 1-.812-.49v2.772h-2.254v1.834c0 .803-.462 1.204-1.386 1.204h-.868Zm5.796-.238a8.744 8.744 0 0 1-1.47-.84c-.495-.355-.92-.7-1.274-1.036l.77-.728c.336.317.751.63 1.246.938.494.299.961.537 1.4.714a2.39 2.39 0 0 0-.392.462 3.35 3.35 0 0 0-.28.49Zm-8.288 0a1.788 1.788 0 0 0-.168-.308 6.628 6.628 0 0 0-.252-.378 1.406 1.406 0 0 0-.252-.266c.448-.187.914-.425 1.4-.714.485-.29.9-.602 1.246-.938l.77.728a9.962 9.962 0 0 1-2.744 1.876Zm-2.8-7.028a6.976 6.976 0 0 0-.322-.7c-.131-.28-.271-.555-.42-.826a5.596 5.596 0 0 0-.406-.7l.952-.504c.112.168.242.383.392.644.149.261.294.532.434.812.149.28.27.532.364.756a2.31 2.31 0 0 0-.308.154l-.392.196c-.122.065-.22.121-.294.168Zm5.46.308h2.912c-.476-.457-.901-.98-1.274-1.568h-.574c-.15.29-.313.565-.49.826-.178.252-.37.5-.574.742Zm-.154 3.024h3.29v-.714h-3.29v.714Zm0-1.484h3.29v-.672h-3.29v.672ZM76.175 60.7v-3.934h3.878V60.7h-3.878Zm4.816-7.168a1.396 1.396 0 0 0-.238-.266 5.51 5.51 0 0 0-.336-.308 2.53 2.53 0 0 0-.294-.238 6.934 6.934 0 0 0 1.12-.896c.364-.355.705-.733 1.022-1.134.327-.41.616-.821.868-1.232.262-.41.472-.793.63-1.148l1.12.196a9.047 9.047 0 0 0 1.008 1.54c.41.504.864.97 1.358 1.4a8.35 8.35 0 0 0 1.526 1.064 2.263 2.263 0 0 0-.28.266c-.102.121-.205.247-.308.378-.093.13-.163.238-.21.322a9.34 9.34 0 0 1-1.372-.994c-.466-.41-.9-.859-1.302-1.344a10.402 10.402 0 0 1-1.022-1.498 9.55 9.55 0 0 1-.854 1.4c-.336.467-.714.915-1.134 1.344-.41.43-.844.812-1.302 1.148Zm.238 7.504a5.23 5.23 0 0 0-.28-.532 2.732 2.732 0 0 0-.336-.49c.878-.243 1.74-.579 2.59-1.008a14.772 14.772 0 0 0 2.366-1.498 10.544 10.544 0 0 0 1.82-1.75l.882.714a11.362 11.362 0 0 1-1.918 1.932 14.29 14.29 0 0 1-2.436 1.568 14.38 14.38 0 0 1-2.688 1.064Zm.588-2.744a8.12 8.12 0 0 0-.322-.49 2.11 2.11 0 0 0-.406-.462c.598-.215 1.2-.504 1.806-.868.616-.364 1.19-.765 1.722-1.204.542-.439.99-.873 1.344-1.302l.882.728a10.17 10.17 0 0 1-1.386 1.372c-.541.448-1.124.868-1.75 1.26-.625.383-1.255.705-1.89.966Zm-.49-2.226a4.457 4.457 0 0 0-.35-.448 3.038 3.038 0 0 0-.392-.42 10.494 10.494 0 0 0 2.254-1.358c.71-.55 1.307-1.125 1.792-1.722l.84.714a11.19 11.19 0 0 1-1.806 1.764c-.7.55-1.48 1.04-2.338 1.47Zm-5.796-4.172v-1.022H80.6v1.022h-5.068Zm.672-1.96v-1.05h3.766v1.05h-3.766Zm0 5.88v-1.022h3.766v1.022h-3.766Zm0-1.96v-1.022h3.766v1.022h-3.766Zm1.092 5.81h1.624v-1.876h-1.624v1.876ZM202.918 61.064a3.587 3.587 0 0 0-.462-.462 2.522 2.522 0 0 0-.546-.392c.831-.579 1.451-1.302 1.862-2.17.411-.868.616-1.965.616-3.29v-5.964h7.602v10.808c0 .905-.532 1.358-1.596 1.358h-1.134a5.807 5.807 0 0 0-.126-.7 3.336 3.336 0 0 0-.182-.63h1.148c.205 0 .35-.033.434-.098.084-.075.126-.21.126-.406v-2.856h-5.054c-.131 1.092-.42 2.02-.868 2.786-.439.765-1.045 1.437-1.82 2.016Zm2.772-5.992h4.97v-1.946h-4.956v1.61c0 .056-.005.112-.014.168v.168Zm.014-3.15h4.956v-1.918h-4.956v1.918ZM246.386 60.938a5.25 5.25 0 0 0-.322-.588 5.404 5.404 0 0 0-.378-.532c1.904-.672 3.318-1.647 4.242-2.926.924-1.288 1.386-2.81 1.386-4.564V48.45h1.358v4.186c.018.961.182 1.825.49 2.59a6.788 6.788 0 0 0 1.274 2.016 8.504 8.504 0 0 0 1.834 1.484c.681.41 1.395.742 2.142.994a2.406 2.406 0 0 0-.294.336 6.696 6.696 0 0 0-.308.476c-.094.159-.159.28-.196.364a11.342 11.342 0 0 1-1.68-.798 10.108 10.108 0 0 1-1.624-1.162 8.13 8.13 0 0 1-1.358-1.526 6.643 6.643 0 0 1-.896-1.89c-.402 1.195-1.088 2.263-2.058 3.206-.971.933-2.175 1.67-3.612 2.212Zm8.764-5.6a2.774 2.774 0 0 0-.336-.238 6.794 6.794 0 0 0-.434-.266 1.8 1.8 0 0 0-.364-.196c.205-.215.429-.495.672-.84.252-.345.494-.719.728-1.12.233-.401.443-.784.63-1.148.186-.373.326-.686.42-.938l1.26.532c-.122.299-.285.64-.49 1.022-.206.373-.43.756-.672 1.148a20 20 0 0 1-.728 1.134c-.243.355-.472.658-.686.91Zm-7.448.392a2.159 2.159 0 0 0-.35-.196 7.776 7.776 0 0 0-.49-.21 2.357 2.357 0 0 0-.406-.126 6.3 6.3 0 0 0 .504-.952c.177-.392.34-.803.49-1.232.158-.43.289-.84.392-1.232.102-.401.168-.737.196-1.008l1.316.294a7.231 7.231 0 0 1-.238 1.092c-.122.41-.262.84-.42 1.288a20.11 20.11 0 0 1-.504 1.26 9.813 9.813 0 0 1-.49 1.022ZM294.025 61.022a9.082 9.082 0 0 0-.098-.644 4.851 4.851 0 0 0-.154-.63h1.176c.196 0 .336-.033.42-.098.084-.065.126-.191.126-.378V48.324h1.232v2.66c.205.85.522 1.685.952 2.506.354-.28.718-.588 1.092-.924.373-.336.732-.672 1.078-1.008.354-.345.658-.663.91-.952l.966.84c-.28.299-.616.63-1.008.994-.383.355-.789.71-1.218 1.064-.42.355-.831.681-1.232.98.541.84 1.171 1.615 1.89 2.324.718.7 1.488 1.293 2.31 1.778a1.854 1.854 0 0 0-.322.308c-.122.13-.238.266-.35.406-.112.14-.201.257-.266.35-.962-.635-1.862-1.447-2.702-2.436a15.432 15.432 0 0 1-2.1-3.262v5.74c0 .887-.514 1.33-1.54 1.33h-1.162Zm-3.626-1.26a9.78 9.78 0 0 0-.448-.476 2.522 2.522 0 0 0-.476-.406c.7-.485 1.32-1.05 1.862-1.694a9.92 9.92 0 0 0 1.33-2.072 7.262 7.262 0 0 0 .658-2.128h-3.276V51.81h4.62c-.122 1.727-.56 3.267-1.316 4.62a10.266 10.266 0 0 1-2.954 3.332ZM339.369 60.98v-7.154c-.401.7-.872 1.39-1.414 2.072a20.702 20.702 0 0 1-1.722 1.89 16.807 16.807 0 0 1-1.806 1.554 2.127 2.127 0 0 0-.266-.308 4.502 4.502 0 0 0-.378-.364 2.09 2.09 0 0 0-.336-.266 11.76 11.76 0 0 0 1.498-1.12c.504-.439.994-.92 1.47-1.442.486-.523.934-1.06 1.344-1.61a14.18 14.18 0 0 0 1.05-1.61h-4.816v-1.19h5.376v-3.094h1.274v3.094h5.362v1.19h-4.83c.392.663.873 1.344 1.442 2.044a22.25 22.25 0 0 0 1.876 2.002 18.515 18.515 0 0 0 2.114 1.708c-.093.056-.21.15-.35.28-.13.121-.256.252-.378.392-.121.13-.21.238-.266.322a21.287 21.287 0 0 1-1.876-1.624 23.616 23.616 0 0 1-1.708-1.904 20.186 20.186 0 0 1-1.386-2.016v7.154h-1.274ZM378.092 60.574v-1.12h5.236V56.29h-4.298v-1.162h4.298v-1.442h-2.506v-1.148h6.356v1.148h-2.492v1.442h4.256v1.162h-4.256v3.164h5.152v1.12h-11.746Zm-.168-6.454a5.75 5.75 0 0 0-.308-.518 2.501 2.501 0 0 0-.434-.56c.578-.205 1.18-.49 1.806-.854a16.863 16.863 0 0 0 1.806-1.246 15.798 15.798 0 0 0 1.582-1.4c.466-.476.83-.929 1.092-1.358l1.218.196c.345.495.756.97 1.232 1.428a15.7 15.7 0 0 0 1.554 1.26 16.038 16.038 0 0 0 3.332 1.764c-.094.093-.196.22-.308.378-.112.159-.22.317-.322.476a4.26 4.26 0 0 0-.21.364c-.476-.215-.99-.476-1.54-.784a19.941 19.941 0 0 1-1.624-1.064 16.628 16.628 0 0 1-1.54-1.26 8.841 8.841 0 0 1-1.218-1.4c-.29.392-.672.807-1.148 1.246-.467.43-.985.859-1.554 1.288-.57.42-1.148.807-1.736 1.162-.588.355-1.148.649-1.68.882Zm8.862 5.25-1.064-.546c.214-.327.438-.714.672-1.162.242-.448.429-.854.56-1.218l1.148.49a13.434 13.434 0 0 1-.84 1.652c-.168.29-.327.55-.476.784Zm-5.6 0a5.546 5.546 0 0 0-.378-.728c-.168-.29-.346-.57-.532-.84-.187-.28-.364-.5-.532-.658l1.05-.63c.27.317.532.667.784 1.05s.48.765.686 1.148l-1.078.658ZM421.643 60.35v-1.218h5.684v-5.264h-4.718V52.65h4.718v-4.088h1.358v4.088h4.76v1.218h-4.76v5.264h5.712v1.218h-12.754ZM467.771 60.084V49.276h8.456v10.808h-8.456Zm1.358-1.232h5.74V55.17h-5.74v3.682Zm0-4.872h5.74v-3.472h-5.74v3.472Z"/><defs><filter id="a" width="560" height="220" x="0" y="0" color-interpolation-filters="sRGB" filterUnits="userSpaceOnUse"><feFlood flood-opacity="0" result="BackgroundImageFix"/><feColorMatrix in="SourceAlpha" result="hardAlpha" values="0 0 0 0 0 0 0 0 0 0 0 0 0 0 0 0 0 0 127 0"/><feOffset/><feGaussianBlur stdDeviation="5"/><feComposite in2="hardAlpha" operator="out"/><feColorMatrix values="0 0 0 0 0.133333 0 0 0 0 0.133333 0 0 0 0 0.133333 0 0 0 0.1 0"/><feBlend in2="BackgroundImageFix" result="effect1_dropShadow_372_462"/><feBlend in="SourceGraphic" in2="effect1_dropShadow_372_462" result="shape"/></filter><filter id="b" width="448" height="122" x="56" y="38" color-interpolation-filters="sRGB" filterUnits="userSpaceOnUse"><feFlood flood-opacity="0" result="BackgroundImageFix"/><feColorMatrix in="SourceAlpha" result="hardAlpha" values="0 0 0 0 0 0 0 0 0 0 0 0 0 0 0 0 0 0 127 0"/><feOffset dy="4"/><feGaussianBlur stdDeviation="2"/><feComposite in2="hardAlpha" operator="out"/><feColorMatrix values="0 0 0 0 0.133333 0 0 0 0 0.133333 0 0 0 0 0.133333 0 0 0 0.1 0"/><feBlend in2="BackgroundImageFix" result="effect1_dropShadow_372_462"/><feBlend in="SourceGraphic" in2="effect1_dropShadow_372_462" result="shape"/></filter></defs></svg>